<?xml version="1.0" encoding="UTF-8"?><svg xmlns="http://www.w3.org/2000/svg" viewBox="0 0 750 500"><defs><style>.cls-1{fill:none;}.cls-2{fill:#ebebeb;}.cls-3{fill:#eb996e;}.cls-4{fill:#fff;}.cls-5{fill:#fafafa;}.cls-6{fill:#ffbe9d;}.cls-7{fill:#e8505b;}.cls-8{fill:#b78876;}.cls-9{fill:#aa6550;}.cls-10,.cls-11{fill:#e0e0e0;}.cls-12{fill:#455a64;}.cls-13{fill:#263238;}.cls-14{opacity:.2;}.cls-15{opacity:.3;}.cls-16{opacity:.4;}.cls-11{fill-rule:evenodd;}</style></defs><g id="Background_Complete"><g><path class="cls-11" d="M637.77,117.56c4.09,2.13,7.83,4.78,11.14,7.85l11.91-4.24,11.19,17.66-8.92,8.96c1.36,4.3,2.16,8.82,2.34,13.43l11.41,5.42-4.58,20.4-12.63,.03c-2.13,4.1-4.79,7.83-7.85,11.14l4.24,11.91-17.66,11.19-8.96-8.92c-4.3,1.36-8.81,2.16-13.43,2.34l-5.42,11.41-20.41-4.58-.03-12.63c-4.1-2.13-7.83-4.78-11.14-7.85l-11.91,4.24-11.19-17.66,8.92-8.96c-1.36-4.3-2.16-8.81-2.34-13.43l-11.41-5.42,4.58-20.4,12.63-.03c2.13-4.1,4.79-7.84,7.85-11.15l-4.24-11.91,17.66-11.19,8.96,8.92c4.3-1.36,8.81-2.16,13.43-2.34l5.42-11.41,20.4,4.58,.03,12.63h0Zm-17.99,24.01c-12.09-2.71-24.09,4.89-26.8,16.98-2.71,12.09,4.89,24.09,16.98,26.8,12.09,2.71,24.09-4.89,26.8-16.98,2.71-12.09-4.89-24.09-16.98-26.8Z"/><g><path class="cls-10" d="M525.53,78.51s1.49,.1,3.92,1.23c2.37,1.1,5.73,3.51,7.8,7.9,1.01,2.17,1.7,4.79,1.59,7.63-.12,2.82-.87,5.87-2.62,8.55-.84,1.36-1.92,2.61-3.19,3.71-1.25,1.11-2.71,2.05-4.31,2.73-3.17,1.44-6.94,1.82-10.55,1.04-3.6-.84-6.84-2.79-9.09-5.45-1.15-1.3-2.07-2.77-2.73-4.31-.68-1.53-1.12-3.12-1.3-4.71-.44-3.18,.18-6.26,1.28-8.86,1.12-2.61,2.86-4.69,4.7-6.22,3.75-3.08,7.81-3.82,10.43-3.81,2.67,.02,4.06,.56,4.06,.56-.02,.12-1.45-.29-4.05-.19-2.56,.1-6.46,.93-10.01,3.95-1.74,1.5-3.37,3.51-4.41,6.01-1.01,2.49-1.58,5.42-1.14,8.43,.18,1.5,.61,3.01,1.26,4.46,.63,1.45,1.5,2.84,2.6,4.07,2.14,2.51,5.2,4.34,8.6,5.13,3.41,.73,6.96,.39,9.96-.97,1.52-.64,2.9-1.52,4.09-2.57,1.2-1.03,2.24-2.21,3.04-3.49,1.68-2.53,2.43-5.43,2.57-8.11,.14-2.7-.49-5.22-1.42-7.32-1.91-4.25-5.09-6.67-7.36-7.85-2.32-1.2-3.78-1.44-3.75-1.56Z"/><path class="cls-10" d="M538.81,60.79s-.02-.19-.04-.58c-.01-.43-.02-1.01-.04-1.77-.02-1.62-.05-3.95-.1-6.98l.12,.15c-3.86-.84-8.94-1.95-15.08-3.29l.27-.13c-1.2,2.56-2.54,5.4-3.97,8.44l-.07,.15h-.17c-3.13,.14-6.47,.68-9.83,1.75l-.18,.06-.14-.13c-2.07-2.05-4.3-4.26-6.63-6.57l.42,.05c-4.1,2.61-8.45,5.38-13.02,8.29l.15-.44c.97,2.72,2.05,5.71,3.15,8.78l.08,.22-.16,.18c-2.1,2.27-4.12,5.05-5.72,8.15l-.11,.22h-.25c-2.89,.01-6.08,.02-9.33,.03l.41-.33c-1.06,4.73-2.19,9.84-3.36,15.07l-.24-.5c2.62,1.24,5.51,2.61,8.43,3.99l.25,.12v.27c.13,3.11,.68,6.51,1.72,9.79l.08,.27-.2,.2c-2.06,2.07-4.31,4.33-6.58,6.62l.06-.58c2.62,4.13,5.42,8.55,8.27,13.04l-.56-.19c2.78-.99,5.77-2.06,8.79-3.13l.27-.1,.21,.2c2.32,2.15,5.09,4.15,8.12,5.72h0c.11,.19-.25-.42,.26,.42h0v4.68c.01,1.56,.02,3.11,.02,4.65l-.37-.46c5.09,1.14,10.11,2.27,15.06,3.38l-.53,.26c1.35-2.84,2.68-5.64,4-8.42l.12-.26h.28c3.36-.14,6.66-.72,9.8-1.71l.27-.08,.2,.2c2.23,2.23,4.44,4.42,6.61,6.59l-.56-.06c4.45-2.82,8.8-5.57,13.05-8.25l-.18,.52c-1.06-2.98-2.1-5.92-3.12-8.79l-.09-.24,.18-.19c2.31-2.49,4.24-5.24,5.74-8.13l.12-.22h.25c3.2,0,6.3,0,9.33,0l-.38,.31c1.2-5.3,2.33-10.3,3.41-15.06l.2,.41c-2.96-1.41-5.74-2.74-8.42-4.02l-.19-.09v-.21c-.14-3.56-.76-6.83-1.69-9.84l-.06-.18,.13-.13c2.4-2.39,4.56-4.55,6.61-6.59l-.04,.35c-3.18-5.07-5.89-9.38-8.2-13.08l.25,.09c-3.52,1.23-6.41,2.23-8.81,3.07l-.09,.03-.07-.06c-2.48-2.32-4.58-3.72-5.99-4.61-.69-.42-1.22-.73-1.6-.97-.37-.21-.54-.32-.53-.33,.01,0,.21,.08,.57,.26,.37,.19,.93,.48,1.65,.9,1.44,.85,3.59,2.23,6.12,4.52l-.15-.03c2.39-.87,5.27-1.91,8.77-3.19l.16-.06,.09,.14c2.35,3.67,5.1,7.97,8.32,13l.12,.19-.16,.16c-2.03,2.05-4.18,4.22-6.56,6.63l.08-.31c.97,3.05,1.62,6.37,1.77,10l-.19-.29c2.68,1.27,5.47,2.58,8.44,3.98l.26,.12-.06,.28c-1.06,4.76-2.17,9.77-3.35,15.07l-.07,.31h-.32c-3.03,.01-6.13,.02-9.33,.04l.36-.22c-1.53,2.95-3.49,5.77-5.85,8.33l.09-.43c1.03,2.88,2.07,5.81,3.14,8.79l.12,.33-.3,.19c-4.24,2.69-8.58,5.45-13.03,8.27l-.31,.19-.26-.26c-2.18-2.16-4.38-4.35-6.62-6.58l.46,.11c-3.21,1.02-6.59,1.62-10.04,1.75l.4-.27c-1.32,2.78-2.65,5.59-4,8.43l-.16,.34-.37-.08c-4.95-1.11-9.97-2.23-15.07-3.37l-.37-.08v-.38c0-1.54,0-3.09-.01-4.65v-4.67h0c.51,.83,.14,.22,.25,.41h0c-3.11-1.62-5.95-3.67-8.32-5.87l.48,.1c-3.02,1.07-6.02,2.14-8.79,3.13l-.36,.13-.2-.32c-2.84-4.49-5.64-8.91-8.26-13.04l-.2-.31,.26-.26c2.27-2.28,4.53-4.54,6.59-6.61l-.11,.46c-1.06-3.37-1.62-6.85-1.74-10.03l.26,.39c-2.92-1.39-5.8-2.76-8.42-4.01l-.32-.15,.08-.34c1.18-5.23,2.33-10.33,3.4-15.06l.07-.33h.34c3.25,0,6.44,0,9.33,0l-.36,.22c1.65-3.16,3.72-5.99,5.87-8.31l-.08,.4c-1.09-3.07-2.15-6.07-3.11-8.8l-.1-.28,.25-.16c4.58-2.89,8.95-5.64,13.06-8.23l.23-.14,.19,.19c2.31,2.32,4.54,4.54,6.59,6.6l-.31-.08c3.43-1.07,6.82-1.59,10-1.71l-.24,.16c1.45-3.03,2.81-5.86,4.03-8.41l.08-.18,.19,.04c6.13,1.41,11.19,2.58,15.04,3.47l.12,.03v.12c-.03,3-.05,5.31-.07,6.92-.01,.76-.02,1.35-.03,1.79-.01,.4-.02,.61-.03,.62Z"/></g></g><g><g><path class="cls-1" d="M133.33,280.93c1.87,1.4,3.53,3.03,4.94,4.83l6.3-1.15,4.16,9.75-5.19,3.75c.33,2.26,.36,4.59,.08,6.91l5.27,3.64-3.95,9.83-6.32-1.02c-1.4,1.88-3.03,3.53-4.84,4.94l1.15,6.3-9.75,4.16-3.75-5.19c-2.26,.33-4.59,.36-6.91,.07l-3.64,5.27-9.84-3.95,1.02-6.32c-1.88-1.4-3.53-3.03-4.94-4.84l-6.3,1.15-4.16-9.75,5.19-3.75c-.33-2.26-.36-4.59-.08-6.91l-5.27-3.64,3.95-9.83,6.32,1.02c1.4-1.88,3.03-3.53,4.84-4.94l-1.15-6.3,9.75-4.16,3.75,5.19c2.26-.33,4.59-.36,6.91-.08l3.64-5.27,9.83,3.95-1.01,6.32h0Zm-10.95,10.55c-5.83-2.34-12.45,.48-14.79,6.31-2.34,5.83,.49,12.45,6.31,14.79,5.83,2.34,12.45-.48,14.79-6.31,2.34-5.83-.48-12.45-6.31-14.79Z"/><path class="cls-10" d="M122.37,291.48s1,.24,2.52,1.26c1.48,1.01,3.49,3.01,4.42,6.21,.44,1.58,.62,3.43,.24,5.34-.39,1.9-1.24,3.88-2.72,5.51-.72,.83-1.59,1.56-2.57,2.16-.97,.61-2.06,1.09-3.22,1.38-2.31,.63-4.9,.47-7.26-.46-2.35-.97-4.33-2.64-5.56-4.69-.64-1.01-1.1-2.11-1.37-3.22-.29-1.11-.42-2.24-.36-3.34,.05-2.2,.82-4.22,1.84-5.86,1.05-1.65,2.46-2.86,3.87-3.69,2.88-1.67,5.72-1.73,7.49-1.43,1.81,.31,2.69,.83,2.69,.83-.02,.08-.95-.35-2.73-.58-1.74-.22-4.48-.08-7.22,1.57-1.34,.83-2.67,2.01-3.65,3.59-.96,1.58-1.67,3.5-1.7,5.59-.05,1.04,.08,2.11,.36,3.16,.27,1.05,.7,2.09,1.31,3.04,1.17,1.94,3.05,3.51,5.26,4.42,2.23,.87,4.67,1.03,6.86,.44,1.1-.27,2.13-.71,3.05-1.29,.93-.56,1.76-1.25,2.45-2.03,1.42-1.53,2.24-3.41,2.64-5.21,.39-1.82,.25-3.59-.15-5.12-.83-3.09-2.71-5.08-4.12-6.13-1.44-1.07-2.4-1.39-2.37-1.47Z"/><path class="cls-10" d="M133.33,280.93s0-.13,.04-.4c.04-.29,.1-.69,.17-1.2,.16-1.1,.4-2.68,.7-4.74l.06,.11c-2.52-1-5.84-2.31-9.86-3.89l.2-.06c-1.1,1.6-2.31,3.38-3.62,5.28l-.07,.1h-.12c-2.14-.27-4.46-.27-6.86,.08l-.13,.02-.08-.11c-1.17-1.61-2.45-3.36-3.77-5.18l.28,.08c-3.07,1.32-6.32,2.71-9.74,4.18l.15-.28c.36,1.95,.76,4.1,1.16,6.3l.03,.16-.13,.1c-1.68,1.31-3.35,2.97-4.78,4.89l-.1,.14-.17-.03c-1.96-.31-4.12-.66-6.32-1.01l.32-.18c-1.24,3.09-2.57,6.42-3.94,9.84l-.11-.36c1.64,1.13,3.44,2.38,5.27,3.64l.15,.11-.02,.19c-.26,2.12-.26,4.48,.08,6.83l.03,.19-.16,.11c-1.63,1.18-3.4,2.46-5.19,3.76l.11-.38c1.32,3.09,2.73,6.39,4.16,9.75l-.36-.19c1.99-.36,4.14-.76,6.3-1.15l.19-.04,.12,.16c1.33,1.71,2.99,3.37,4.87,4.77h0c.06,.14-.13-.31,.13,.32h0v.09l-.03,.1-.03,.2-.06,.4-.13,.79-.25,1.59c-.17,1.06-.34,2.11-.51,3.15l-.2-.35c3.32,1.34,6.6,2.65,9.83,3.95l-.39,.12c1.23-1.77,2.44-3.53,3.64-5.27l.11-.16,.19,.02c2.29,.28,4.59,.25,6.82-.07l.19-.03,.11,.15c1.27,1.76,2.52,3.49,3.75,5.19l-.37-.1c3.33-1.42,6.58-2.8,9.75-4.15l-.18,.33c-.39-2.14-.77-4.24-1.14-6.3l-.03-.17,.14-.11c1.84-1.43,3.45-3.09,4.79-4.87l.1-.14,.17,.03c2.17,.35,4.27,.69,6.32,1.03l-.29,.17c1.4-3.46,2.72-6.72,3.97-9.83l.09,.3c-1.85-1.28-3.59-2.49-5.26-3.65l-.12-.08,.02-.14c.3-2.43,.25-4.71-.06-6.85l-.02-.13,.1-.08c1.89-1.36,3.59-2.58,5.2-3.74l-.06,.23c-1.59-3.78-2.95-7.01-4.12-9.77l.16,.09c-2.52,.44-4.59,.81-6.31,1.11h-.06l-.04-.04c-1.42-1.84-2.7-3.03-3.55-3.79-.42-.36-.74-.63-.98-.83-.23-.19-.33-.28-.32-.28,0,0,.13,.08,.36,.24,.23,.17,.57,.42,1.02,.79,.88,.74,2.18,1.9,3.65,3.74l-.1-.04c1.72-.33,3.78-.72,6.29-1.19l.11-.02,.05,.11c1.19,2.75,2.57,5.96,4.2,9.73l.06,.14-.13,.09c-1.6,1.17-3.3,2.4-5.18,3.77l.09-.2c.32,2.17,.39,4.5,.1,6.97l-.1-.22c1.68,1.15,3.42,2.35,5.28,3.63l.16,.11-.07,.19c-1.24,3.11-2.55,6.38-3.93,9.84l-.08,.2-.21-.03c-2.05-.33-4.16-.66-6.32-1l.27-.11c-1.36,1.83-3,3.53-4.88,5l.11-.28c.38,2.06,.77,4.16,1.16,6.3l.04,.24-.22,.09c-3.17,1.36-6.42,2.75-9.74,4.17l-.23,.1-.15-.2c-1.24-1.71-2.49-3.43-3.76-5.19l.3,.13c-2.29,.33-4.64,.37-6.99,.08l.3-.14c-1.2,1.74-2.41,3.5-3.64,5.27l-.15,.21-.24-.1c-3.23-1.3-6.51-2.61-9.84-3.95l-.24-.1,.04-.26c.17-1.05,.34-2.1,.51-3.15l.25-1.59,.13-.79,.06-.4,.03-.2,.02-.1v-.07h.01v-.02c.25,.63,.07,.17,.13,.31h0c-1.93-1.44-3.63-3.14-4.99-4.9l.32,.12c-2.16,.39-4.31,.79-6.3,1.15l-.26,.05-.1-.24c-1.43-3.35-2.84-6.66-4.16-9.75l-.1-.24,.21-.15c1.79-1.29,3.57-2.58,5.19-3.75l-.13,.3c-.35-2.4-.34-4.82-.07-6.99l.13,.29c-1.82-1.26-3.62-2.51-5.26-3.65l-.2-.14,.09-.22c1.38-3.41,2.72-6.74,3.96-9.83l.09-.22,.23,.04c2.2,.36,4.36,.71,6.32,1.03l-.27,.11c1.46-1.96,3.18-3.65,4.9-4.98l-.1,.26c-.4-2.2-.79-4.35-1.14-6.3l-.04-.2,.19-.08c3.42-1.45,6.68-2.83,9.76-4.14l.17-.07,.11,.15c1.31,1.83,2.57,3.58,3.74,5.2l-.2-.09c2.44-.35,4.8-.33,6.96-.05l-.18,.08c1.32-1.89,2.55-3.66,3.66-5.25l.08-.11,.12,.05c4,1.63,7.3,2.98,9.81,4.01l.08,.03v.08c-.36,2.03-.63,3.6-.82,4.68-.09,.51-.17,.91-.22,1.21-.05,.27-.08,.41-.09,.42Z"/></g><path class="cls-11" d="M216.94,334.08c3.28,2.45,6.18,5.31,8.65,8.47l11.04-2.02,7.29,17.08-9.1,6.58c.58,3.97,.64,8.04,.13,12.11l9.23,6.38-6.93,17.23-11.08-1.78c-2.45,3.29-5.31,6.18-8.47,8.65l2.02,11.04-17.08,7.29-6.58-9.1c-3.97,.58-8.04,.63-12.11,.13l-6.38,9.23-17.24-6.92,1.78-11.08c-3.29-2.45-6.18-5.31-8.65-8.47l-11.05,2.02-7.29-17.08,9.1-6.58c-.58-3.97-.63-8.03-.13-12.11l-9.23-6.38,6.92-17.23,11.08,1.78c2.45-3.29,5.31-6.19,8.47-8.65l-2.02-11.04,17.08-7.29,6.58,9.1c3.97-.58,8.04-.63,12.11-.13l6.38-9.23,17.23,6.92-1.78,11.08h0Zm-19.2,18.48c-10.21-4.1-21.81,.85-25.92,11.06-4.1,10.21,.85,21.81,11.06,25.92,10.21,4.1,21.81-.85,25.92-11.06,4.1-10.21-.85-21.81-11.06-25.92Z"/></g></g><g id="JavaScript"><g><g><polygon class="cls-2" points="216.18 224.08 95.65 224.08 95.65 74.18 187.85 74.45 216.18 105.22 216.18 224.08"/><g><path class="cls-13" d="M131.7,159.7c-.16,.15-2.16-1.66-5.27-4.7-3.11-3.04-7.33-7.32-11.93-12.12l-.52-.54,.51-.54,.05-.05c4.58-4.84,8.79-9.15,11.9-12.22s5.1-4.9,5.26-4.75c.16,.15-1.56,2.24-4.46,5.51-2.9,3.27-6.98,7.7-11.56,12.54l-.05,.05v-1.08c4.59,4.8,8.69,9.2,11.6,12.44,2.91,3.24,4.63,5.32,4.47,5.46Z"/><path class="cls-13" d="M180.07,124.78c.16-.15,2.16,1.66,5.27,4.7,3.11,3.04,7.33,7.32,11.93,12.12l.52,.54-.51,.54-.05,.05c-4.58,4.84-8.79,9.15-11.9,12.22s-5.1,4.9-5.26,4.75c-.16-.15,1.56-2.24,4.46-5.51s6.98-7.7,11.56-12.54l.05-.05v1.08c-4.59-4.8-8.69-9.2-11.6-12.44-2.91-3.24-4.63-5.32-4.47-5.46Z"/><path class="cls-13" d="M141.22,165.21c-.37-.23,5.89-11.12,13.97-24.34,8.09-13.22,14.94-23.75,15.31-23.52,.37,.22-5.89,11.12-13.97,24.34-8.08,13.21-14.94,23.75-15.31,23.52Z"/></g><path class="cls-10" d="M187.84,74.46l-.11,25.11c-.02,3.65,3,6.59,6.65,6.48l21.8-.82-28.34-30.78Z"/></g><g><rect class="cls-7" x="81.58" y="175.72" width="53.45" height="32.49"/><g><path class="cls-4" d="M96.77,198.61l1.39-1.63c.91,1.29,2.09,1.99,3.5,1.99,1.89,0,2.88-1.15,2.88-3.4v-9.42h-6.06v-2.09h8.44v11.39c0,3.74-1.82,5.59-5.25,5.59-1.99,0-3.81-.86-4.89-2.42Z"/><path class="cls-4" d="M110.26,198.92l.89-1.87c1.25,1.13,3.38,1.94,5.54,1.94,2.9,0,4.15-1.13,4.15-2.59,0-4.1-10.16-1.51-10.16-7.74,0-2.59,2.01-4.79,6.42-4.79,1.97,0,4,.53,5.39,1.49l-.79,1.92c-1.46-.94-3.12-1.37-4.6-1.37-2.85,0-4.08,1.2-4.08,2.66,0,4.1,10.16,1.53,10.16,7.69,0,2.57-2.06,4.77-6.5,4.77-2.56,0-5.08-.86-6.42-2.11Z"/></g></g></g></g><g id="Angular"><g><g><path class="cls-7" d="M318.9,83.05c-2.68,1.33-4.38,4.12-4.36,7.17l.37,59.47c.02,2.8,1.48,5.38,3.84,6.79l49.38,29.43s.02,0,.02,0l47.27-30.64c2.25-1.46,3.61-4,3.59-6.73l-.39-62.09c-.02-3.16-1.88-6.01-4.72-7.24l-46.55-20.12-48.45,23.97Z"/><g class="cls-14"><path d="M367.34,59.08l.8,126.83,47.21-30.58c2.29-1.48,3.68-3.98,3.67-6.7l-.37-62.34c-.02-3.08-1.85-5.85-4.68-7.07l-46.62-20.13Z"/></g></g><path class="cls-4" d="M381.16,130.3l-28.8,.18-5.88,13.92-7.97,.05,24.19-55.67,7.66-.05,24.97,55.37-8.13,.05-6.05-13.84Zm-2.75-6.33l-11.86-27.13-11.52,27.28,23.38-.15Z"/></g></g><g id="Screen"><g><rect class="cls-13" x="344.86" y="156.27" width="271.84" height="158.4"/><path class="cls-10" d="M366.12,306.7c-.14,0-.26-32.39-.26-72.34s.12-72.34,.26-72.34,.26,32.38,.26,72.34-.12,72.34-.26,72.34Z"/><path class="cls-10" d="M360.53,168.12c0,.14-2.02,.26-4.5,.26s-4.5-.12-4.5-.26,2.02-.26,4.5-.26,4.5,.12,4.5,.26Z"/><path class="cls-10" d="M360.53,177.65c0,.14-2.02,.26-4.5,.26s-4.5-.12-4.5-.26,2.02-.26,4.5-.26,4.5,.12,4.5,.26Z"/><path class="cls-10" d="M360.53,187.19c0,.14-2.02,.26-4.5,.26s-4.5-.12-4.5-.26,2.02-.26,4.5-.26,4.5,.12,4.5,.26Z"/><path class="cls-10" d="M360.53,196.72c0,.14-2.02,.26-4.5,.26s-4.5-.12-4.5-.26,2.02-.26,4.5-.26,4.5,.12,4.5,.26Z"/><path class="cls-10" d="M360.53,206.25c0,.14-2.02,.26-4.5,.26s-4.5-.12-4.5-.26,2.02-.26,4.5-.26,4.5,.12,4.5,.26Z"/><path class="cls-10" d="M360.53,215.79c0,.14-2.02,.26-4.5,.26s-4.5-.12-4.5-.26,2.02-.26,4.5-.26,4.5,.12,4.5,.26Z"/><path class="cls-10" d="M360.53,225.32c0,.14-2.02,.26-4.5,.26s-4.5-.12-4.5-.26,2.02-.26,4.5-.26,4.5,.12,4.5,.26Z"/><path class="cls-10" d="M360.53,234.85c0,.14-2.02,.26-4.5,.26s-4.5-.12-4.5-.26,2.02-.26,4.5-.26,4.5,.12,4.5,.26Z"/><path class="cls-10" d="M360.53,244.39c0,.14-2.02,.26-4.5,.26s-4.5-.12-4.5-.26,2.02-.26,4.5-.26,4.5,.12,4.5,.26Z"/><path class="cls-10" d="M360.53,253.92c0,.14-2.02,.26-4.5,.26s-4.5-.12-4.5-.26,2.02-.26,4.5-.26,4.5,.12,4.5,.26Z"/><path class="cls-10" d="M360.53,263.45c0,.14-2.02,.26-4.5,.26s-4.5-.12-4.5-.26,2.02-.26,4.5-.26,4.5,.12,4.5,.26Z"/><path class="cls-10" d="M360.53,272.99c0,.14-2.02,.26-4.5,.26s-4.5-.12-4.5-.26,2.02-.26,4.5-.26,4.5,.12,4.5,.26Z"/><path class="cls-10" d="M360.53,282.52c0,.14-2.02,.26-4.5,.26s-4.5-.12-4.5-.26,2.02-.26,4.5-.26,4.5,.12,4.5,.26Z"/><path class="cls-10" d="M360.53,292.05c0,.14-2.02,.26-4.5,.26s-4.5-.12-4.5-.26,2.02-.26,4.5-.26,4.5,.12,4.5,.26Z"/><path class="cls-10" d="M360.53,301.59c0,.14-2.02,.26-4.5,.26s-4.5-.12-4.5-.26,2.02-.26,4.5-.26,4.5,.12,4.5,.26Z"/><path class="cls-7" d="M396.62,167.56c0,.14-5.23,.26-11.68,.26s-11.68-.12-11.68-.26,5.23-.26,11.68-.26,11.68,.12,11.68,.26Z"/><path class="cls-7" d="M396.62,301.59c0,.14-5.23,.26-11.68,.26s-11.68-.12-11.68-.26,5.23-.26,11.68-.26,11.68,.12,11.68,.26Z"/><path class="cls-7" d="M429.16,187.19c0,.14-9.79,.26-21.86,.26s-21.86-.12-21.86-.26,9.78-.26,21.86-.26,21.86,.12,21.86,.26Z"/><path class="cls-10" d="M479.7,187.19c0,.14-9.79,.26-21.86,.26s-21.86-.12-21.86-.26,9.78-.26,21.86-.26,21.86,.12,21.86,.26Z"/><path class="cls-10" d="M460.39,196.72c0,.14-14.42,.26-32.21,.26s-32.21-.12-32.21-.26,14.42-.26,32.21-.26,32.21,.12,32.21,.26Z"/><path class="cls-10" d="M460.39,206.25c0,.14-14.42,.26-32.21,.26s-32.21-.12-32.21-.26,14.42-.26,32.21-.26,32.21,.12,32.21,.26Z"/><path class="cls-10" d="M504.73,234.85c0,.14-14.42,.26-32.21,.26s-32.21-.12-32.21-.26,14.42-.26,32.21-.26,32.21,.12,32.21,.26Z"/><path class="cls-10" d="M485.6,215.79c0,.14-14.42,.26-32.21,.26s-32.21-.12-32.21-.26,14.42-.26,32.21-.26,32.21,.12,32.21,.26Z"/><path class="cls-10" d="M564.32,215.79c0,.14-14.42,.26-32.21,.26s-32.21-.12-32.21-.26,14.42-.26,32.21-.26,32.21,.12,32.21,.26Z"/><path class="cls-5" d="M536.94,196.72c0,.14-14.42,.26-32.21,.26s-32.21-.12-32.21-.26,14.42-.26,32.21-.26,32.21,.12,32.21,.26Z"/><path class="cls-5" d="M581.45,234.85c0,.14-14.42,.26-32.21,.26s-32.21-.12-32.21-.26,14.42-.26,32.21-.26,32.21,.12,32.21,.26Z"/><path class="cls-12" d="M572.56,206.25c0,.14-22.4,.26-50.02,.26s-50.02-.12-50.02-.26,22.39-.26,50.02-.26,50.02,.12,50.02,.26Z"/><path class="cls-5" d="M396.62,177.65c0,.14-5.23,.26-11.68,.26s-11.68-.12-11.68-.26,5.23-.26,11.68-.26,11.68,.12,11.68,.26Z"/><path class="cls-5" d="M396.62,292.05c0,.14-5.23,.26-11.68,.26s-11.68-.12-11.68-.26,5.23-.26,11.68-.26,11.68,.12,11.68,.26Z"/><path class="cls-5" d="M408.19,215.79c0,.14-5.23,.26-11.68,.26s-11.68-.12-11.68-.26,5.23-.26,11.68-.26,11.68,.12,11.68,.26Z"/><path class="cls-7" d="M595.45,215.79c0,.14-5.23,.26-11.68,.26s-11.68-.12-11.68-.26,5.23-.26,11.68-.26,11.68,.12,11.68,.26Z"/><path class="cls-7" d="M429.16,253.86c0,.14-9.79,.26-21.86,.26s-21.86-.12-21.86-.26,9.78-.26,21.86-.26,21.86,.12,21.86,.26Z"/><path class="cls-10" d="M479.7,253.86c0,.14-9.79,.26-21.86,.26s-21.86-.12-21.86-.26,9.78-.26,21.86-.26,21.86,.12,21.86,.26Z"/><path class="cls-10" d="M460.39,263.4c0,.14-14.42,.26-32.21,.26s-32.21-.12-32.21-.26,14.42-.26,32.21-.26,32.21,.12,32.21,.26Z"/><path class="cls-10" d="M460.39,272.93c0,.14-14.42,.26-32.21,.26s-32.21-.12-32.21-.26,14.42-.26,32.21-.26,32.21,.12,32.21,.26Z"/><path class="cls-10" d="M485.6,282.46c0,.14-14.42,.26-32.21,.26s-32.21-.12-32.21-.26,14.42-.26,32.21-.26,32.21,.12,32.21,.26Z"/><path class="cls-10" d="M564.32,282.46c0,.14-14.42,.26-32.21,.26s-32.21-.12-32.21-.26,14.42-.26,32.21-.26,32.21,.12,32.21,.26Z"/><path class="cls-5" d="M536.94,263.4c0,.14-14.42,.26-32.21,.26s-32.21-.12-32.21-.26,14.42-.26,32.21-.26,32.21,.12,32.21,.26Z"/><path class="cls-12" d="M572.56,272.93c0,.14-22.4,.26-50.02,.26s-50.02-.12-50.02-.26,22.39-.26,50.02-.26,50.02,.12,50.02,.26Z"/><path class="cls-5" d="M408.19,282.46c0,.14-5.23,.26-11.68,.26s-11.68-.12-11.68-.26,5.23-.26,11.68-.26,11.68,.12,11.68,.26Z"/><path class="cls-7" d="M595.45,282.46c0,.14-5.23,.26-11.68,.26s-11.68-.12-11.68-.26,5.23-.26,11.68-.26,11.68,.12,11.68,.26Z"/></g></g><g id="React"><g><path class="cls-7" d="M652.65,312.48c-.18,.11-1.87-2.71-5.28-7.52-1.71-2.41-3.85-5.31-6.52-8.53-2.68-3.2-5.88-6.75-9.79-10.21-1.96-1.73-4.09-3.44-6.46-4.97-2.37-1.51-4.99-2.91-7.83-3.52-1.41-.3-2.87-.38-4.21-.06-1.36,.3-2.54,1.1-3.44,2.2-.92,1.1-1.51,2.55-1.89,4.08-.38,1.54-.55,3.19-.59,4.87-.05,3.37,.4,6.87,1.14,10.39,.75,3.52,1.77,7.07,3.03,10.62,2.49,7.1,5.85,14.19,9.84,21.13,4.02,6.92,8.48,13.38,13.38,19.09,2.44,2.86,5.01,5.53,7.68,7.93,2.68,2.4,5.48,4.54,8.43,6.18,1.48,.81,2.99,1.48,4.51,1.92,1.52,.43,3.07,.65,4.48,.4,1.41-.24,2.69-.86,3.63-1.88,.95-1.01,1.62-2.31,2.06-3.68,.89-2.77,.98-5.74,.86-8.54-.14-2.82-.56-5.52-1.07-8.08-1.05-5.12-2.52-9.66-3.95-13.58-1.45-3.92-2.89-7.23-4.12-9.91-2.47-5.36-4.06-8.23-3.87-8.34,.08-.04,.56,.62,1.4,1.94,.83,1.33,2.01,3.31,3.38,5.95,1.38,2.63,2.97,5.91,4.57,9.83,1.58,3.93,3.2,8.49,4.39,13.72,.59,2.62,1.08,5.4,1.28,8.35,.17,2.95,.15,6.1-.81,9.3-.49,1.59-1.25,3.2-2.5,4.56-1.22,1.37-3.02,2.29-4.87,2.61-1.87,.34-3.74,.08-5.49-.4-1.76-.49-3.43-1.22-5.03-2.07-3.19-1.75-6.14-3.96-8.93-6.43-2.79-2.48-5.44-5.2-7.96-8.12-5.06-5.83-9.61-12.4-13.71-19.45-4.06-7.07-7.47-14.3-9.99-21.59-1.27-3.64-2.31-7.3-3.05-10.96-.74-3.66-1.19-7.32-1.1-10.95,.06-1.82,.26-3.63,.72-5.39,.46-1.75,1.18-3.51,2.4-4.95,1.2-1.44,2.9-2.54,4.7-2.92,1.8-.4,3.58-.26,5.2,.11,3.26,.77,6,2.32,8.46,3.95,2.46,1.65,4.62,3.47,6.6,5.28,3.94,3.65,7.08,7.33,9.69,10.67,2.59,3.35,4.64,6.36,6.23,8.88,1.6,2.51,2.72,4.52,3.46,5.9,.72,1.39,1.06,2.14,.98,2.18Z"/><path class="cls-7" d="M621.77,312.42c.18,.11-1.44,2.84-3.97,7.97-1.26,2.56-2.73,5.73-4.23,9.49-1.47,3.76-2.99,8.12-4.07,13.06-.53,2.47-.98,5.08-1.12,7.8-.14,2.71-.06,5.58,.8,8.24,.43,1.32,1.07,2.58,1.99,3.57,.91,1,2.13,1.65,3.48,1.95,1.36,.3,2.86,.22,4.35-.12,1.5-.33,2.99-.89,4.45-1.6,2.93-1.42,5.74-3.36,8.43-5.55,2.68-2.21,5.27-4.67,7.74-7.35,4.96-5.33,9.49-11.42,13.57-17.99,4.06-6.59,7.49-13.37,10.05-20.18,1.29-3.4,2.34-6.82,3.12-10.21,.76-3.39,1.24-6.77,1.2-10.02-.02-1.62-.19-3.21-.55-4.7-.36-1.49-.96-2.87-1.83-3.95-.87-1.08-2-1.88-3.3-2.25-1.29-.38-2.7-.39-4.08-.18-2.77,.42-5.38,1.63-7.74,2.96-2.37,1.34-4.51,2.91-6.48,4.49-3.94,3.17-7.16,6.48-9.87,9.47-2.7,3.01-4.87,5.74-6.61,8.02-3.46,4.55-5.18,7.22-5.36,7.1-.08-.05,.27-.76,1.01-2.09,.75-1.31,1.9-3.23,3.53-5.61,1.62-2.38,3.7-5.23,6.33-8.38,2.65-3.13,5.83-6.58,9.8-9.94,1.99-1.67,4.16-3.34,6.64-4.8,2.47-1.45,5.21-2.81,8.41-3.36,1.59-.26,3.32-.29,5.03,.18,1.71,.46,3.31,1.54,4.46,2.95,1.16,1.41,1.89,3.1,2.33,4.8,.45,1.71,.64,3.48,.68,5.24,.07,3.53-.41,7.08-1.17,10.61-.79,3.53-1.85,7.06-3.16,10.56-2.59,7.01-6.09,13.93-10.22,20.66-4.17,6.7-8.81,12.91-13.92,18.36-2.55,2.73-5.23,5.26-8.04,7.54-2.82,2.26-5.78,4.28-8.97,5.79-1.59,.75-3.26,1.36-4.99,1.73-1.73,.37-3.56,.47-5.34,.06-1.77-.4-3.45-1.34-4.63-2.67-1.19-1.32-1.93-2.88-2.41-4.42-.94-3.11-.95-6.17-.75-9.03,.21-2.87,.73-5.56,1.34-8.08,1.23-5.05,2.9-9.44,4.52-13.21,1.64-3.76,3.27-6.89,4.67-9.4,1.4-2.51,2.61-4.4,3.45-5.66,.86-1.25,1.34-1.88,1.42-1.84Z"/><path class="cls-7" d="M635.24,300.91c0,.21-3.17,.27-8.86,.82-2.84,.28-6.31,.69-10.29,1.4-3.97,.73-8.48,1.74-13.25,3.41-2.38,.85-4.84,1.84-7.23,3.15-2.37,1.3-4.77,2.89-6.59,5.02-.9,1.06-1.63,2.27-1.99,3.56-.37,1.3-.28,2.68,.18,3.99,.46,1.31,1.32,2.54,2.39,3.64,1.07,1.1,2.33,2.08,3.71,2.94,2.75,1.74,5.87,3.11,9.15,4.25,3.29,1.12,6.75,2.03,10.32,2.72,7.14,1.41,14.7,2.06,22.44,2.08,7.74-.02,15.31-.66,22.45-2.07,3.57-.69,7.03-1.6,10.32-2.72,3.28-1.14,6.41-2.51,9.16-4.25,1.37-.87,2.64-1.85,3.71-2.95,1.07-1.09,1.93-2.32,2.39-3.64,.46-1.31,.55-2.69,.18-3.99-.36-1.3-1.09-2.5-1.99-3.56-1.82-2.13-4.21-3.72-6.59-5.02-2.39-1.31-4.85-2.3-7.23-3.15-4.77-1.68-9.28-2.68-13.25-3.41-3.98-.71-7.45-1.12-10.29-1.4-5.69-.55-8.86-.61-8.86-.82,0-.09,.79-.17,2.31-.24,1.51-.05,3.75-.08,6.62,.05,2.88,.12,6.39,.39,10.46,.97,4.05,.61,8.66,1.49,13.61,3.11,2.47,.82,5.03,1.78,7.58,3.12,2.53,1.34,5.13,2.95,7.28,5.39,1.06,1.22,2,2.67,2.5,4.37,.51,1.7,.43,3.62-.16,5.34-.59,1.73-1.64,3.23-2.86,4.51-1.22,1.28-2.62,2.38-4.1,3.33-2.96,1.92-6.23,3.37-9.64,4.58-3.42,1.19-6.98,2.14-10.64,2.87-7.33,1.48-15.05,2.16-22.95,2.18-7.9-.02-15.62-.69-22.94-2.18-3.66-.73-7.22-1.68-10.64-2.87-3.41-1.21-6.68-2.66-9.64-4.58-1.48-.96-2.87-2.05-4.1-3.33-1.22-1.27-2.27-2.78-2.86-4.51-.59-1.72-.67-3.64-.16-5.34,.5-1.7,1.43-3.16,2.49-4.37,2.15-2.44,4.75-4.05,7.28-5.39,2.55-1.33,5.11-2.3,7.58-3.12,4.95-1.61,9.55-2.5,13.61-3.11,4.06-.58,7.58-.85,10.46-.97,2.88-.13,5.11-.1,6.63-.05,1.51,.07,2.31,.15,2.31,.24Z"/><circle class="cls-7" cx="637.71" cy="322.29" r="8.37" transform="translate(217.19 899.96) rotate(-80.76)"/></g></g><g id="Device"><g><g><path class="cls-12" d="M202.13,235.47H499.58c3.72,0,6.74,3.02,6.74,6.74v184.97c0,8.04-6.53,14.57-14.57,14.57H208.95c-8.04,0-14.57-6.53-14.57-14.57V243.22c0-4.28,3.47-7.75,7.75-7.75Z"/><path class="cls-12" d="M181.34,426.5h337.96v4.33c0,7.57-6.15,13.72-13.72,13.72H195.06c-7.57,0-13.72-6.15-13.72-13.72v-4.33h0Z"/><rect class="cls-10" x="202.75" y="243.67" width="294.32" height="174.2"/><polygon class="cls-13" points="319.6 426.5 323.79 433.17 382.8 433.17 386.7 426.5 319.6 426.5"/></g><rect class="cls-13" x="194.43" y="426.43" width="311.94" height=".99"/><g><rect class="cls-13" x="211.49" y="253.76" width="277.56" height="164.11"/><path class="cls-10" d="M232.78,413.05c-.14,0-.26-34.95-.26-78.06s.12-78.07,.26-78.07,.26,34.94,.26,78.07-.12,78.06-.26,78.06Z"/><path class="cls-10" d="M227.18,271.08c0,.14-2.02,.26-4.51,.26s-4.51-.12-4.51-.26,2.02-.26,4.51-.26,4.51,.12,4.51,.26Z"/><path class="cls-10" d="M227.53,262.22c0,.14-2.02,.26-4.51,.26s-4.51-.12-4.51-.26,2.02-.26,4.51-.26,4.51,.12,4.51,.26Z"/><path class="cls-10" d="M227.18,280.63c0,.14-2.02,.26-4.51,.26s-4.51-.12-4.51-.26,2.02-.26,4.51-.26,4.51,.12,4.51,.26Z"/><path class="cls-10" d="M227.18,290.18c0,.14-2.02,.26-4.51,.26s-4.51-.12-4.51-.26,2.02-.26,4.51-.26,4.51,.12,4.51,.26Z"/><path class="cls-10" d="M227.18,299.73c0,.14-2.02,.26-4.51,.26s-4.51-.12-4.51-.26,2.02-.26,4.51-.26,4.51,.12,4.51,.26Z"/><path class="cls-10" d="M227.18,309.28c0,.14-2.02,.26-4.51,.26s-4.51-.12-4.51-.26,2.02-.26,4.51-.26,4.51,.12,4.51,.26Z"/><path class="cls-10" d="M227.18,318.82c0,.14-2.02,.26-4.51,.26s-4.51-.12-4.51-.26,2.02-.26,4.51-.26,4.51,.12,4.51,.26Z"/><path class="cls-10" d="M227.18,328.37c0,.14-2.02,.26-4.51,.26s-4.51-.12-4.51-.26,2.02-.26,4.51-.26,4.51,.12,4.51,.26Z"/><path class="cls-10" d="M227.18,337.92c0,.14-2.02,.26-4.51,.26s-4.51-.12-4.51-.26,2.02-.26,4.51-.26,4.51,.12,4.51,.26Z"/><path class="cls-10" d="M227.18,347.47c0,.14-2.02,.26-4.51,.26s-4.51-.12-4.51-.26,2.02-.26,4.51-.26,4.51,.12,4.51,.26Z"/><path class="cls-10" d="M227.18,357.02c0,.14-2.02,.26-4.51,.26s-4.51-.12-4.51-.26,2.02-.26,4.51-.26,4.51,.12,4.51,.26Z"/><path class="cls-10" d="M227.18,366.57c0,.14-2.02,.26-4.51,.26s-4.51-.12-4.51-.26,2.02-.26,4.51-.26,4.51,.12,4.51,.26Z"/><path class="cls-10" d="M227.18,376.12c0,.14-2.02,.26-4.51,.26s-4.51-.12-4.51-.26,2.02-.26,4.51-.26,4.51,.12,4.51,.26Z"/><path class="cls-10" d="M227.18,385.67c0,.14-2.02,.26-4.51,.26s-4.51-.12-4.51-.26,2.02-.26,4.51-.26,4.51,.12,4.51,.26Z"/><path class="cls-10" d="M227.18,395.22c0,.14-2.02,.26-4.51,.26s-4.51-.12-4.51-.26,2.02-.26,4.51-.26,4.51,.12,4.51,.26Z"/><path class="cls-10" d="M227.18,404.76c0,.14-2.02,.26-4.51,.26s-4.51-.12-4.51-.26,2.02-.26,4.51-.26,4.51,.12,4.51,.26Z"/><path class="cls-7" d="M263.33,270.52c0,.14-5.24,.26-11.7,.26s-11.7-.12-11.7-.26,5.24-.26,11.7-.26,11.7,.12,11.7,.26Z"/><path class="cls-7" d="M263.33,404.76c0,.14-5.24,.26-11.7,.26s-11.7-.12-11.7-.26,5.24-.26,11.7-.26,11.7,.12,11.7,.26Z"/><path class="cls-7" d="M295.92,290.18c0,.14-9.8,.26-21.89,.26s-21.89-.12-21.89-.26,9.8-.26,21.89-.26,21.89,.12,21.89,.26Z"/><path class="cls-10" d="M346.55,290.18c0,.14-9.8,.26-21.89,.26s-21.89-.12-21.89-.26,9.8-.26,21.89-.26,21.89,.12,21.89,.26Z"/><path class="cls-10" d="M327.2,299.73c0,.14-14.45,.26-32.26,.26s-32.27-.12-32.27-.26,14.44-.26,32.27-.26,32.26,.12,32.26,.26Z"/><path class="cls-10" d="M327.2,309.28c0,.14-14.45,.26-32.26,.26s-32.27-.12-32.27-.26,14.44-.26,32.27-.26,32.26,.12,32.26,.26Z"/><path class="cls-10" d="M371.61,337.92c0,.14-14.45,.26-32.26,.26s-32.27-.12-32.27-.26,14.44-.26,32.27-.26,32.26,.12,32.26,.26Z"/><path class="cls-10" d="M352.45,318.82c0,.14-14.45,.26-32.26,.26s-32.27-.12-32.27-.26,14.44-.26,32.27-.26,32.26,.12,32.26,.26Z"/><path class="cls-10" d="M431.3,318.82c0,.14-14.45,.26-32.26,.26s-32.27-.12-32.27-.26,14.44-.26,32.27-.26,32.26,.12,32.26,.26Z"/><path class="cls-5" d="M403.88,299.73c0,.14-14.45,.26-32.26,.26s-32.27-.12-32.27-.26,14.44-.26,32.27-.26,32.26,.12,32.26,.26Z"/><path class="cls-5" d="M448.45,337.92c0,.14-14.45,.26-32.26,.26s-32.27-.12-32.27-.26,14.44-.26,32.27-.26,32.26,.12,32.26,.26Z"/><path class="cls-12" d="M439.55,309.28c0,.14-22.43,.26-50.1,.26s-50.1-.12-50.1-.26,22.43-.26,50.1-.26,50.1,.12,50.1,.26Z"/><path class="cls-5" d="M263.33,280.63c0,.14-5.24,.26-11.7,.26s-11.7-.12-11.7-.26,5.24-.26,11.7-.26,11.7,.12,11.7,.26Z"/><path class="cls-5" d="M263.33,395.22c0,.14-5.24,.26-11.7,.26s-11.7-.12-11.7-.26,5.24-.26,11.7-.26,11.7,.12,11.7,.26Z"/><path class="cls-5" d="M274.92,318.82c0,.14-5.24,.26-11.7,.26s-11.7-.12-11.7-.26,5.24-.26,11.7-.26,11.7,.12,11.7,.26Z"/><path class="cls-7" d="M462.48,318.82c0,.14-5.24,.26-11.7,.26s-11.7-.12-11.7-.26,5.24-.26,11.7-.26,11.7,.12,11.7,.26Z"/><path class="cls-7" d="M295.92,356.96c0,.14-9.8,.26-21.89,.26s-21.89-.12-21.89-.26,9.8-.26,21.89-.26,21.89,.12,21.89,.26Z"/><path class="cls-10" d="M346.55,356.96c0,.14-9.8,.26-21.89,.26s-21.89-.12-21.89-.26,9.8-.26,21.89-.26,21.89,.12,21.89,.26Z"/><path class="cls-10" d="M327.2,366.51c0,.14-14.45,.26-32.26,.26s-32.27-.12-32.27-.26,14.44-.26,32.27-.26,32.26,.12,32.26,.26Z"/><path class="cls-10" d="M327.2,376.06c0,.14-14.45,.26-32.26,.26s-32.27-.12-32.27-.26,14.44-.26,32.27-.26,32.26,.12,32.26,.26Z"/><path class="cls-10" d="M352.45,385.61c0,.14-14.45,.26-32.26,.26s-32.27-.12-32.27-.26,14.44-.26,32.27-.26,32.26,.12,32.26,.26Z"/><path class="cls-10" d="M431.3,385.61c0,.14-14.45,.26-32.26,.26s-32.27-.12-32.27-.26,14.44-.26,32.27-.26,32.26,.12,32.26,.26Z"/><path class="cls-5" d="M403.88,366.51c0,.14-14.45,.26-32.26,.26s-32.27-.12-32.27-.26,14.44-.26,32.27-.26,32.26,.12,32.26,.26Z"/><path class="cls-12" d="M439.55,376.06c0,.14-22.43,.26-50.1,.26s-50.1-.12-50.1-.26,22.43-.26,50.1-.26,50.1,.12,50.1,.26Z"/><path class="cls-5" d="M274.92,385.61c0,.14-5.24,.26-11.7,.26s-11.7-.12-11.7-.26,5.24-.26,11.7-.26,11.7,.12,11.7,.26Z"/><path class="cls-7" d="M462.48,385.61c0,.14-5.24,.26-11.7,.26s-11.7-.12-11.7-.26,5.24-.26,11.7-.26,11.7,.12,11.7,.26Z"/></g></g></g><g id="Floor"><path class="cls-13" d="M700.42,444.56c0,.14-145.71,.26-325.4,.26s-325.43-.12-325.43-.26,145.67-.26,325.43-.26,325.4,.12,325.4,.26Z"/></g><g id="Character_2"><g><path class="cls-6" d="M568.68,388.12l3.99,12.49c1.53,5.16,5.86,9.03,11.2,10.04l26.66,5,7.25-.23-7.25-8.98-20.04-6.83c-1.97-.43-3.53-1.91-4.04-3.84l-7.98-17.36-10.11,6.2,.32,3.51Z"/><g><path class="cls-7" d="M549.58,304.23c.22-1.91-.46-3.89-1.5-5.54-1.01-1.61-2.5-3.09-4.38-3.38-2.14-.33-4.34,1.07-5.19,3.06-.85,1.99-.44,4.39,.8,6.16,.64,.92,1.48,1.67,2.43,2.27-2.76,1.83-4.96,4.51-6.04,7.64-.37,1.06-.62,2.17-1.08,3.19-.46,1.02-1.18,1.99-2.21,2.44-.75,.34-1.61,.38-2.38,.66-1.31,.48-2.3,1.69-2.63,3.04-.33,1.36-.03,2.83,.71,4.01,.37,.59,.87,1.17,.9,1.87,.02,.47-.18,.92-.29,1.38-.38,1.56,.37,3.33,1.75,4.15,1.38,.82,3.29,.64,4.48-.44,.5,1.16,1.17,2.34,2.31,2.89,1.14,.54,2.81,.06,3.05-1.18,.57,1.19,1.98,1.9,3.27,1.66,1.29-.25,2.34-1.43,2.43-2.74l21.5-23.51c-3.21-8.6-15.76-7.84-17.92-7.64Z"/><g><g><g><g><path class="cls-6" d="M545.94,312.4c-1.38,.15-2.43,1.33-2.4,2.72h0l1.52,36.2c.06,4.28,7.81,9.33,12.39,9.23h0c4.62-.1,3.26-5,3.33-9.07,.11-6.79,.11-9.35,.11-9.31,0,0,5.84-.97,7.05-8.59,.6-3.79,.41-10,.09-15.08-.29-4.57-3.32-10.18-7.87-9.7l-14.22,3.6Z"/><g><path class="cls-13" d="M566.06,323.44c.02,.52-.4,.96-.94,.99-.54,.03-.99-.36-1.01-.88-.02-.52,.4-.96,.94-.99,.54-.03,.99,.37,1.01,.88Z"/><path class="cls-13" d="M566.69,321.74c-.12,.13-.86-.42-1.91-.42-1.05-.01-1.82,.53-1.94,.4-.06-.06,.07-.29,.4-.53,.33-.24,.89-.48,1.55-.48,.66,0,1.21,.24,1.52,.49,.32,.25,.43,.48,.37,.54Z"/></g><g><path class="cls-13" d="M555.78,323.44c.02,.52-.4,.96-.94,.99-.54,.03-.99-.36-1.01-.88-.02-.52,.4-.96,.94-.99,.54-.03,.99,.37,1.01,.88Z"/><path class="cls-13" d="M556.35,321.94c-.12,.13-.86-.42-1.91-.42-1.05-.01-1.82,.53-1.94,.4-.06-.06,.07-.29,.4-.53,.33-.24,.89-.48,1.55-.48,.66,0,1.21,.24,1.52,.49,.32,.25,.43,.48,.37,.54Z"/></g><path class="cls-13" d="M560.17,329.74c0-.06,.65-.17,1.71-.31,.27-.03,.52-.08,.57-.26,.06-.19-.05-.48-.18-.8-.25-.65-.52-1.33-.79-2.04-1.1-2.91-1.9-5.31-1.78-5.35,.12-.04,1.11,2.28,2.21,5.19,.27,.72,.52,1.4,.76,2.06,.1,.31,.28,.65,.14,1.05-.07,.2-.27,.35-.44,.39-.17,.05-.32,.06-.46,.06-1.07,.06-1.73,.06-1.73,0Z"/><path class="cls-3" d="M560.9,342.18s-5.13,.33-10.21-2.72c0,0,2.48,5.23,10.1,4.52l.1-1.8Z"/><path class="cls-3" d="M559.72,332.27c-.38-.5-1.04-.77-1.7-.7-.46,.05-.92,.27-1.19,.64-.28,.37-.34,.9-.08,1.25,.28,.4,.88,.49,1.38,.35,.5-.14,.93-.47,1.34-.8,.11-.09,.23-.19,.3-.31,.07-.12,.09-.29,0-.39"/><path class="cls-13" d="M557.07,330.46c.17,0,.17,1.13,1.15,1.94,.98,.81,2.19,.68,2.2,.84,.02,.07-.27,.22-.78,.24-.5,.02-1.24-.14-1.84-.64-.6-.5-.85-1.16-.89-1.63-.04-.48,.08-.76,.16-.75Z"/></g><path class="cls-7" d="M556.83,320.1c-.1,.29-1.15,.15-2.39,.3-1.24,.12-2.23,.49-2.4,.23-.07-.12,.1-.39,.5-.67,.4-.28,1.03-.54,1.78-.62,.74-.08,1.42,.04,1.87,.22,.45,.18,.68,.41,.64,.54Z"/><path class="cls-7" d="M566.3,318.7c-.18,.24-.91,0-1.78-.02-.87-.04-1.61,.16-1.78-.09-.07-.12,.04-.36,.36-.59,.32-.23,.85-.41,1.45-.39,.6,.02,1.12,.24,1.42,.48,.31,.25,.41,.49,.33,.61Z"/></g><path class="cls-6" d="M544.39,324.59c-.58-.4-1.38-.25-1.99,.1-1.4,.81-2.1,2.66-1.58,4.19,.52,1.53,2.2,2.58,3.8,2.37"/><path class="cls-7" d="M556.37,306.27c2.78,.09,4.88,.94,7.32,2.27,2.44,1.33,4.48,3.53,5.23,6.21,.16,.57,.25,1.22-.06,1.72-.41,.66-1.38,.77-2.09,.45-.71-.32-1.22-.96-1.7-1.57-.36,1.4-1.75,2.46-3.19,2.44-1.44-.02-2.81-1.11-3.14-2.52-.01,1.46-1.48,2.67-2.94,2.62-1.46-.05-2.76-1.18-3.24-2.56-.27,1.3-.56,2.64-1.34,3.72-.78,1.08-2.19,1.82-3.45,1.41,.18,1.14,.35,2.33-.05,3.41-.4,1.08-1.6,1.95-2.69,1.58-1.06-.36-1.47-1.61-1.71-2.7-.48-2.1-.88-4.24-.82-6.39,.07-2.15,.64-4.34,1.96-6.04,1.36-1.76,3.43-2.88,5.59-3.44,2.15-.57,4.41-.63,6.63-.6"/><path class="cls-3" d="M543.86,328.98c-.02-.05-.3,.07-.66-.1-.36-.14-.69-.68-.65-1.3,.02-.63,.43-1.08,.81-1.22,.38-.16,.66-.08,.68-.14,.03-.04-.26-.24-.76-.13-.24,.06-.52,.2-.75,.46-.22,.26-.36,.62-.38,1-.06,.77,.43,1.47,.95,1.59,.52,.14,.8-.13,.76-.16Z"/><path class="cls-13" d="M540.96,329.38s-.11,.02-.31,.09c-.2,.07-.49,.19-.85,.38-.7,.38-1.72,1.07-2.48,2.34-.37,.63-.66,1.42-.68,2.3-.04,.88,.19,1.81,.63,2.68,.46,.86,1.15,1.66,2.03,2.26,.88,.6,1.96,.99,3.1,1,2.31,0,4.28-1.48,5.15-3.22,.46-.87,.6-1.83,.54-2.7-.08-.87-.37-1.64-.74-2.28-.75-1.28-1.78-1.98-2.52-2.29-.37-.16-.68-.24-.89-.28-.21-.03-.32-.05-.32-.03,0,.04,.44,.1,1.15,.45,.7,.34,1.66,1.06,2.34,2.29,.33,.61,.59,1.35,.65,2.17,.04,.81-.1,1.7-.54,2.51-.82,1.62-2.69,2.99-4.82,2.99-2.14-.01-3.96-1.44-4.81-3.04-.91-1.63-.75-3.47-.03-4.66,.69-1.23,1.65-1.94,2.32-2.35,.68-.41,1.1-.56,1.09-.6Z"/></g><path class="cls-10" d="M547.25,305.76c-.08,.02-.24-.66-.71-1.66-.47-.99-1.32-2.29-2.63-3.32-1.31-1.03-2.77-1.56-3.84-1.78-1.08-.23-1.78-.22-1.78-.31,0-.06,.7-.2,1.84-.06,1.13,.14,2.71,.64,4.1,1.74,1.39,1.1,2.25,2.51,2.64,3.58,.41,1.08,.43,1.8,.37,1.8Z"/><path class="cls-10" d="M529.73,334.71s-.13-.05-.27-.25c-.14-.2-.26-.57-.18-1.04,.06-.47,.4-1,.94-1.38,.53-.4,1.22-.66,1.89-1.04,.68-.36,1.27-1,1.32-1.89,.06-.88-.28-1.83-.51-2.86-.12-.52-.21-1.08-.16-1.68,.05-.59,.29-1.2,.71-1.67,.85-.93,2.07-1.34,3.22-1.69,1.13-.36,2.27-.79,2.87-1.66,.62-.86,.59-1.99,.48-3.01-.12-1.03-.29-2.05-.2-3.02,.06-.96,.32-1.83,.63-2.58,.64-1.5,1.56-2.49,2.25-3.06,.35-.29,.64-.48,.85-.6,.21-.12,.32-.17,.33-.15,.03,.04-.4,.3-1.04,.9-.64,.6-1.47,1.6-2.05,3.05-.28,.72-.5,1.56-.54,2.47-.06,.91,.11,1.87,.25,2.93,.12,1.03,.2,2.3-.54,3.36-.74,1.05-1.99,1.49-3.13,1.86-1.15,.35-2.28,.75-3,1.53-.74,.78-.7,1.91-.47,2.9,.21,1.01,.56,1.99,.48,3-.04,.51-.25,.98-.53,1.35-.3,.37-.67,.62-1.03,.82-.73,.38-1.4,.61-1.91,.96-.51,.33-.82,.77-.91,1.19-.2,.86,.31,1.24,.25,1.25Z"/><path class="cls-10" d="M556.89,315.04c-.09,0-.15-.8-.55-2.03-.39-1.22-1.19-2.85-2.57-4.23-1.38-1.38-3.01-2.18-4.23-2.56-1.22-.4-2.04-.46-2.03-.55,0-.06,.83-.12,2.13,.19,1.29,.31,3.04,1.09,4.5,2.55,1.46,1.46,2.25,3.2,2.56,4.49,.32,1.3,.26,2.13,.2,2.13Z"/><path class="cls-10" d="M563.04,311.7c-.1,.03-.33-1.02-1.32-2.36-.97-1.34-2.8-2.87-5.22-3.63-2.43-.76-4.79-.68-6.45-.51-1.67,.18-2.7,.41-2.71,.33-.02-.06,.98-.42,2.67-.7,1.67-.27,4.11-.41,6.65,.38,2.54,.8,4.44,2.47,5.37,3.92,.47,.72,.75,1.37,.89,1.83,.14,.46,.17,.73,.14,.73Z"/><path class="cls-13" d="M549.74,303.85s-.19,.5-.78,1.11c-.58,.61-1.55,1.31-2.77,1.75-1.22,.43-2.42,.5-3.25,.4-.84-.1-1.32-.31-1.31-.37,.02-.16,2.06,.33,4.39-.53,2.34-.81,3.61-2.48,3.73-2.37Z"/></g></g><g><path class="cls-13" d="M555.09,444.62c-18.31-6.06-5.75-30.28-5.75-30.28l80.02,7.53c6.42-.04,11.66,5.15,11.66,11.58h0c0,6.39-5.18,11.58-11.58,11.58l-74.35-.4"/><path class="cls-13" d="M536.35,444.6c-17.84-6.02-5.55-30.26-5.55-30.26l78.01,7.36c7.62,.1,11.34,3.77,11.34,11.55h0c-.01,6.39-2.38,11.78-11.31,11.6l-72.49-.24"/><path class="cls-12" d="M554.46,418.43s.08-.01,.22,0c.17,0,.38,0,.65,.02,.6,.02,1.44,.06,2.5,.1,2.2,.11,5.33,.26,9.18,.45,7.77,.43,18.46,1.01,30.27,1.66,1.48,.07,2.94,.2,4.38,.22,1.45,.02,2.87,.08,4.26,.17,1.4,.09,2.77,.19,4.11,.33,1.33,.15,2.68,.3,3.9,.8,1.22,.48,2.34,1.17,3.24,2.08,.91,.9,1.55,2.02,1.97,3.16,.42,1.14,.65,2.3,.8,3.41,.14,1.11,.22,2.19,.21,3.23,0,2.06-.37,3.94-1.03,5.43-.65,1.5-1.57,2.59-2.43,3.31-.86,.72-1.66,1.08-2.21,1.25-.55,.17-.56,.12-.03-.08,.53-.2,1.31-.57,2.14-1.29,.83-.72,1.7-1.8,2.32-3.27,.63-1.47,.96-3.31,.95-5.34,0-1.02-.09-2.08-.24-3.18-.15-1.1-.39-2.23-.8-3.33-.41-1.1-1.03-2.16-1.9-3.02-.87-.86-1.95-1.53-3.13-1.98-1.18-.48-2.48-.61-3.81-.76-1.33-.14-2.7-.24-4.09-.32-1.39-.08-2.81-.14-4.25-.16-1.45-.02-2.9-.15-4.38-.22-11.81-.7-22.5-1.33-30.28-1.78-3.85-.25-6.98-.45-9.17-.59-1.06-.08-1.89-.14-2.49-.18-.27-.02-.48-.04-.65-.06-.15-.02-.22-.03-.22-.03Z"/></g><g><path class="cls-7" d="M582.2,420.01l-6.42-3.15-4.47-14.89-.43-18.96,9.06-3.82-7.19-18.05c-1.31-2.67-3.95-9.73-10.76-12.06-.04-1.31,0-2.6,.23-2.99,.54-.89-16.58-1.42-17.55-1.06-.9,.33,.15,3.48,.05,4.01-6.08,1.68-12.01,4.18-14.22,12.55-.86,3.26-.58,10.14-.11,13.46l4.76,25.13-2.67,8.25s-9.35,19.48-5.81,27.09c3.54,7.61,9.57,9.33,9.57,9.33l46.58-.09-.63-24.75Z"/><g><g><g class="cls-15"><path d="M535.46,390.2c.82,3.46,2.08,8.59,3.42,11.88,.99,2.42,2.07,4.85,3.74,6.86,2.27,2.74,5.53,4.57,8.98,5.48,3.44,.91,7.07,.94,10.61,.52l-17.63-9.96-4.69-16.3-4.43,1.51Z"/></g><path class="cls-13" d="M571.31,401.45s-.07-.48-.12-1.35c-.05-.94-.11-2.18-.18-3.68-.13-3.1-.29-7.39-.43-12.13-.14-4.74-.25-9.03-.3-12.13-.02-1.5-.03-2.74-.04-3.68,0-.87,.01-1.35,.04-1.35,.03,0,.07,.48,.12,1.34,.05,.94,.11,2.18,.18,3.67,.13,3.1,.29,7.39,.43,12.13,.14,4.74,.25,9.03,.3,12.13,.02,1.5,.03,2.74,.04,3.68,0,.87-.01,1.35-.04,1.35Z"/></g><g><path class="cls-13" d="M554.06,383.7s-.1,.05-.32,.13l-.99,.36c-.92,.33-2.21,.78-3.84,1.35-3.4,1.18-8.22,2.84-14.06,4.85l-.23,.08-.05-.24c-.96-5.11-2.07-11.09-3.28-17.56v-.03c-.2-3.18-.83-6.52-.56-10.02,.08-.87,.39-1.68,.68-2.45,.32-.78,.69-1.53,1.17-2.21,.93-1.39,2.26-2.46,3.7-3.16,2.91-1.49,6.5-1,8.78,.95,1.12,1.03,1.76,2.34,2.34,3.59,.56,1.26,.99,2.53,1.37,3.76,.74,2.46,1.3,4.79,1.86,6.93,1.07,4.21,1.94,7.63,2.55,10.05,.28,1.14,.51,2.05,.67,2.71,.07,.28,.12,.51,.16,.7,.03,.16,.05,.23,.04,.23,0,0-.04-.09-.09-.25-.06-.19-.13-.43-.21-.72-.19-.66-.44-1.58-.77-2.73-.66-2.39-1.58-5.77-2.73-9.94-.57-2.08-1.15-4.39-1.91-6.84-.39-1.22-.82-2.47-1.38-3.7-.57-1.21-1.22-2.49-2.24-3.41-2.12-1.79-5.52-2.26-8.24-.85-1.38,.68-2.62,1.68-3.5,2.99-.45,.65-.81,1.37-1.11,2.11-.29,.76-.57,1.52-.65,2.31-.27,3.37,.35,6.7,.55,9.94v-.03c1.17,6.47,2.26,12.46,3.19,17.57l-.28-.16c5.81-1.91,10.62-3.49,14.01-4.61,1.66-.54,2.98-.96,3.92-1.26,.43-.13,.77-.24,1.04-.33,.24-.07,.37-.11,.38-.1Z"/><path class="cls-13" d="M540.03,388.35c-.14,.04-.51-.73-.83-1.73-.32-1-.47-1.85-.33-1.89,.14-.04,.51,.73,.83,1.73,.32,1,.47,1.85,.33,1.89Z"/><path class="cls-13" d="M544.62,387.06c-.14,.03-.44-.72-.68-1.69-.24-.97-.31-1.78-.17-1.81,.14-.03,.44,.72,.68,1.69,.24,.97,.31,1.78,.17,1.81Z"/><path class="cls-13" d="M549.25,385.4c-.14,.04-.44-.58-.68-1.38-.24-.8-.32-1.49-.18-1.53,.14-.04,.44,.58,.68,1.38,.24,.8,.32,1.49,.18,1.53Z"/></g><g><path class="cls-13" d="M574.29,381.57c-.12,.07-.65-.59-1.01-1.55-.37-.96-.41-1.81-.28-1.83,.14-.03,.41,.73,.76,1.65,.35,.92,.65,1.67,.52,1.74Z"/><path class="cls-13" d="M577.77,379.59c-.13,.06-.55-.51-.94-1.28-.39-.77-.6-1.45-.47-1.52,.13-.06,.55,.51,.94,1.28,.39,.77,.6,1.45,.47,1.52Z"/></g><g><path class="cls-13" d="M547.37,349.79c.05,0,.08,.17,.09,.46h-.28c-.11-.49-.24-1.37-.32-2.38-.13-1.56-.12-2.84,.02-2.85,.14-.01,.36,1.25,.49,2.81,.08,1.01,.11,1.9,.08,2.4h-.28c.07-.28,.13-.43,.18-.43Z"/><path class="cls-13" d="M551.53,349.79c-.14,.01-.34-1.03-.43-2.32-.1-1.29-.06-2.35,.08-2.36s.34,1.03,.43,2.32c.1,1.29,.06,2.34-.08,2.36Z"/><path class="cls-13" d="M555.89,350.73c-.14,0-.28-1.25-.3-2.8-.02-1.55,.08-2.81,.22-2.81,.14,0,.28,1.25,.3,2.8,.02,1.55-.08,2.81-.22,2.81Z"/><path class="cls-13" d="M559.45,350.14c-.14,0-.26-1.07-.26-2.39s.12-2.39,.26-2.39,.26,1.07,.26,2.39-.12,2.39-.26,2.39Z"/></g></g><path class="cls-13" d="M582.5,420.54c0,.14-8.69-.33-19.39-1.06-10.7-.73-19.36-1.44-19.35-1.58,0-.14,8.69,.33,19.39,1.06,10.7,.73,19.36,1.44,19.35,1.58Z"/></g><g><path class="cls-6" d="M537.53,389.54l4.29,13.97c1.53,5.22,5.86,9.15,11.2,10.16l26.66,5.07,7.25-.24-2.47-6.19-24.83-9.82c-1.97-.44-3.53-1.94-4.04-3.89l-3.75-14.06-14.32,4.99Z"/><g><polygon class="cls-12" points="561.1 418.93 561.33 417.2 581.81 416.4 591.86 391.05 630.15 393.65 617.23 421.79 561.1 418.93"/><path class="cls-4" d="M606.93,407.49c-.59,.94-1.83,1.21-2.77,.62-.94-.59-1.21-1.83-.62-2.77,.59-.94,1.83-1.21,2.77-.62,.94,.59,1.21,1.83,.62,2.77Z"/></g></g></g></g><g id="Character_1"><g><g><path class="cls-13" d="M282.99,236.89c16.69-6.06,8.12-31.22,8.12-31.22l-84.7,7.76c-6.62-.04-12.02,5.31-12.02,11.94h0c0,6.59,5.35,11.94,11.94,11.94l76.66-.41"/><g><g><path class="cls-7" d="M173.93,306.59l-.17-8.4,16.11-5.72,.67,11.69-.91,.44c-4.05,1.91-20.7,9.43-23.81,9.72-3.47,.32,8.11-7.73,8.11-7.73Z"/><g class="cls-16"><path class="cls-4" d="M168.36,310.74s-3.94,3.1-3.09,3.61c.86,.51,17.98-6.46,25.26-10.19l-.16-.33-19.9,8.3s-1.22-1.71-2.11-1.39Z"/></g><path class="cls-13" d="M190.61,303.73s-.08,.05-.25,.13c-.22,.1-.45,.22-.72,.35-.73,.33-1.62,.74-2.68,1.23-2.27,1.02-5.42,2.39-8.93,3.82-3.51,1.43-6.72,2.66-9.06,3.52-1.09,.39-2.02,.73-2.77,1-.28,.1-.53,.18-.76,.26-.17,.06-.27,.08-.27,.08,0,0,.09-.05,.26-.11,.22-.09,.47-.18,.75-.29,.75-.29,1.67-.64,2.75-1.05,2.32-.89,5.52-2.14,9.03-3.57,3.51-1.43,6.67-2.78,8.95-3.77,1.07-.46,1.97-.85,2.7-1.17,.27-.12,.52-.22,.74-.31,.17-.07,.26-.1,.26-.1Z"/><path class="cls-13" d="M170.58,312.36c-.05,.03-.36-.6-1.04-1.09-.67-.5-1.37-.61-1.35-.67,0-.05,.75-.03,1.47,.51,.73,.53,.97,1.24,.92,1.25Z"/><path class="cls-13" d="M174.09,308.32s-.35-.13-.71-.38c-.36-.26-.62-.5-.59-.54,.03-.04,.35,.13,.71,.38,.36,.26,.62,.5,.59,.54Z"/><path class="cls-13" d="M175.04,307.18c-.02,.05-.32-.01-.67-.14-.35-.13-.62-.27-.61-.32,.02-.05,.32,.01,.67,.14,.35,.13,.62,.27,.61,.32Z"/><path class="cls-13" d="M175.23,305.45c.02,.05-.31,.24-.74,.42-.43,.18-.8,.29-.82,.24-.02-.05,.31-.24,.74-.42,.43-.18,.8-.29,.82-.24Z"/><path class="cls-13" d="M175.09,304.35s-.28,.37-.77,.61c-.49,.25-.94,.3-.95,.25-.01-.06,.4-.19,.86-.42,.47-.23,.82-.48,.86-.43Z"/><path class="cls-13" d="M173.04,307.22s-.34,.22-.97,.39c-.31,.09-.69,.16-1.12,.19-.22,0-.43,.04-.69,0-.12-.02-.26-.07-.36-.2-.1-.13-.09-.32-.01-.44,.73-.85,1.86-.71,2.4-.37,.29,.17,.47,.37,.58,.52,.11,.15,.14,.24,.13,.25-.03,.03-.22-.35-.77-.64-.27-.14-.64-.24-1.04-.2-.38,.04-.88,.21-1.12,.55-.11,.18,.03,.33,.24,.36,.2,.04,.43,.02,.64,.01,.42-.02,.79-.08,1.1-.15,.62-.13,.99-.28,1-.25Z"/><path class="cls-13" d="M172.81,307.37s-.25-.17-.38-.62c-.06-.22-.09-.51-.02-.81,.08-.28,.18-.67,.6-.82,.23-.06,.45,.15,.48,.32,.05,.18,.03,.35,.01,.5-.05,.3-.13,.56-.22,.77-.18,.42-.37,.63-.39,.61-.03-.02,.12-.25,.26-.66,.07-.21,.13-.46,.17-.74,.05-.26,0-.66-.27-.61-.25,.07-.4,.42-.47,.67-.07,.27-.06,.53-.02,.74,.09,.42,.28,.64,.25,.66Z"/><path class="cls-13" d="M188.63,299.75s-.45,.13-1.09,.49c-.64,.35-1.46,1-2.01,1.98-.55,.98-.68,2.02-.64,2.75,.03,.74,.19,1.18,.15,1.19-.01,0-.06-.1-.12-.3-.06-.2-.13-.5-.17-.88-.07-.75,.04-1.83,.61-2.85,.57-1.02,1.44-1.68,2.12-2.01,.34-.17,.63-.26,.83-.31,.2-.05,.32-.06,.32-.05Z"/><path class="cls-13" d="M184.54,294.14s.67,1.33,1.38,3.03c.71,1.69,1.25,3.08,1.2,3.1-.05,.02-.67-1.33-1.38-3.03-.71-1.69-1.25-3.08-1.2-3.1Z"/><path class="cls-13" d="M182.57,305.56s-.89,.6-2.1,1.11c-1.21,.51-2.25,.77-2.26,.72-.02-.05,.99-.39,2.19-.9,1.2-.5,2.15-.98,2.18-.93Z"/><path class="cls-13" d="M185.51,304.36c.05,.02,0,.24,0,.51-.01,.27,.02,.49-.04,.5-.05,.02-.17-.21-.16-.51,.01-.31,.15-.52,.2-.5Z"/><path class="cls-13" d="M186.05,302.53c.05,.02,.02,.22-.07,.44-.09,.22-.21,.38-.26,.36-.05-.02-.02-.22,.07-.44,.09-.22,.21-.38,.26-.36Z"/><path class="cls-13" d="M187.38,301.25c.01,.06-.19,.13-.38,.3-.19,.16-.3,.35-.35,.33-.05-.01-.01-.28,.22-.48,.24-.2,.5-.21,.51-.15Z"/><path class="cls-13" d="M188.39,300.5s-.02,.15-.12,.25c-.1,.1-.22,.15-.26,.11-.04-.04,.02-.15,.12-.25,.1-.1,.22-.15,.26-.11Z"/></g><g><g><path class="cls-13" d="M238.59,212.28l-47.3,.88c-7.56,.14-13.87,5.82-14.79,13.33l-9.38,76.23h25.69l7.84-65.84h37.3l.64-24.61Z"/><path class="cls-12" d="M167.44,297.88c0,.12,5.63,.26,12.57,.3,6.94,.04,12.45-.13,12.57-.14,.8-.08-5.63-.26-12.57-.3-6.94-.04-12.57,.02-12.57,.14Z"/></g><path class="cls-12" d="M264.61,209.88s-.08-.01-.24,0c-.18,0-.41,0-.69,.02-.64,.02-1.53,.06-2.66,.1-2.34,.11-5.67,.27-9.78,.46-8.28,.43-19.67,1.02-32.25,1.68-1.57,.07-3.13,.2-4.66,.22-1.54,.02-3.05,.08-4.54,.17-1.49,.09-2.95,.19-4.37,.34-1.41,.16-2.85,.3-4.16,.81-1.3,.48-2.5,1.19-3.46,2.1-.96,.91-1.65,2.04-2.1,3.19-.45,1.15-.69,2.32-.85,3.44-.15,1.12-.24,2.21-.23,3.26,0,2.08,.39,3.98,1.1,5.48,.7,1.51,1.67,2.62,2.58,3.34,.92,.72,1.77,1.09,2.35,1.26,.59,.18,.6,.12,.03-.08-.57-.2-1.39-.58-2.28-1.31-.88-.72-1.81-1.82-2.47-3.31-.67-1.48-1.02-3.34-1.01-5.39,0-1.02,.09-2.1,.25-3.21,.16-1.11,.41-2.25,.86-3.36,.44-1.11,1.1-2.18,2.03-3.04,.92-.87,2.07-1.54,3.33-2,1.26-.48,2.64-.62,4.06-.77,1.42-.14,2.87-.24,4.36-.32,1.48-.08,2.99-.14,4.52-.16,1.54-.02,3.09-.15,4.67-.22,12.58-.7,23.97-1.34,32.25-1.8,4.1-.25,7.43-.45,9.77-.59,1.13-.08,2.02-.14,2.66-.18,.28-.02,.51-.04,.69-.06,.16-.02,.23-.03,.23-.03Z"/></g></g></g><path class="cls-8" d="M249.54,178.26l-4.11,12.88c-1.58,5.32-6.04,9.32-11.55,10.35l-23.89,6.62-1.86-4.42-1.74-6.54,20.67-7.05c2.03-.45,3.64-1.97,4.17-3.96l8.23-17.9,10.42,6.39-.33,3.62Z"/><g><g><path class="cls-7" d="M259.56,137.96c-8.75,1.02-11.57,4.58-15.14,9.75-1.49,2.15-2.67,4.48-3.54,6.93l-6.63,18.78,13.83,4.26-.46,15.34-6.3,18.67,53.13,4.18-.15-27.13-.38-16.37c.5-6.2,1.79-19.35,.69-22.46-4.73-13.33-15.16-10.77-22.81-12.67-1.58-.39-9.21-.31-10.54,.01"/><path class="cls-5" d="M294.45,187.03c0,.14-10.39,.26-23.21,.26s-23.21-.12-23.21-.26,10.39-.26,23.21-.26,23.21,.12,23.21,.26Z"/><path class="cls-5" d="M293.67,196.3c0,.14-10.39,.26-23.21,.26s-23.21-.12-23.21-.26,10.39-.26,23.21-.26,23.21,.12,23.21,.26Z"/><path class="cls-5" d="M293.92,206.94c0,.14-10.99,.26-24.54,.26s-24.55-.12-24.55-.26,10.99-.26,24.55-.26,24.54,.12,24.54,.26Z"/><g><g class="cls-15"><path d="M287.47,181.1c-.69,3.6-.98,7.48-2.22,10.93-.91,2.54-1.92,5.08-3.55,7.23-2.22,2.92-5.5,4.95-9.01,6.04-3.51,1.09-20.38,4.86-24.04,4.58l30.86-14.61,3.72-15.36,4.24,1.19Z"/></g><path class="cls-8" d="M285.67,180.56l-3.39,13.06c-1.35,5.45-5.63,9.68-11.1,10.96l-27.24,6.39-7.48,.07v-10.28l27.42-7.41c2.01-.54,3.55-2.15,4-4.18l2.64-11.49,15.16,2.87Z"/></g><path class="cls-5" d="M294.72,149.13c0,.14-11.45,.26-25.58,.26s-25.58-.12-25.58-.26,11.45-.26,25.58-.26,25.58,.12,25.58,.26Z"/><path class="cls-5" d="M295.04,157.98c0,.14-12.34,.26-27.57,.26s-27.57-.12-27.57-.26,12.34-.26,27.57-.26,27.57,.12,27.57,.26Z"/><path class="cls-5" d="M294.33,167.55c0,.14-12.99,.36-29.02,.49-16.03,.13-29.03,.11-29.03-.03s12.99-.36,29.03-.49c16.03-.13,29.03-.11,29.03,.03Z"/><path class="cls-5" d="M293.92,177.69c0,.14-10.39,.26-23.21,.26s-23.21-.12-23.21-.26,10.39-.26,23.21-.26,23.21,.12,23.21,.26Z"/><path class="cls-13" d="M290.34,181.65s0-.07,.02-.22l.09-.63c.09-.59,.22-1.4,.37-2.43,.33-2.11,.81-5.19,1.33-9.04,.52-3.85,1.14-8.47,1.45-13.69,.1-2.58,.32-5.45-1.03-7.97-.64-1.25-1.6-2.36-2.81-3.18-1.2-.81-2.65-1.38-4.12-1.59h-.06c-1.59-.5-3.39-.23-5.06,.33-1.67,.56-3.32,1.39-4.69,2.55-.28,.25-.52,.51-.71,.8-.2,.32-.37,.65-.53,.99-.32,.68-.56,1.38-.77,2.1-.41,1.43-.67,2.9-.92,4.35-.52,2.89-1.02,5.71-1.5,8.42-.98,5.42-1.88,10.42-2.67,14.85l-.15-.23c6.41,1.37,11.68,2.5,15.38,3.29,1.8,.4,3.22,.71,4.23,.94,.46,.11,.82,.19,1.1,.26,.25,.06,.38,.1,.37,.11s-.13,0-.39-.05c-.28-.05-.65-.12-1.12-.2-1.02-.2-2.45-.48-4.26-.83-3.72-.75-9-1.82-15.44-3.12l-.18-.04,.03-.2c.77-4.43,1.65-9.45,2.6-14.87,.48-2.71,.97-5.53,1.49-8.43,.25-1.45,.51-2.92,.93-4.39,.21-.73,.47-1.47,.8-2.17,.17-.35,.35-.7,.56-1.04,.23-.35,.51-.66,.81-.92,1.46-1.23,3.14-2.06,4.87-2.65,1.72-.57,3.61-.88,5.38-.33h-.06c1.6,.22,3.07,.81,4.35,1.68,1.27,.87,2.3,2.05,2.96,3.37,.35,.66,.56,1.36,.77,2.05,.12,.71,.31,1.4,.31,2.11,.02,.35,.04,.7,.06,1.04,0,.34-.01,.68-.02,1.02,0,.68-.04,1.34-.09,2-.34,5.25-1,9.87-1.56,13.72-.58,3.85-1.1,6.91-1.49,9.02-.19,1.02-.35,1.83-.46,2.41l-.13,.62c-.03,.14-.05,.21-.06,.21Z"/></g><path class="cls-13" d="M247.93,192.79s.05-.5,.07-1.39c0-.97,.01-2.25,.02-3.79,0-3.2-.03-7.63-.09-12.51-.06-4.89-.14-9.31-.22-12.51-.05-1.54-.09-2.82-.12-3.79-.04-.9-.07-1.39-.1-1.39-.03,0-.05,.5-.07,1.39,0,.97-.01,2.25-.02,3.79,0,3.2,.03,7.63,.09,12.52,.06,4.89,.14,9.31,.22,12.51,.05,1.54,.09,2.82,.12,3.79,.04,.9,.07,1.39,.1,1.39Z"/></g><g><polygon class="cls-12" points="264.61 213.28 265.08 211.05 244.45 208.86 235.45 183 193.43 182.71 207.2 212.69 264.61 213.28"/><path class="cls-4" d="M220.36,199.24c.97-.61,1.25-1.89,.64-2.86-.61-.97-1.89-1.25-2.86-.64-.97,.61-1.25,1.89-.64,2.86,.61,.97,1.89,1.25,2.86,.64"/></g><g><g><path class="cls-13" d="M248.95,95.41c-2.25,.35-4.18,2.22-4.61,4.45-.43,2.23,.67,4.68,2.62,5.85,.84,.5,1.93,.77,2.81,.33,.82-.41,1.25-1.32,1.52-2.2,.87-2.81,.62-5.95-.67-8.6"/><g><g><g><path class="cls-8" d="M266.29,146.45h0c-4.99,0-9.02-4.08-8.96-9.07,.03-3.12,.09-5.81,.09-5.81,0,0-7.2-.67-7.73-7.8-.53-7.13-.3-23.59-.3-23.59h0c8.04-4.06,17.65-3.45,25.11,1.59l1.11,.75-.34,35.05c-.05,4.92-4.05,8.88-8.96,8.88Z"/><path class="cls-9" d="M257.39,131.47s4.53,.09,9.14-3.22c0,0-1.88,5.27-9.04,5.07l-.1-1.85Z"/></g><g><path class="cls-8" d="M273.75,110.41c.13-.05,4.51-.62,4.1,4.56-.41,5.17-5.5,3.05-5.5,2.9,0-.15,1.4-7.45,1.4-7.45Z"/><path class="cls-9" d="M274.08,116.17s.09,.07,.23,.15c.14,.08,.39,.15,.67,.07,.56-.16,1.09-.99,1.19-1.92,.05-.47-.01-.93-.15-1.31-.13-.39-.35-.68-.62-.75-.27-.09-.48,.06-.55,.2-.08,.14-.06,.25-.08,.25-.02,.01-.1-.1-.05-.31,.03-.1,.1-.22,.23-.31,.13-.09,.32-.13,.51-.09,.4,.06,.73,.46,.88,.88,.17,.43,.25,.94,.2,1.47-.12,1.04-.73,1.97-1.49,2.13-.37,.07-.67-.07-.81-.2-.15-.14-.17-.26-.15-.27Z"/></g><path class="cls-13" d="M254.3,103.13c.99-.44,2.51-1.76,3.36-2.43,.86,1.36,2.35,2.31,3.95,2.5,1.6,.2,3.28-.36,4.44-1.48,.05,.92,.6,1.81,1.41,2.25,.81,.45,1.85,.45,2.66,0l.1,8.26c.01,.79,.04,1.65,.52,2.28,.48,.63,1.59,.83,2.03,.17-.08-1.01-.16-2.07,.28-2.99,.44-.91,1.58-1.57,2.49-1.11,.34-1.7,.34-3.17,.29-4.88,0-.3,.05-1.24,.2-1.49,.28-.45,.41-.1,.93-.21,1.52-.32,2.67-1.78,2.79-3.33,.12-1.55-.71-3.09-1.97-4-1.26-.91-2.88-1.23-4.43-1.06,1.02-.94,.93-2.7,.03-3.76-.9-1.05-2.38-1.46-3.76-1.38-1.39,.08-2.94,.85-3.12,2.23-.35-2.66-2.82-4.88-5.5-4.95-2.68-.07-5.26,2-5.76,4.64-1.66-.74-3.98-1.55-5.63-.8-1.65,.75-3.09,1.94-3.43,4.75,0,0-.42,5.66,3.16,6.8,3.58,1.14,4.96,0,4.96,0Z"/></g><g><g><g><path class="cls-13" d="M251.26,111.6c-.02,.53,.41,.98,.96,1.01,.55,.03,1.01-.37,1.03-.9,.02-.53-.41-.98-.96-1.01-.55-.03-1.01,.37-1.03,.9Z"/><path class="cls-13" d="M251.04,110.47c.12,.13,.88-.43,1.96-.43,1.07-.01,1.86,.54,1.98,.41,.06-.06-.07-.29-.41-.54-.34-.25-.92-.49-1.59-.49-.67,0-1.23,.25-1.56,.5-.33,.25-.44,.49-.38,.55Z"/></g><g><path class="cls-13" d="M261.8,111.85c-.02,.53,.41,.98,.96,1.01,.55,.03,1.01-.37,1.03-.9,.02-.53-.41-.98-.96-1.01-.55-.03-1.01,.37-1.03,.9Z"/><path class="cls-13" d="M261.62,110.67c.12,.13,.88-.43,1.96-.43,1.07-.01,1.86,.54,1.98,.41,.06-.06-.07-.29-.41-.54-.34-.25-.92-.49-1.59-.49-.67,0-1.23,.25-1.56,.5-.33,.25-.44,.49-.38,.55Z"/></g><path class="cls-13" d="M257.71,118.66c0-.06-.66-.18-1.75-.32-.27-.03-.53-.08-.58-.27-.06-.2,.05-.49,.18-.81,.26-.66,.53-1.36,.81-2.09,1.13-2.98,1.95-5.43,1.83-5.47-.12-.04-1.13,2.33-2.26,5.31-.27,.73-.53,1.43-.78,2.11-.1,.31-.28,.67-.14,1.08,.07,.21,.28,.35,.45,.4,.18,.05,.33,.06,.47,.06,1.09,.06,1.77,.06,1.77,0Z"/><path class="cls-13" d="M260.88,119.4c-.17-.01-.18,1.16-1.18,1.99-1,.83-2.24,.7-2.25,.86-.02,.07,.28,.23,.8,.24,.52,.02,1.27-.15,1.88-.66,.61-.51,.87-1.19,.91-1.67,.04-.49-.09-.78-.17-.77Z"/></g><path class="cls-13" d="M261.34,106.46c.11,.29,1.18,.15,2.44,.31,1.27,.13,2.28,.5,2.45,.23,.07-.13-.1-.4-.51-.68-.41-.28-1.06-.55-1.82-.64-.76-.08-1.45,.04-1.91,.22-.46,.19-.7,.42-.65,.56Z"/><path class="cls-13" d="M251.44,107.36c.19,.24,.93,0,1.82-.02,.89-.04,1.65,.16,1.82-.09,.08-.12-.04-.37-.37-.6-.32-.23-.87-.42-1.48-.4-.61,.02-1.14,.24-1.45,.49-.32,.25-.42,.5-.33,.62Z"/></g></g></g><path class="cls-12" d="M253.48,95.07s-.1-.05-.28-.09c-.18-.03-.47-.01-.74,.19-.28,.19-.46,.61-.33,1.09,.11,.47,.5,.93,1.07,1.16,.56,.23,1.3,.23,1.93-.11,.62-.34,1.08-1.05,1.16-1.86,.1-.8-.24-1.66-.9-2.26-.65-.6-1.59-.93-2.53-.81-.94,.1-1.82,.57-2.44,1.21-.63,.64-1.01,1.48-1.18,2.3-.35,1.67,.09,3.24,.73,4.35,.64,1.13,1.45,1.85,2.04,2.28,.6,.43,.97,.6,.96,.64,0,.03-.42-.08-1.07-.47-.64-.39-1.53-1.09-2.25-2.26-.71-1.14-1.24-2.82-.88-4.63,.18-.89,.57-1.82,1.28-2.56,.7-.73,1.67-1.26,2.75-1.38,1.08-.14,2.19,.24,2.93,.95,.76,.69,1.17,1.74,1.03,2.69-.11,.94-.66,1.79-1.43,2.18-.77,.4-1.62,.36-2.28,.07-.66-.29-1.1-.87-1.21-1.44-.13-.57,.14-1.12,.5-1.32,.35-.22,.69-.2,.89-.13,.2,.08,.26,.18,.25,.19Z"/></g></g></g><g id="Plants"><g><path class="cls-7" d="M86.05,426.01c.67-2.66-1.09-5.32-3.05-7.23-1.96-1.92-4.31-3.63-5.34-6.17-1.67-4.12,.51-9.48-2.31-12.9-1.66-2.02-4.63-2.68-6.11-4.83-.78-1.13-1.03-2.52-1.34-3.86-1.58-6.81-5.03-13.18-9.87-18.23-.3,6.08,1.07,12.23,3.93,17.6,1.15,2.16,2.56,4.26,2.95,6.68,.63,3.92-1.53,7.98-.55,11.82,1.13,4.4,6.09,7.32,6.35,11.86,.22,3.83-3.1,7.22-2.83,11.05,.12,1.63,.88,3.14,1.73,4.54,2.99,4.91,7.37,8.28,13.97,8.14l8.09,.24-5.62-18.69Z"/><g class="cls-15"><path d="M86.05,426.01c.67-2.66-1.09-5.32-3.05-7.23-1.96-1.92-4.31-3.63-5.34-6.17-1.67-4.12,.51-9.48-2.31-12.9-1.66-2.02-4.63-2.68-6.11-4.83-.78-1.13-1.03-2.52-1.34-3.86-1.58-6.81-5.03-13.18-9.87-18.23-.3,6.08,1.07,12.23,3.93,17.6,1.15,2.16,2.56,4.26,2.95,6.68,.63,3.92-1.53,7.98-.55,11.82,1.13,4.4,6.09,7.32,6.35,11.86,.22,3.83-3.1,7.22-2.83,11.05,.12,1.63,.88,3.14,1.73,4.54,2.99,4.91,7.37,8.28,13.97,8.14l8.09,.24-5.62-18.69Z"/></g><g><g><path class="cls-13" d="M93.32,444.9s.77,.18,2.23-.06c.72-.11,1.62-.31,2.62-.68,1-.37,2.14-.9,3.24-1.8,.52-.46,1.05-1.03,1.32-1.79,.27-.75,.32-1.57,.37-2.42,.04-.85,.03-1.73,.17-2.62,.13-.89,.48-1.77,.97-2.61,.94-1.68,2.52-3.27,3.02-5.55,.54-2.24,.13-4.66-.26-7.09-.39-2.42-.77-5.07,.15-7.6,.85-2.53,2.61-4.83,3.48-7.68,.87-2.88,.44-5.98,.61-9.04,.08-1.54,.36-3.07,1.03-4.5,.65-1.44,1.55-2.79,2.25-4.3,1.42-3.05,1.65-6.51,2.03-9.89,.18-1.71,.37-3.43,.55-5.17,.18-1.75,.33-3.49,.87-5.18,.49-1.7,1.2-3.34,1.91-5.02,.34-.84,.71-1.68,.92-2.62,.15-.95,.19-1.85,.25-2.78,.08-1.85,0-3.73-.25-5.6-.23-1.87-.58-3.71-.79-5.58l-.04-.32-.04-.37-.33,.17c-1.73,.88-3.2,2.18-4.33,3.7-1.15,1.51-1.98,3.21-2.65,4.94-1.33,3.48-1.8,7.13-2.46,10.6-.64,3.48-1.5,6.9-3.27,9.8-.88,1.45-1.94,2.77-2.87,4.18-.93,1.4-1.74,2.94-1.98,4.62-.46,3.42,1.44,6.42,1.07,9.45-.13,1.51-.72,2.92-1.45,4.21-.73,1.3-1.58,2.5-2.4,3.71-.81,1.21-1.58,2.43-2.15,3.74-.58,1.3-.89,2.7-.97,4.06-.18,2.73,.22,5.31,.03,7.76-.15,2.45-1,4.67-1.96,6.66-.97,2-2.04,3.8-2.95,5.55-.45,.87-.87,1.73-1.21,2.58-.36,.85-.53,1.73-.7,2.56-.26,1.68-.22,3.24-.03,4.62,.37,2.77,1.41,4.76,2.35,5.87,.21,.3,.46,.51,.66,.7,.19,.2,.38,.34,.53,.45,.3,.22,.46,.32,.46,.32,.04-.04-.67-.41-1.57-1.54-.9-1.12-1.9-3.1-2.23-5.83-.17-1.36-.19-2.9,.08-4.55,.17-.81,.34-1.67,.7-2.5,.34-.84,.76-1.69,1.22-2.55,.91-1.73,2-3.53,2.99-5.54,.98-2,1.86-4.26,2.03-6.78,.2-2.5-.19-5.09,0-7.75,.09-1.33,.39-2.66,.95-3.92,.55-1.27,1.31-2.47,2.13-3.67,.81-1.2,1.68-2.41,2.43-3.73,.75-1.31,1.37-2.78,1.52-4.38,.37-3.23-1.52-6.24-1.05-9.43,.22-1.57,1-3.04,1.91-4.42,.92-1.38,1.99-2.71,2.89-4.19,1.82-2.98,2.69-6.47,3.34-9.96,.67-3.5,1.13-7.11,2.44-10.52,.65-1.7,1.47-3.36,2.58-4.81,1.09-1.47,2.5-2.71,4.15-3.55l-.37-.2,.04,.33c.21,1.89,.56,3.74,.79,5.59,.24,1.84,.32,3.68,.25,5.51-.05,.9-.1,1.85-.23,2.7-.19,.85-.55,1.69-.89,2.53-.7,1.67-1.42,3.34-1.92,5.07-.55,1.73-.7,3.53-.88,5.26-.18,1.74-.36,3.47-.54,5.17-.37,3.4-.6,6.8-1.97,9.75-.67,1.47-1.57,2.83-2.24,4.31-.69,1.48-.99,3.1-1.06,4.66-.16,3.12,.26,6.17-.56,8.94-.82,2.76-2.57,5.06-3.45,7.68-.94,2.64-.53,5.37-.13,7.79,.4,2.43,.81,4.8,.3,6.95-.45,2.17-1.98,3.75-2.95,5.48-.5,.86-.86,1.79-.99,2.71-.14,.92-.12,1.81-.16,2.65-.04,.83-.08,1.65-.33,2.35-.25,.7-.74,1.25-1.24,1.71-1.05,.88-2.17,1.42-3.16,1.8-.99,.38-1.87,.59-2.59,.72-.72,.13-1.27,.16-1.64,.17-.37-.01-.57,0-.57,0Z"/><path class="cls-13" d="M118.33,349.49s-.03,.08-.08,.24c-.05,.19-.1,.43-.17,.73-.16,.64-.34,1.6-.64,2.8-.31,1.2-1.04,2.56-1.65,4.23-.64,1.66-1.29,3.59-1.89,5.75-.6,2.16-1.14,4.56-1.69,7.13-.57,2.56-1.15,5.31-2.54,7.91-.66,1.32-1.39,2.65-1.98,4.11-.6,1.46-.92,3.05-1.14,4.65-.37,3.21-.94,6.46-1.69,9.79-1.58,6.64-3.09,12.96-4.47,18.71-1.41,5.74-2.68,10.9-3.75,15.26-1.04,4.32-1.89,7.83-2.48,10.3-.27,1.19-.49,2.12-.65,2.81-.06,.3-.11,.54-.16,.73-.03,.17-.04,.25-.04,.25,0,0,.04-.08,.09-.24,.05-.19,.12-.43,.21-.72,.18-.68,.43-1.61,.74-2.78,.63-2.46,1.53-5.96,2.64-10.26,1.1-4.35,2.41-9.51,3.85-15.23,1.39-5.76,2.91-12.08,4.51-18.72,.75-3.33,1.32-6.64,1.68-9.83,.22-1.59,.52-3.12,1.1-4.53,.56-1.42,1.29-2.75,1.95-4.08,1.41-2.65,1.98-5.48,2.54-8.03,.54-2.58,1.05-4.97,1.63-7.12,.57-2.16,1.19-4.08,1.81-5.74,.59-1.67,1.29-3.04,1.58-4.28,.27-1.23,.42-2.18,.55-2.83,.05-.3,.09-.54,.12-.74,.03-.17,.03-.25,.02-.26Z"/></g><g><path class="cls-7" d="M94.74,444.92c5.26-3.17,6.73-12.71,4.49-18.43-2.24-5.72-6.12-10.94-6.75-17.06-.48-4.7,1.03-9.53-.09-14.12-1.51-6.19-7.59-10.96-7.56-17.34,.02-3.58,2.03-6.95,1.85-10.53-.22-4.38-3.61-7.84-5.71-11.69-3.22-5.89-3.47-12.88-4.6-19.5-1.13-6.62-3.69-13.7-9.58-16.93-.84,5.63-2.29,9.49-1.79,17.11,.18,2.74,3.39,7.96,3.86,13.95,.28,3.58,.48,7.17,.72,10.76,.23,3.49,.48,7.04,1.75,10.3,.97,2.5,2.53,4.76,3.25,7.34,1.37,4.85-.36,10.13,.75,15.05,.94,4.17,3.85,7.74,4.46,11.97,.86,5.94-2.95,12.14-.95,17.8,.99,2.81,3.32,5.06,3.99,7.96,.52,2.25-.02,4.64,.45,6.9,.76,3.64,7.74,6.44,11.46,6.19"/><path class="cls-13" d="M68.27,324.91s0,.11,.02,.32c.03,.24,.07,.54,.12,.92,.13,.81,.27,2,.55,3.55,.3,1.55,1.11,3.29,1.76,5.39,.69,2.1,1.37,4.51,1.98,7.22,.62,2.71,1.14,5.7,1.69,8.93,.57,3.2,1.14,6.74,2.77,10.09,.75,1.68,1.59,3.37,2.23,5.17,.65,1.79,.95,3.72,1.15,5.7,.3,3.98,.85,8.12,1.62,12.3,1.67,8.33,3.25,16.26,4.69,23.48,1.52,7.19,2.89,13.67,4.04,19.12,1.16,5.41,2.11,9.8,2.77,12.88,.33,1.49,.59,2.66,.78,3.5,.09,.38,.16,.67,.22,.91,.05,.2,.08,.31,.09,.31,0,0,0-.11-.04-.32-.04-.23-.1-.54-.16-.92-.16-.84-.39-2.02-.68-3.52-.62-3.08-1.51-7.49-2.61-12.91-1.12-5.46-2.45-11.94-3.93-19.14-1.43-7.22-3-15.14-4.65-23.47-.77-4.18-1.32-8.26-1.62-12.26-.2-1.99-.51-3.98-1.19-5.82-.65-1.84-1.51-3.53-2.26-5.2-1.61-3.3-2.19-6.76-2.78-9.97-.57-3.22-1.11-6.22-1.75-8.94-.63-2.71-1.35-5.14-2.06-7.23-.68-2.11-1.52-3.84-1.84-5.35-.31-1.51-.49-2.72-.65-3.52-.07-.38-.13-.68-.18-.92-.04-.21-.07-.31-.08-.31Z"/></g></g></g><g><path class="cls-7" d="M662.9,418.38c-1.22,1.74-3.59,1.16-4.69,.1-1.1-1.06-1.56-2.6-1.99-4.07-.97-3.36-1.94-6.88-1.22-10.29,.21-1.02,.6-2.04,1.31-2.8,.72-.76,1.82-1.21,2.83-.94,1.19,.32,1.94,1.49,2.47,2.6,1.58,3.27,2.41,6.9,2.42,10.53,0,1.7-.19,3.47-1.15,4.87"/><g class="cls-14"><path d="M662.9,418.38c-1.22,1.74-3.59,1.16-4.69,.1-1.1-1.06-1.56-2.6-1.99-4.07-.97-3.36-1.94-6.88-1.22-10.29,.21-1.02,.6-2.04,1.31-2.8,.72-.76,1.82-1.21,2.83-.94,1.19,.32,1.94,1.49,2.47,2.6,1.58,3.27,2.41,6.9,2.42,10.53,0,1.7-.19,3.47-1.15,4.87"/></g><path class="cls-7" d="M658.33,427.19c-1.99-1.03-4.34-1.16-6.55-.8-1.19,.2-2.43,.55-3.24,1.45-.81,.89-.96,2.46-.03,3.23,.55,.46,1.32,.53,2.04,.52,1.73-.02,3.65-.33,5.04,.72,.79,.59,1.32,1.58,2.26,1.88,.92,.29,1.97-.26,2.46-1.09,.49-.83,.51-1.88,.28-2.81,0,0-.24-2.05-2.25-3.08Z"/><path class="cls-7" d="M666.25,420.87c-1.32-1.57-1.57-3.86-.99-5.83,.59-1.97,1.92-3.64,3.45-5.01,1.8-1.6,3.91-2.85,6.18-3.65,.89-.31,1.84-.56,2.78-.47,.94,.09,1.89,.57,2.33,1.41,.65,1.24,.03,2.75-.65,3.97-1.19,2.16-2.55,4.23-4.06,6.18-1.22,1.57-2.61,3.12-4.47,3.83-1.85,.71-3.78,.63-4.76-.66"/><path class="cls-13" d="M662.98,444.64s-.06-.28-.11-.79c-.06-.58-.13-1.3-.21-2.16-.1-.91-.23-1.99-.49-3.17-.25-1.17-.65-2.45-1.15-3.74-.52-1.28-1.16-2.45-1.91-3.38-.74-.94-1.6-1.61-2.41-2.01-.81-.4-1.53-.56-2.03-.63-.5-.05-.79-.09-.79-.11,0-.02,.28-.03,.8-.01,.51,.03,1.27,.16,2.12,.55,.85,.38,1.77,1.07,2.54,2.02,.78,.95,1.45,2.14,1.98,3.45,.51,1.31,.9,2.6,1.14,3.8,.24,1.2,.35,2.29,.42,3.21,.07,.92,.09,1.66,.11,2.17,.01,.51,0,.8-.02,.8Z"/><path class="cls-13" d="M662.83,442.97s-.02-.13-.02-.37c0-.28,0-.62,0-1.05,0-.91,0-2.23-.05-3.86-.08-3.26-.36-7.75-.9-12.69-.55-4.94-1.27-9.39-1.93-12.57-.16-.8-.31-1.52-.46-2.15-.14-.63-.26-1.18-.38-1.62-.1-.41-.18-.75-.25-1.02-.05-.23-.07-.36-.06-.36,.01,0,.05,.12,.13,.34,.08,.26,.18,.6,.3,1.01,.14,.44,.27,.98,.43,1.61,.16,.63,.34,1.34,.51,2.14,.72,3.18,1.48,7.63,2.03,12.59,.54,4.95,.79,9.46,.81,12.72,.02,1.63-.02,2.95-.06,3.86-.03,.43-.05,.77-.06,1.05-.02,.24-.03,.36-.04,.36Z"/><path class="cls-13" d="M662.81,434.28s-.02-.39,0-1.1c.04-.7,.14-1.72,.34-2.97,.21-1.24,.5-2.72,.97-4.33,.44-1.61,1.04-3.35,1.81-5.12,1.5-3.56,3.54-6.47,5.31-8.28,.42-.48,.88-.82,1.25-1.16,.19-.16,.36-.32,.53-.45l.49-.33c.58-.4,.91-.61,.92-.59,.05,.07-1.31,.87-3.03,2.7-1.71,1.82-3.69,4.71-5.18,8.25-.76,1.75-1.37,3.48-1.82,5.07-.47,1.59-.79,3.05-1.03,4.28-.23,1.23-.36,2.24-.44,2.94-.07,.7-.11,1.09-.13,1.09Z"/></g></g></svg>