<svg width="28" height="28" viewBox="0 0 28 28" fill="none" xmlns="http://www.w3.org/2000/svg">
<path d="M10.9705 6.77244C12.1473 6.3802 13.1702 6.14152 14.0962 6.04366C15.0036 5.94758 15.6859 5.90297 16.2435 5.90297C16.8401 5.90297 17.281 5.9537 17.7866 6.036L17.9297 5.12792C17.9297 5.12792 16.5337 4.69885 14.7004 4.84875L14.5565 4.35453C15.1257 4.23397 15.5529 3.72888 15.5529 3.12376C15.5529 2.42885 14.9894 1.86548 14.2946 1.86548C13.5996 1.86548 13.0362 2.4289 13.0362 3.12376C13.0362 3.72871 13.4632 4.23385 14.0323 4.35448L14.1924 4.90435C12.2461 5.17322 10.6962 5.93368 10.6962 5.93368L10.9705 6.77244Z" fill="#0D0C22"/>
<path d="M5.44808 10.4898C5.49355 10.4318 5.53828 10.3764 5.5826 10.3226L5.21146 10.0525L4.62957 9.62695C4.59531 9.6738 3.68202 10.5136 2.96045 12.0682C2.92911 12.0191 2.89359 11.9714 2.85276 11.9264C2.63645 11.6878 2.33349 11.5693 1.95017 11.5758C1.94445 11.5759 1.93884 11.5759 1.93329 11.5759C1.69365 11.5759 1.53139 11.4948 1.4234 11.3995C1.52984 11.264 1.5939 11.0935 1.5939 10.9078C1.5939 10.4678 1.23706 10.1109 0.796951 10.1109C0.35678 10.1109 0 10.4677 0 10.9078C0 11.348 0.35678 11.7048 0.796951 11.7048C0.865241 11.7048 0.931129 11.6953 0.994387 11.6792C1.19068 11.8972 1.50245 12.0872 1.958 12.079C2.19193 12.0752 2.36214 12.1355 2.47847 12.2629C2.61077 12.4078 2.65503 12.6155 2.66825 12.7722C2.6675 12.7742 2.66676 12.7761 2.66596 12.7782C2.14566 14.1958 2.29539 15.959 2.29539 15.959L3.55391 16.0092C3.57947 15.3668 3.6719 14.2441 3.99665 13.351C4.62413 11.6262 5.40827 10.5439 5.44133 10.4987L5.44808 10.4898Z" fill="#0D0C22"/>
<path d="M27.203 6.95654C26.7629 6.95654 26.4061 7.31327 26.4061 7.75349C26.4061 7.8219 26.4156 7.88796 26.4319 7.95127C26.2142 8.14768 26.0248 8.45939 26.0318 8.91443C26.0355 9.1483 25.9754 9.31857 25.848 9.43496C25.7482 9.52607 25.6186 9.57532 25.4964 9.60157C24.5576 8.29089 23.4032 7.4876 23.4032 7.4876L22.4993 8.4571C23.183 9.0799 23.8799 9.85751 24.5594 10.8289C25.0278 11.4985 25.5097 12.3654 25.9124 13.2275L27.1328 12.6498C27.1328 12.6498 26.5758 11.2727 25.7907 10.0389C25.9275 9.99032 26.065 9.91763 26.1846 9.80919C26.4232 9.59293 26.5412 9.28923 26.5352 8.9066C26.5313 8.65763 26.614 8.49033 26.7115 8.37989C26.847 8.48633 27.0174 8.55044 27.2031 8.55044C27.6432 8.55044 28 8.19361 28 7.75349C27.9999 7.31327 27.6431 6.95654 27.203 6.95654Z" fill="#0D0C22"/>
<path d="M24.0367 17.9199C22.358 18.7371 19.5939 19.8175 15.9584 20.3236C14.531 20.5224 13.1463 20.5967 11.8743 20.5967C10.2184 20.5967 8.76049 20.4708 7.63741 20.3296C6.35568 20.1683 5.31908 19.9702 4.74714 19.8328V19.8327C4.74714 19.8325 4.73753 19.8322 4.73633 19.832C4.88595 20.3062 5.06308 20.7658 5.27247 21.2053C5.27373 21.208 5.27304 21.2108 5.27436 21.2135C5.27951 21.2243 5.28391 21.2351 5.28917 21.2459C5.31485 21.2995 5.34059 21.3528 5.36724 21.406C5.39258 21.4563 5.4182 21.5064 5.44434 21.5563C5.45115 21.5693 5.45772 21.5824 5.46459 21.5953C5.82554 22.2757 6.25759 22.8991 6.75181 23.4401C8.46605 25.3174 10.2136 25.6123 10.2311 25.6152L10.2582 25.6194L10.2843 25.628C10.2994 25.6329 11.8491 26.1345 14.2059 26.1346C16.5234 26.1346 18.7971 25.6674 20.9642 24.7458C22.5689 23.9249 24.0889 22.6767 24.8389 21.5635C25.4216 20.7039 25.8429 19.7847 26.0918 18.8306C26.2244 18.3225 26.3277 17.5132 26.2676 16.6578C25.7938 16.9729 25.0474 17.4277 24.0367 17.9199Z" fill="#0D0C22"/>
<path d="M15.8197 19.331C19.3061 18.8456 21.9541 17.8129 23.5615 17.0338C24.8977 16.3861 25.7556 15.7996 26.0881 15.5577C25.7579 14.3331 24.8462 12.4105 24.0094 11.2142C21.622 7.8011 19.0468 6.92454 17.7244 6.70611C17.2194 6.62261 16.8153 6.57422 16.2435 6.57422C15.71 6.57422 15.0501 6.61769 14.1666 6.71109C13.281 6.80483 12.2943 7.03658 11.1502 7.41984C9.54392 7.95787 8.09101 8.80195 6.94837 9.86068L6.91022 9.8962C6.74007 10.0537 6.3866 10.3809 5.98035 10.8987C5.93031 10.9685 5.21057 12.0002 4.6357 13.5805C4.20446 14.7662 4.23242 16.4946 4.23242 16.5119V16.5167C4.23242 16.9199 4.24707 17.3228 4.29162 17.7223C4.29236 17.7287 4.28178 17.7351 4.28258 17.7414C4.28825 17.7912 4.28962 17.8409 4.28962 17.8905C4.28962 17.8906 4.28962 17.8906 4.28962 17.8907C4.34681 18.1723 4.37879 18.4564 4.43564 18.733C4.43632 18.7332 4.44073 18.738 4.44141 18.738H4.44319C5.27668 18.9667 10.2555 20.1055 15.8197 19.331ZM20.5962 10.1049C21.7428 10.1049 22.6724 11.0345 22.6724 12.1812C22.6724 13.3279 21.7429 14.2574 20.5962 14.2574C19.4496 14.2574 18.5199 13.3278 18.5199 12.1812C18.5199 11.0345 19.4496 10.1049 20.5962 10.1049ZM10.7791 10.0211C12.6323 10.0211 14.1347 11.5235 14.1347 13.3766C14.1347 15.2299 12.6323 16.7322 10.7791 16.7322C8.92593 16.7322 7.42354 15.2299 7.42354 13.3766C7.42354 11.5234 8.92593 10.0211 10.7791 10.0211ZM4.30598 17.905C4.34161 18.1755 4.38714 18.4486 4.44382 18.7231C4.38702 18.4486 4.34155 18.1755 4.30598 17.905Z" fill="#0D0C22"/>
</svg>
