<?xml version="1.0" encoding="UTF-8"?><svg xmlns="http://www.w3.org/2000/svg" viewBox="0 0 500 500"><defs><style>.cls-1{fill:#eb996e;}.cls-2{fill:#f5f5f5;}.cls-3,.cls-4{fill:#fff;}.cls-5{fill:#fafafa;}.cls-6{fill:#ffbe9d;}.cls-7,.cls-8{fill:#e8505b;}.cls-9{fill:#e0e0e0;}.cls-10{fill:#455a64;}.cls-11{fill:#263238;}.cls-12{opacity:.2;}.cls-13{opacity:.3;}.cls-14{opacity:.4;}.cls-15{opacity:.8;}.cls-16{fill:#ebebeb;}.cls-16,.cls-4,.cls-8{fill-rule:evenodd;}</style></defs><g id="Background_Complete"><g><path class="cls-9" d="M424.44,132.17s.57,.04,1.5,.47c.91,.42,2.19,1.34,2.99,3.02,.39,.83,.65,1.83,.61,2.92-.05,1.08-.33,2.24-1,3.27-.32,.52-.73,1-1.22,1.42-.48,.42-1.04,.78-1.65,1.05-1.21,.55-2.65,.7-4.03,.4-1.38-.32-2.62-1.07-3.48-2.08-.44-.5-.79-1.06-1.04-1.65-.26-.58-.43-1.2-.5-1.8-.17-1.22,.07-2.39,.49-3.39,.43-1,1.09-1.79,1.8-2.38,1.43-1.18,2.99-1.46,3.99-1.46,1.02,0,1.55,.22,1.55,.22,0,.04-.55-.11-1.55-.07-.98,.04-2.47,.36-3.83,1.51-.66,.57-1.29,1.34-1.69,2.3-.39,.95-.6,2.08-.43,3.23,.07,.58,.23,1.15,.48,1.7,.24,.56,.57,1.09,.99,1.56,.82,.96,1.99,1.66,3.29,1.96,1.31,.28,2.66,.15,3.81-.37,.58-.25,1.11-.58,1.56-.98,.46-.39,.86-.84,1.16-1.34,.64-.97,.93-2.08,.99-3.1,.05-1.03-.19-2-.54-2.8-.73-1.62-1.95-2.55-2.82-3-.89-.46-1.45-.55-1.43-.6Z"/><path class="cls-9" d="M429.52,125.39s0-.07-.01-.22c0-.17,0-.39-.02-.68,0-.62-.02-1.51-.04-2.67l.05,.06c-1.48-.32-3.42-.75-5.77-1.26l.1-.05c-.46,.98-.97,2.07-1.52,3.23l-.03,.06h-.06c-1.2,.05-2.47,.26-3.76,.67l-.07,.02-.05-.05c-.79-.78-1.65-1.63-2.54-2.51l.16,.02c-1.57,1-3.23,2.06-4.98,3.17l.06-.17c.37,1.04,.78,2.19,1.2,3.36l.03,.09-.06,.07c-.8,.87-1.58,1.93-2.19,3.12l-.04,.08h-.1c-1.11,0-2.33,0-3.57,.01l.16-.13c-.4,1.81-.84,3.76-1.29,5.77l-.09-.19c1,.48,2.11,1,3.22,1.53l.09,.04v.1c.05,1.19,.26,2.49,.66,3.75l.03,.1-.08,.08c-.79,.79-1.65,1.66-2.52,2.53l.02-.22,3.16,4.99-.21-.07c1.06-.38,2.21-.79,3.36-1.2l.1-.04,.08,.07c.89,.82,1.95,1.59,3.11,2.19h0c.04,.07-.1-.16,.1,.16h0v1.79c0,.6,0,1.19,0,1.78l-.14-.18c1.95,.44,3.87,.87,5.76,1.29l-.2,.1c.52-1.09,1.03-2.16,1.53-3.22l.05-.1h.11c1.29-.05,2.55-.28,3.75-.65l.1-.03,.08,.08c.85,.85,1.7,1.69,2.53,2.52l-.21-.02c1.7-1.08,3.37-2.13,4.99-3.16l-.07,.2c-.4-1.14-.8-2.26-1.19-3.36l-.03-.09,.07-.07c.89-.95,1.62-2.01,2.2-3.11l.04-.08h.09c1.22,0,2.41,0,3.57,0l-.15,.12c.46-2.03,.89-3.94,1.31-5.76l.08,.16c-1.13-.54-2.2-1.05-3.22-1.54l-.07-.03v-.08c-.05-1.36-.29-2.61-.65-3.76l-.02-.07,.05-.05c.92-.92,1.75-1.74,2.53-2.52v.13c-1.23-1.94-2.27-3.59-3.15-5l.1,.03c-1.35,.47-2.45,.85-3.37,1.18h-.06c-.95-.9-1.75-1.44-2.29-1.78-.26-.16-.47-.28-.61-.37-.14-.08-.21-.12-.2-.12,0,0,.08,.03,.22,.1,.14,.07,.35,.18,.63,.35,.55,.33,1.37,.85,2.34,1.73h-.06c.92-.34,2.02-.74,3.36-1.23l.06-.02,.04,.06c.9,1.41,1.95,3.05,3.18,4.98l.05,.07-.06,.06c-.78,.78-1.6,1.62-2.51,2.54l.03-.12c.37,1.17,.62,2.44,.68,3.82l-.07-.11c1.03,.48,2.09,.99,3.23,1.52l.1,.05-.02,.11c-.41,1.82-.83,3.74-1.28,5.77l-.03,.12h-.12c-1.16,0-2.34,0-3.57,.01l.14-.08c-.59,1.13-1.34,2.21-2.24,3.19l.03-.17c.39,1.1,.79,2.22,1.2,3.36l.04,.13-.11,.07c-1.62,1.03-3.28,2.09-4.99,3.17l-.12,.07-.1-.1c-.83-.83-1.68-1.67-2.53-2.52l.18,.04c-1.23,.39-2.52,.62-3.84,.67l.15-.1c-.5,1.06-1.01,2.14-1.53,3.22l-.06,.13-.14-.03c-1.89-.42-3.82-.85-5.76-1.29l-.14-.03v-3.69h0v-.02h0c.2,.32,.05,.09,.1,.16h0c-1.19-.62-2.28-1.4-3.18-2.25l.18,.04c-1.15,.41-2.3,.82-3.36,1.2l-.14,.05-.08-.12c-1.09-1.72-2.16-3.41-3.16-4.99l-.08-.12,.1-.1c.87-.87,1.73-1.74,2.52-2.53l-.04,.18c-.41-1.29-.62-2.62-.67-3.84l.1,.15c-1.12-.53-2.22-1.06-3.22-1.53l-.12-.06,.03-.13c.45-2,.89-3.95,1.3-5.76l.03-.13h.13c1.24,0,2.46,0,3.57,0l-.14,.08c.63-1.21,1.42-2.29,2.25-3.18l-.03,.15c-.42-1.18-.82-2.32-1.19-3.37l-.04-.11,.1-.06c1.75-1.11,3.42-2.16,5-3.15l.09-.06,.07,.07c.89,.89,1.74,1.74,2.52,2.53l-.12-.03c1.31-.41,2.61-.61,3.83-.65l-.09,.06c.56-1.16,1.08-2.24,1.54-3.22l.03-.07,.07,.02c2.34,.54,4.28,.99,5.76,1.33h.05v.06c-.01,1.15-.02,2.03-.02,2.65,0,.29,0,.52-.01,.68,0,.15,0,.23-.01,.24Z"/></g><g><path class="cls-9" d="M464.46,413.45s-.01-.38-.02-1.09c0-.72-.01-1.78-.02-3.16,0-2.77-.02-6.84-.04-12.06-.02-10.44-.05-25.48-.09-43.94l.16,.16c-27.94,.01-64.39,.03-104.13,.05h0l.21-.21c0,21.32-.01,41.7-.01,60.25l-.2-.2c30.5,.04,56.5,.07,74.9,.1,9.2,.02,16.5,.04,21.51,.05,2.5,.01,4.42,.02,5.74,.02,.65,0,1.14,0,1.48,.01,.33,0,.51,.01,.51,.01,0,0-.16,0-.49,.01-.34,0-.82,0-1.46,.01-1.3,0-3.21,.01-5.69,.02-5,.01-12.28,.03-21.46,.05-18.43,.02-44.48,.06-75.03,.1h-.2v-.2c0-18.55,0-38.93-.01-60.25v-.21h.22c39.74,.02,76.19,.04,104.13,.05h.16v.16c-.04,18.51-.07,33.59-.09,44.05-.02,5.2-.03,9.26-.04,12.02,0,1.37-.01,2.41-.02,3.13,0,.7-.02,1.05-.02,1.05Z"/><path class="cls-9" d="M464.5,360.49c0,.12-23.29,.21-52.02,.21s-52.02-.1-52.02-.21,23.29-.21,52.02-.21,52.02,.1,52.02,.21Z"/><rect class="cls-2" x="369.34" y="370.43" width="32.17" height="32.17"/><g><path class="cls-9" d="M456.91,375.73s-.16,.03-.47,.04l-1.36,.04c-1.24,.02-2.93,.04-4.99,.07-4.27,.02-10.06,.04-16.46,.06-6.4-.02-12.2-.05-16.46-.06-2.06-.03-3.75-.05-4.99-.07l-1.36-.04c-.31-.01-.47-.03-.47-.04s.16-.03,.47-.04c.36-.01,.81-.02,1.36-.04,1.24-.02,2.93-.04,4.99-.07,4.27-.02,10.06-.04,16.46-.06,6.4,.02,12.2,.05,16.46,.06,2.06,.03,3.75,.05,4.99,.07,.55,.02,1,.03,1.36,.04,.31,.01,.47,.03,.47,.04Z"/><path class="cls-9" d="M457.94,382.92s-.17,.03-.48,.04c-.36,.01-.82,.02-1.39,.04-1.26,.02-2.99,.04-5.1,.07-4.36,.02-10.28,.04-16.83,.06-6.55-.02-12.47-.05-16.83-.06-2.11-.03-3.84-.05-5.1-.07-.56-.02-1.02-.03-1.39-.04-.32-.01-.48-.03-.48-.04s.17-.03,.48-.04c.36-.01,.82-.02,1.39-.04,1.26-.02,2.99-.04,5.1-.07,4.36-.02,10.28-.04,16.83-.06,6.55,.02,12.47,.05,16.83,.06,2.11,.03,3.84,.05,5.1,.07,.56,.02,1.02,.03,1.39,.04,.32,.01,.48,.03,.48,.04Z"/><path class="cls-9" d="M457.94,390.1s-.17,.03-.48,.04c-.36,.01-.82,.02-1.39,.04-1.26,.02-2.99,.04-5.1,.07-4.36,.02-10.28,.04-16.83,.06-6.55-.02-12.47-.05-16.83-.06-2.11-.03-3.84-.05-5.1-.07-.56-.02-1.02-.03-1.39-.04-.32-.01-.48-.03-.48-.04s.17-.03,.48-.04c.36-.01,.82-.02,1.39-.04,1.26-.02,2.99-.04,5.1-.07,4.36-.02,10.28-.04,16.83-.06,6.55,.02,12.47,.05,16.83,.06,2.11,.03,3.84,.05,5.1,.07,.56,.02,1.02,.03,1.39,.04,.32,.01,.48,.03,.48,.04Z"/><path class="cls-9" d="M457.94,397.29s-.17,.03-.48,.04c-.36,.01-.82,.02-1.39,.04-1.26,.02-2.99,.04-5.1,.07-4.36,.02-10.28,.04-16.83,.06-6.55-.02-12.47-.05-16.83-.06-2.11-.03-3.84-.05-5.1-.07-.56-.02-1.02-.03-1.39-.04-.32-.01-.48-.03-.48-.04s.17-.03,.48-.04c.36-.01,.82-.02,1.39-.04,1.26-.02,2.99-.04,5.1-.07,4.36-.02,10.28-.04,16.83-.06,6.55,.02,12.47,.05,16.83,.06,2.11,.03,3.84,.05,5.1,.07,.56,.02,1.02,.03,1.39,.04,.32,.01,.48,.03,.48,.04Z"/></g></g><g><circle class="cls-2" cx="163.34" cy="84.47" r="43.28" transform="translate(-11.89 140.24) rotate(-45)"/><path class="cls-9" d="M182.99,85.8s-.54,.07-1.53,.1c-1.08,.02-2.49,.05-4.21,.08-3.57,.05-8.54,.08-14.16,.09h-.28v-.28c0-.9,0-1.85,0-2.81,0-6.27,.03-11.94,.08-16.05,.04-1.98,.07-3.62,.09-4.86,.03-1.15,.07-1.78,.11-1.78s.08,.64,.11,1.78c.02,1.24,.05,2.88,.09,4.86,.05,4.11,.08,9.78,.08,16.05,0,.96,0,1.91,0,2.81l-.28-.28c5.61,0,10.59,.04,14.16,.09,1.71,.03,3.12,.06,4.21,.08,.99,.03,1.53,.07,1.53,.1Z"/><path class="cls-9" d="M163.23,48.3c.15,0,.28,1.63,.28,3.64s-.13,3.64-.28,3.64-.28-1.63-.28-3.64,.13-3.64,.28-3.64Z"/><path class="cls-9" d="M182.95,54.13c.11,.11-.94,1.33-2.34,2.73-1.4,1.4-2.62,2.45-2.73,2.34-.11-.11,.94-1.33,2.34-2.73,1.4-1.4,2.62-2.45,2.73-2.34Z"/><path class="cls-9" d="M194.48,66.73c.07,.14-1.3,.97-2.98,1.99-1.68,1.02-3.05,1.86-3.14,1.73-.09-.12,1.14-1.18,2.85-2.21,1.7-1.04,3.21-1.65,3.27-1.51Z"/><path class="cls-9" d="M201.24,85.42c0,.15-2.22,.28-4.96,.28s-4.96-.13-4.96-.28,2.22-.28,4.96-.28,4.96,.13,4.96,.28Z"/><path class="cls-9" d="M132.49,84.76c0,.15-2.1,.28-4.68,.28s-4.68-.13-4.68-.28,2.1-.28,4.68-.28,4.68,.13,4.68,.28Z"/><path class="cls-9" d="M137.36,98.68c.1,.12-1.48,1.55-3.54,3.21-2.06,1.66-3.8,2.9-3.89,2.77-.09-.12,1.49-1.56,3.54-3.21,2.05-1.65,3.79-2.89,3.89-2.77Z"/><path class="cls-9" d="M149.35,109.44c.13,.09-1.05,1.9-2.41,4.17-1.37,2.27-2.41,4.16-2.56,4.09-.14-.06,.69-2.08,2.08-4.37,1.38-2.3,2.77-3.97,2.89-3.89Z"/><path class="cls-9" d="M163.23,123.32c-.15,0-.28-2.22-.28-4.96s.13-4.96,.28-4.96,.28,2.22,.28,4.96-.13,4.96-.28,4.96Z"/><path class="cls-9" d="M184.6,116.71c-.08,.12-2.02-.99-4.09-2.8-2.08-1.8-3.44-3.57-3.33-3.67,.12-.11,1.66,1.47,3.7,3.24,2.04,1.78,3.81,3.09,3.72,3.22Z"/><path class="cls-9" d="M194.63,105.91c-.11,.11-1.58-1.18-3.28-2.89-1.7-1.7-3-3.17-2.89-3.28,.11-.11,1.58,1.18,3.28,2.89,1.7,1.7,3,3.17,2.89,3.28Z"/><path class="cls-9" d="M136.9,71.43c-.11,.11-1.41-1.01-2.9-2.5-1.49-1.49-2.61-2.79-2.5-2.9,.11-.11,1.41,1.01,2.9,2.5s2.61,2.79,2.5,2.9Z"/><path class="cls-9" d="M149.28,58.39c-.11,.11-1.38-.98-2.85-2.44-1.46-1.46-2.56-2.73-2.45-2.84,.11-.11,1.38,.98,2.85,2.44,1.46,1.46,2.56,2.73,2.45,2.84Z"/></g><g class="cls-15"><path class="cls-16" d="M398.74,62.29c2.29,1.19,4.38,2.67,6.23,4.39l6.65-2.37,6.25,9.87-4.98,5c.76,2.4,1.21,4.93,1.31,7.5l6.38,3.03-2.56,11.4-7.06,.02c-1.19,2.29-2.67,4.38-4.39,6.23l2.37,6.65-9.87,6.25-5-4.98c-2.4,.76-4.92,1.21-7.5,1.31l-3.03,6.38-11.4-2.56v-7.06c-2.3-1.19-4.39-2.67-6.24-4.39l-6.65,2.37-6.25-9.87,4.98-5c-.76-2.4-1.21-4.92-1.31-7.5l-6.38-3.03,2.56-11.4h7.06c1.19-2.3,2.67-4.39,4.39-6.24l-2.37-6.65,9.87-6.25,5,4.98c2.4-.76,4.92-1.21,7.5-1.31l3.03-6.38,11.4,2.56,.02,7.06h0Zm-10.05,13.41c-6.75-1.51-13.46,2.73-14.97,9.49-1.51,6.75,2.73,13.46,9.49,14.97,6.75,1.51,13.46-2.73,14.97-9.49,1.51-6.75-2.73-13.46-9.49-14.97Z"/></g><path class="cls-2" d="M63.7,162.58h73.97s-6.54-11.9-25.58-10.17c-18.18,1.65-19.11-5.86-28.36-6.78-9.25-.92-16.95,6.16-20.03,16.95Z"/><path class="cls-2" d="M223.8,297.07h59.88s-5.29-9.64-20.71-8.23c-14.72,1.34-15.47-4.74-22.95-5.49-7.48-.75-13.72,4.99-16.22,13.72Z"/></g><g id="Floor"><path class="cls-11" d="M480.15,444.82c0,.14-103.05,.26-230.13,.26s-230.16-.12-230.16-.26,103.03-.26,230.16-.26,230.13,.12,230.13,.26Z"/></g><g id="Screens"><g><g><rect class="cls-3" x="309.91" y="145.13" width="145.28" height="97.28"/><path class="cls-7" d="M455.19,242.4s-.01-.61-.02-1.77l-.02-5.13c-.01-4.5-.03-11.11-.05-19.56-.03-16.9-.06-41.19-.11-70.81l.21,.21c-40.03,.01-90.54,.03-145.27,.05h-.01l.26-.26c0,34.65-.02,67.61-.02,97.28l-.24-.24c42.77,.05,79.06,.09,104.67,.12,12.81,.03,22.95,.05,29.9,.06,3.47,.01,6.14,.02,7.95,.03,.9,0,1.58,.01,2.05,.01,.46,0,.7,.01,.7,.01,0,0-.22,0-.68,.01-.46,0-1.14,0-2.03,.01-1.8,0-4.46,.02-7.91,.03-6.94,.01-17.06,.04-29.85,.06-25.65,.03-61.99,.07-104.82,.12h-.24v-.24c0-29.67-.01-62.62-.02-97.28v-.26h.27c54.74,.02,105.24,.04,145.27,.05h.21v.21c-.05,29.67-.08,54.01-.11,70.94-.02,8.44-.04,15.03-.05,19.52-.01,2.23-.02,3.93-.02,5.09,0,1.15-.02,1.73-.02,1.73Z"/></g><path class="cls-7" d="M309.91,153.81c0-.14,32.5-.26,72.58-.26s72.58,.12,72.58,.26-32.49,.26-72.58,.26-72.58-.12-72.58-.26Z"/><g><g class="cls-13"><path class="cls-7" d="M315.64,149.43c0,.64-.52,1.16-1.16,1.16s-1.16-.52-1.16-1.16,.52-1.16,1.16-1.16,1.16,.52,1.16,1.16Z"/></g><g class="cls-13"><path class="cls-7" d="M319.63,149.43c0,.64-.52,1.16-1.16,1.16s-1.16-.52-1.16-1.16,.52-1.16,1.16-1.16,1.16,.52,1.16,1.16Z"/></g><g class="cls-13"><path class="cls-7" d="M323.56,149.43c0,.64-.52,1.16-1.16,1.16s-1.16-.52-1.16-1.16,.52-1.16,1.16-1.16,1.16,.52,1.16,1.16Z"/></g></g><g class="cls-13"><rect class="cls-7" x="322.4" y="163.95" width="38.75" height="38.75"/></g><path class="cls-7" d="M435.27,174.9c0,.14-15.11,.26-33.76,.26s-33.76-.12-33.76-.26,15.11-.26,33.76-.26,33.76,.12,33.76,.26Z"/><path class="cls-7" d="M435.27,182.11c0,.14-15.11,.26-33.76,.26s-33.76-.12-33.76-.26,15.11-.26,33.76-.26,33.76,.12,33.76,.26Z"/><path class="cls-7" d="M435.27,189.31c0,.14-15.11,.26-33.76,.26s-33.76-.12-33.76-.26,15.11-.26,33.76-.26,33.76,.12,33.76,.26Z"/><path class="cls-7" d="M407.66,196.51s-.56,.07-1.57,.1c-1.1,.02-2.54,.05-4.28,.08-3.61,.05-8.6,.08-14.11,.08s-10.5-.03-14.11-.08c-1.73-.03-3.17-.06-4.28-.08-1.01-.03-1.57-.07-1.57-.1s.56-.07,1.57-.1c1.1-.02,2.54-.05,4.28-.08,3.61-.05,8.6-.08,14.11-.08s10.5,.03,14.11,.08c1.73,.03,3.17,.06,4.28,.08,1.01,.03,1.57,.07,1.57,.1Z"/><g class="cls-13"><rect class="cls-7" x="324.82" y="215.77" width="18.21" height="18.21"/></g><g class="cls-13"><rect class="cls-7" x="357.85" y="215.77" width="18.21" height="18.21"/></g><g class="cls-13"><rect class="cls-7" x="390.88" y="215.77" width="18.21" height="18.21"/></g><g class="cls-13"><rect class="cls-7" x="423.91" y="215.77" width="18.21" height="18.21"/></g></g><g><g><rect class="cls-3" x="44.21" y="180.17" width="129.42" height="52.57"/><path class="cls-7" d="M173.63,232.74s0-.32-.01-.94c0-.62,0-1.53-.02-2.73,0-2.4-.02-5.92-.04-10.46-.02-9.07-.04-22.2-.08-38.44l.14,.14c-32.92,.02-78.75,.04-129.41,.06h0l.2-.2c0,18.41,0,36.18,0,52.57l-.2-.2c37.5,.04,69.83,.07,92.79,.09,11.49,.02,20.64,.04,26.92,.05,3.14,.01,5.56,.02,7.2,.02,.82,0,1.44,0,1.87,.01,.42,0,.64,.01,.64,.01,0,0-.2,0-.62,.01-.42,0-1.04,0-1.84,.01-1.64,0-4.04,.01-7.16,.02-6.27,.01-15.4,.03-26.87,.05-23,.02-55.37,.06-92.93,.09h-.2v-.2c0-16.39,0-34.16,0-52.57v-.2h.21c50.66,.02,96.49,.05,129.41,.06h.14v.14c-.03,16.28-.06,29.43-.08,38.53-.02,4.53-.03,8.04-.04,10.43,0,1.18-.01,2.08-.02,2.7,0,.61-.01,.91-.01,.91Z"/></g><path class="cls-7" d="M44.34,187.26c0-.11,28.93-.2,64.61-.2s64.61,.09,64.61,.2-28.92,.2-64.61,.2-64.61-.09-64.61-.2Z"/><g><g class="cls-13"><path class="cls-7" d="M49.76,184.09c0,.52-.42,.94-.94,.94s-.94-.42-.94-.94,.42-.94,.94-.94,.94,.42,.94,.94Z"/></g><g class="cls-13"><path class="cls-7" d="M52.98,184.09c0,.52-.42,.94-.94,.94s-.94-.42-.94-.94,.42-.94,.94-.94,.94,.42,.94,.94Z"/></g><g class="cls-13"><path class="cls-7" d="M56.15,184.09c0,.52-.42,.94-.94,.94s-.94-.42-.94-.94,.42-.94,.94-.94,.94,.42,.94,.94Z"/></g></g><g class="cls-13"><rect class="cls-7" x="55.21" y="195.8" width="31.26" height="31.26"/></g><g><path class="cls-7" d="M164.68,204.18c0,.11-16.09,.2-35.93,.2s-35.93-.09-35.93-.2,16.08-.2,35.93-.2,35.93,.09,35.93,.2Z"/><path class="cls-7" d="M164.68,210.55c0,.11-16.09,.2-35.93,.2s-35.93-.09-35.93-.2,16.08-.2,35.93-.2,35.93,.09,35.93,.2Z"/><path class="cls-7" d="M139.08,216.92s-.16,.03-.47,.04c-.35,.01-.8,.02-1.35,.04-1.23,.02-2.9,.04-4.96,.07-4.23,.02-9.99,.04-16.35,.06-6.36-.02-12.12-.04-16.36-.06-2.05-.03-3.73-.05-4.96-.07-.55-.02-.99-.03-1.35-.04-.31-.01-.47-.03-.47-.04s.16-.03,.47-.04c.35-.01,.8-.02,1.35-.04,1.22-.02,2.9-.04,4.96-.07,4.23-.02,9.99-.04,16.36-.06,6.36,.02,12.12,.04,16.35,.06,2.05,.03,3.73,.05,4.96,.07,.55,.02,.99,.03,1.35,.04,.31,.01,.47,.03,.47,.04Z"/></g></g></g><g id="Rocket"><path class="cls-2" d="M268.73,114.11c-2.17-1.45-5.15-.57-7.32,.88-2.17,1.45-4.02,3.43-6.45,4.37-4.56,1.77-10.55-.33-14.09,3.05-2.25,2.14-2.48,5.66-4.2,8.25-2.9,4.36-9.85,6-10.45,11.2-.35,3.03,2.05,5.94,4.99,6.79,2.93,.85,6.16-.05,8.7-1.74,2.97-1.97,5.3-5.02,8.69-6.14,3.46-1.15,7.73-.19,10.46-2.6,2.73-2.42,2.32-6.86,4.28-9.94,1.04-1.64,2.68-2.79,4.16-4.06s2.87-2.84,3.12-4.77c.25-1.93-.54-5.22-1.87-5.29"/><g><path class="cls-11" d="M212.38,326.56c.12-.07,.53,.33,.91,.9,.38,.57,.59,1.11,.47,1.19-.12,.08-.52-.32-.91-.9-.38-.58-.59-1.11-.47-1.19Z"/><path class="cls-11" d="M208.1,317.54c.14-.05,.67,.95,1.19,2.22,.52,1.27,.84,2.35,.71,2.41s-.66-.93-1.19-2.22c-.53-1.29-.84-2.37-.71-2.41Z"/><path class="cls-11" d="M205.78,307.82c.14-.02,.46,1.06,.71,2.41,.25,1.35,.34,2.47,.2,2.51-.14,.03-.46-1.05-.71-2.41-.25-1.37-.34-2.49-.2-2.51Z"/><path class="cls-11" d="M205.43,297.83c.14,.01,.24,1.13,.23,2.5-.02,1.37-.15,2.49-.3,2.5-.14,0-.24-1.11-.23-2.51,.02-1.39,.15-2.51,.3-2.5Z"/><path class="cls-11" d="M207.04,287.97c.14,.04,.02,1.16-.27,2.5-.29,1.34-.64,2.41-.78,2.39-.14-.02-.02-1.14,.27-2.5,.29-1.36,.64-2.43,.78-2.39Z"/><path class="cls-11" d="M210.64,278.65c.13,.07-.22,1.14-.79,2.39-.56,1.25-1.13,2.23-1.26,2.18-.13-.05,.22-1.12,.79-2.39,.57-1.27,1.13-2.24,1.26-2.18Z"/><path class="cls-11" d="M216.15,270.31c.11,.09-.46,1.06-1.28,2.16-.82,1.1-1.59,1.93-1.69,1.86-.14-.09,.45-1.05,1.27-2.17,.83-1.12,1.59-1.95,1.7-1.85Z"/><path class="cls-11" d="M222.87,262.91c.1,.1-.59,.99-1.54,1.99-.95,1-1.81,1.73-1.91,1.63s.58-.99,1.54-1.99c.95-1,1.81-1.73,1.91-1.63Z"/><path class="cls-11" d="M229.91,255.79c.1,.1-.6,.98-1.57,1.96-.97,.99-1.84,1.7-1.94,1.6-.1-.1,.6-.98,1.57-1.96,.97-.98,1.84-1.7,1.94-1.6Z"/><path class="cls-11" d="M236.49,248.25c.12,.09-.5,1.03-1.39,2.1-.88,1.07-1.68,1.87-1.79,1.77-.11-.1,.51-1.04,1.39-2.1,.87-1.06,1.67-1.86,1.79-1.77Z"/><path class="cls-11" d="M241.59,239.67c.13,.05-.2,1.14-.84,2.38-.64,1.24-1.33,2.14-1.45,2.06-.12-.08,.36-1.09,.99-2.3,.63-1.22,1.17-2.2,1.3-2.14Z"/><path class="cls-11" d="M244.02,230.01c.14,0,.18,1.15-.05,2.52-.23,1.38-.63,2.44-.77,2.41-.14-.04,.03-1.14,.25-2.49,.23-1.35,.42-2.45,.57-2.44Z"/><path class="cls-11" d="M243.28,220.07c.14-.04,.53,1.03,.74,2.41,.22,1.38,.17,2.52,.03,2.53-.15,0-.33-1.09-.54-2.45-.21-1.35-.37-2.46-.23-2.49Z"/><path class="cls-11" d="M239.35,210.92c.12-.08,.85,.79,1.51,2.02,.66,1.23,.98,2.32,.85,2.38-.14,.06-.66-.93-1.31-2.13-.64-1.2-1.17-2.19-1.05-2.27Z"/><path class="cls-11" d="M232.38,203.82c.08-.12,1.09,.41,2.16,1.31,1.08,.9,1.78,1.8,1.67,1.89-.11,.1-.96-.62-2.01-1.49-1.05-.88-1.91-1.59-1.83-1.71Z"/><path class="cls-11" d="M223.29,199.76c.03-.14,1.16,0,2.49,.45,1.32,.45,2.3,1.03,2.24,1.16-.06,.13-1.12-.23-2.41-.67-1.29-.44-2.35-.8-2.32-.95Z"/><path class="cls-11" d="M213.35,199.31c-.03-.14,1.08-.45,2.47-.52,1.4-.07,2.53,.12,2.52,.26,0,.15-1.12,.19-2.49,.26-1.36,.07-2.48,.14-2.5,0Z"/><path class="cls-11" d="M204.12,202.99c-.08-.11,.78-.87,2.01-1.53,1.23-.67,2.34-.96,2.39-.83,.05,.14-.94,.64-2.14,1.29-1.2,.64-2.17,1.19-2.26,1.07Z"/><path class="cls-11" d="M197.26,210.18c-.12-.07,.37-1.11,1.23-2.21,.86-1.11,1.74-1.84,1.84-1.74,.1,.1-.59,.97-1.43,2.06-.84,1.08-1.51,1.97-1.64,1.89Z"/><path class="cls-11" d="M193.89,219.52c-.14-.01-.14-1.16,.19-2.52,.33-1.36,.85-2.38,.98-2.33,.14,.05-.15,1.13-.47,2.46-.32,1.32-.55,2.42-.7,2.4Z"/><path class="cls-11" d="M195.08,229.37c-.13,.05-.65-.97-.98-2.33-.33-1.36-.34-2.51-.2-2.52,.15-.02,.38,1.07,.71,2.4,.32,1.33,.61,2.4,.47,2.46Z"/><path class="cls-11" d="M200.15,237.93c-.11,.09-.93-.69-1.75-1.82-.82-1.13-1.29-2.17-1.16-2.24,.13-.07,.79,.83,1.59,1.94,.8,1.11,1.44,2.03,1.33,2.12Z"/><path class="cls-11" d="M207.51,244.68c-.08,.12-1.07-.44-2.15-1.31-1.08-.87-1.83-1.73-1.74-1.83,.1-.11,.99,.56,2.06,1.43,1.07,.86,1.91,1.6,1.83,1.72Z"/><path class="cls-11" d="M216.18,249.65c-.06,.13-1.11-.27-2.35-.9-1.24-.63-2.18-1.24-2.11-1.37,.07-.12,1.12,.28,2.35,.9,1.22,.62,2.17,1.23,2.11,1.37Z"/><path class="cls-11" d="M225.7,252.68c-.02,.14-1.16,.05-2.51-.3-1.35-.35-2.38-.81-2.34-.95,.05-.14,1.14,.1,2.47,.44,1.33,.34,2.4,.66,2.38,.8Z"/><path class="cls-11" d="M235.66,253.19c.02,.14-1.1,.38-2.49,.4-1.39,.03-2.52-.16-2.51-.3,0-.15,1.13-.19,2.5-.22,1.37-.02,2.49-.03,2.5,.12Z"/><path class="cls-11" d="M245.28,250.62c.06,.13-.91,.72-2.23,1.19-1.31,.47-2.44,.64-2.48,.5-.04-.14,1.01-.53,2.3-.99,1.29-.46,2.34-.83,2.41-.7Z"/><path class="cls-11" d="M253.62,245.15c.1,.1-.66,.95-1.77,1.8-1.11,.85-2.12,1.36-2.2,1.24-.08-.12,.79-.82,1.88-1.66,1.09-.83,1.99-1.49,2.09-1.39Z"/><path class="cls-11" d="M260.13,237.59c.12,.08-.39,1.09-1.23,2.21-.84,1.12-1.67,1.89-1.78,1.79-.11-.1,.54-1.01,1.36-2.11,.82-1.1,1.52-1.97,1.64-1.89Z"/><path class="cls-11" d="M264.46,228.59c.14,.04-.09,1.16-.62,2.45-.52,1.29-1.13,2.25-1.25,2.19-.13-.06,.26-1.11,.77-2.39,.51-1.27,.96-2.3,1.1-2.25Z"/><path class="cls-11" d="M266.4,218.8c.14,0,.18,1.14-.01,2.52-.19,1.38-.53,2.46-.67,2.43-.14-.03-.03-1.14,.15-2.5,.19-1.36,.38-2.46,.53-2.45Z"/><path class="cls-11" d="M266.14,208.81c.14-.02,.35,1.09,.45,2.47,.11,1.39,.08,2.51-.07,2.51s-.35-1.11-.45-2.47c-.11-1.37-.08-2.49,.07-2.51Z"/><path class="cls-11" d="M263.97,199.05c.14-.04,.54,1.01,.91,2.35,.36,1.34,.54,2.45,.4,2.48-.14,.03-.55-1.02-.91-2.35-.36-1.33-.54-2.44-.4-2.48Z"/><path class="cls-11" d="M260.14,189.81c.13-.07,.73,.89,1.33,2.14,.56,1.27,.91,2.35,.77,2.4-.13,.05-.69-.92-1.25-2.18-.6-1.24-.99-2.29-.86-2.36Z"/><path class="cls-11" d="M255.22,181.1c.12-.07,.79,.83,1.49,2.03,.7,1.19,1.17,2.22,1.04,2.29-.12,.07-.79-.84-1.49-2.03-.7-1.19-1.16-2.22-1.04-2.29Z"/><path class="cls-11" d="M250.26,172.41c.13-.07,.77,.86,1.44,2.06,.67,1.21,1.11,2.24,.98,2.31-.12,.07-.77-.85-1.44-2.06-.67-1.21-1.11-2.25-.98-2.31Z"/><path class="cls-11" d="M246.35,163.21c.14-.04,.64,.97,1.12,2.25,.48,1.29,.76,2.37,.63,2.43-.13,.06-.63-.95-1.12-2.25-.48-1.3-.77-2.39-.63-2.43Z"/><path class="cls-11" d="M244.65,153.38c.15,0,.3,1.1,.44,2.47,.14,1.36,.23,2.48,.09,2.51-.14,.03-.46-1.06-.6-2.45-.15-1.38-.07-2.52,.07-2.52Z"/><path class="cls-11" d="M245.48,143.43c.14,.03,.02,1.14-.18,2.5-.2,1.36-.4,2.46-.54,2.45-.14,0-.18-1.15,.03-2.52,.2-1.38,.56-2.46,.7-2.43Z"/><path class="cls-11" d="M248.74,133.99c.13,.07-.27,1.11-.8,2.38-.53,1.27-.99,2.28-1.13,2.24-.13-.04,.11-1.15,.65-2.44,.54-1.29,1.15-2.24,1.28-2.18Z"/><path class="cls-11" d="M254.31,125.71c.11,.1-.55,1-1.39,2.09-.84,1.08-1.55,1.95-1.67,1.87-.12-.08,.41-1.09,1.26-2.19,.85-1.1,1.7-1.86,1.8-1.77Z"/><path class="cls-11" d="M261.82,119.13c.08,.12-.78,.83-1.87,1.67-1.09,.84-1.99,1.49-2.09,1.38-.09-.11,.67-.95,1.77-1.8,1.1-.85,2.11-1.38,2.19-1.26Z"/><path class="cls-11" d="M270.72,114.61c.05,.14-.97,.61-2.22,1.16-1.26,.54-2.3,.95-2.37,.83-.07-.13,.88-.75,2.16-1.3,1.28-.55,2.38-.81,2.43-.68Z"/><path class="cls-11" d="M277.97,112.77c.02,.14-.51,.36-1.18,.48-.67,.12-1.25,.11-1.28-.03-.03-.14,.5-.36,1.18-.48,.68-.13,1.26-.11,1.28,.03Z"/></g><g><path class="cls-7" d="M298.38,83.33s11.75-8.38,28-2.97c0,0,1.34,13.46-11.7,24.16"/><path class="cls-7" d="M261.35,108.19c.5,.75,13.25,21.24,13.25,21.24l38.27-23.58c6.68-4.12,8.41-13.07,3.74-19.38h0c-4.26-5.75-12.29-7.14-18.23-3.15l-37.03,24.86Z"/><path class="cls-11" d="M274.6,129.43l-.86,14.42s24.8-12.01,18.61-25.36l-17.76,10.94Z"/><path class="cls-11" d="M279.08,96.29s-16.82-7.42-30.66,3.46l12.94,8.44,17.73-11.9Z"/><path class="cls-11" d="M278.96,108.2l-23.94,14.97s.82,2.57,1.47,2.36c.54-.18,18.52-10.8,24.36-14.25,.95-.56,1.17-1.84,.47-2.7h0c-.58-.7-1.59-.87-2.36-.39Z"/><g><circle class="cls-5" cx="301.01" cy="96.85" r="7.66" transform="translate(137.8 367.68) rotate(-76.76)"/><path class="cls-11" d="M308.67,96.85c-.06,0-.03-.68-.34-1.85-.31-1.14-1.08-2.81-2.8-4.1-.85-.63-1.92-1.16-3.15-1.37-1.22-.2-2.6-.16-3.9,.34-1.31,.47-2.55,1.36-3.44,2.59-.91,1.21-1.42,2.77-1.44,4.38,.01,1.61,.53,3.16,1.44,4.38,.88,1.23,2.13,2.12,3.44,2.59,1.31,.5,2.68,.55,3.9,.34,1.23-.21,2.3-.74,3.15-1.37,1.72-1.29,2.49-2.96,2.8-4.1,.31-1.16,.28-1.85,.34-1.85,.02,0,.03,.17,.03,.49,0,.32-.03,.8-.17,1.4-.25,1.19-1,2.95-2.77,4.34-.88,.68-2,1.26-3.29,1.5-1.29,.23-2.75,.2-4.15-.32-1.4-.49-2.73-1.43-3.68-2.74-.98-1.29-1.53-2.96-1.55-4.68,.01-1.72,.57-3.39,1.55-4.68,.95-1.31,2.29-2.25,3.68-2.74,1.4-.52,2.86-.55,4.15-.32,1.3,.24,2.42,.82,3.29,1.5,1.77,1.39,2.52,3.16,2.77,4.34,.14,.6,.18,1.08,.17,1.4,0,.32,0,.49-.03,.49Z"/></g><path class="cls-11" d="M318,101.96c-.1,0-.21-1.49-.8-3.82-.28-1.17-.73-2.53-1.33-3.99-.62-1.46-1.41-3.01-2.39-4.55-1-1.53-2.1-2.89-3.17-4.06-1.09-1.15-2.14-2.12-3.09-2.86-1.88-1.49-3.2-2.21-3.15-2.3,.02-.03,.36,.13,.95,.45,.3,.16,.67,.36,1.07,.63,.4,.27,.88,.55,1.35,.93,.99,.71,2.08,1.67,3.21,2.82,1.11,1.17,2.24,2.55,3.26,4.11,1,1.57,1.79,3.16,2.4,4.66,.58,1.5,1,2.9,1.25,4.09,.15,.59,.21,1.14,.29,1.62,.08,.48,.12,.89,.14,1.23,.05,.68,.05,1.05,.02,1.06Z"/><path class="cls-11" d="M315.94,103.06c-.1,.01-.22-1.51-.82-3.88-.29-1.19-.75-2.57-1.35-4.06-.63-1.48-1.43-3.07-2.43-4.64-1.01-1.56-2.12-2.95-3.21-4.14-1.1-1.17-2.17-2.17-3.13-2.92-1.9-1.53-3.24-2.28-3.19-2.36,.02-.03,.36,.14,.97,.47,.31,.16,.67,.37,1.08,.65,.41,.27,.89,.57,1.37,.95,1,.73,2.11,1.71,3.25,2.89,1.12,1.2,2.26,2.6,3.29,4.19,1.01,1.6,1.81,3.22,2.43,4.74,.59,1.53,1.02,2.95,1.27,4.16,.15,.6,.22,1.16,.3,1.64,.08,.48,.12,.91,.14,1.25,.05,.69,.06,1.07,.02,1.07Z"/></g></g><g id="Plant"><g><path class="cls-7" d="M81.84,420.97c-.86-3.4,1.39-6.8,3.9-9.24,2.51-2.45,5.51-4.64,6.82-7.89,2.13-5.26-.66-12.11,2.96-16.49,2.13-2.58,5.92-3.42,7.81-6.18,.99-1.45,1.32-3.23,1.71-4.93,2.02-8.71,6.43-16.85,12.62-23.3,.38,7.77-1.37,15.63-5.03,22.5-1.47,2.76-3.27,5.45-3.77,8.53-.81,5.01,1.96,10.19,.7,15.11-1.44,5.62-7.79,9.36-8.12,15.16-.28,4.9,3.97,9.23,3.62,14.12-.15,2.08-1.13,4.02-2.21,5.8-3.83,6.28-9.42,10.59-17.86,10.4l-10.34,.3,7.19-23.89Z"/><g class="cls-13"><path d="M81.84,420.97c-.86-3.4,1.39-6.8,3.9-9.24,2.51-2.45,5.51-4.64,6.82-7.89,2.13-5.26-.66-12.11,2.96-16.49,2.13-2.58,5.92-3.42,7.81-6.18,.99-1.45,1.32-3.23,1.71-4.93,2.02-8.71,6.43-16.85,12.62-23.3,.38,7.77-1.37,15.63-5.03,22.5-1.47,2.76-3.27,5.45-3.77,8.53-.81,5.01,1.96,10.19,.7,15.11-1.44,5.62-7.79,9.36-8.12,15.16-.28,4.9,3.97,9.23,3.62,14.12-.15,2.08-1.13,4.02-2.21,5.8-3.83,6.28-9.42,10.59-17.86,10.4l-10.34,.3,7.19-23.89Z"/></g><g><g><path class="cls-11" d="M72.56,445.11s-.99,.22-2.85-.08c-.93-.14-2.06-.39-3.35-.86-1.28-.48-2.74-1.16-4.14-2.3-.67-.59-1.34-1.32-1.69-2.28-.35-.96-.41-2.01-.47-3.09-.05-1.08-.04-2.21-.22-3.35-.17-1.14-.61-2.26-1.24-3.33-1.21-2.15-3.22-4.19-3.86-7.1-.69-2.86-.17-5.95,.33-9.06,.5-3.1,.98-6.48-.19-9.71-1.09-3.24-3.34-6.17-4.45-9.82-1.11-3.69-.56-7.64-.78-11.55-.1-1.96-.47-3.93-1.31-5.75-.83-1.83-1.98-3.57-2.87-5.5-1.81-3.9-2.11-8.32-2.59-12.65-.23-2.18-.47-4.38-.7-6.61-.23-2.24-.42-4.46-1.11-6.62-.62-2.17-1.53-4.27-2.44-6.41-.44-1.08-.91-2.15-1.18-3.35-.2-1.22-.25-2.36-.31-3.56-.1-2.37,0-4.77,.32-7.15,.29-2.38,.74-4.75,1.01-7.14,.02-.14,.03-.28,.05-.41l.06-.48,.42,.21c2.21,1.12,4.09,2.78,5.54,4.73,1.47,1.93,2.54,4.11,3.38,6.32,1.7,4.45,2.3,9.11,3.14,13.56,.82,4.45,1.92,8.82,4.18,12.53,1.12,1.85,2.48,3.54,3.67,5.34,1.19,1.79,2.23,3.75,2.53,5.91,.59,4.38-1.84,8.2-1.36,12.08,.17,1.93,.92,3.73,1.86,5.38,.93,1.66,2.02,3.19,3.06,4.74,1.04,1.55,2.02,3.11,2.75,4.78,.74,1.67,1.14,3.45,1.24,5.19,.23,3.49-.28,6.79-.04,9.92,.19,3.13,1.27,5.97,2.5,8.51,1.24,2.55,2.61,4.86,3.77,7.09,.58,1.12,1.11,2.21,1.55,3.3,.46,1.09,.68,2.21,.89,3.27,.33,2.15,.28,4.14,.04,5.9-.47,3.54-1.8,6.08-3,7.51-.27,.38-.59,.65-.84,.9-.24,.26-.48,.44-.68,.57-.39,.28-.59,.41-.59,.41-.05-.05,.85-.52,2.01-1.97,1.15-1.43,2.42-3.96,2.85-7.46,.22-1.74,.24-3.71-.1-5.82-.21-1.04-.44-2.14-.9-3.2-.43-1.07-.97-2.15-1.56-3.26-1.16-2.22-2.55-4.52-3.82-7.08-1.25-2.55-2.38-5.45-2.59-8.66-.25-3.19,.25-6.51,0-9.91-.11-1.7-.5-3.4-1.22-5.02-.71-1.62-1.68-3.16-2.72-4.69-1.04-1.54-2.14-3.08-3.1-4.77-.96-1.68-1.76-3.56-1.94-5.6-.47-4.13,1.94-7.98,1.34-12.05-.29-2.01-1.28-3.89-2.45-5.65-1.17-1.77-2.54-3.46-3.69-5.35-2.33-3.81-3.44-8.27-4.27-12.73-.85-4.47-1.45-9.08-3.12-13.44-.83-2.17-1.87-4.29-3.29-6.15-1.4-1.88-3.2-3.46-5.3-4.53l.48-.26-.05,.42c-.27,2.42-.72,4.78-1.01,7.14-.3,2.36-.41,4.71-.31,7.04,.06,1.15,.12,2.36,.3,3.45,.25,1.09,.7,2.16,1.14,3.23,.9,2.13,1.82,4.26,2.45,6.48,.71,2.21,.9,4.52,1.13,6.73,.23,2.23,.47,4.43,.7,6.61,.47,4.35,.77,8.69,2.51,12.46,.86,1.88,2.01,3.61,2.86,5.51,.88,1.89,1.26,3.97,1.35,5.96,.2,3.99-.34,7.89,.72,11.43,1.05,3.52,3.29,6.47,4.41,9.81,1.2,3.38,.68,6.86,.16,9.95-.52,3.11-1.04,6.14-.38,8.89,.58,2.78,2.54,4.8,3.77,7.01,.64,1.1,1.1,2.28,1.26,3.46,.17,1.18,.16,2.31,.2,3.39,.05,1.06,.1,2.11,.42,3.01,.32,.89,.95,1.6,1.59,2.18,1.34,1.12,2.78,1.82,4.04,2.31,1.27,.49,2.39,.76,3.31,.92,.91,.17,1.63,.2,2.1,.22,.48-.01,.72,0,.72,0Z"/><path class="cls-11" d="M40.59,323.15s.04,.1,.1,.31c.06,.25,.13,.55,.22,.93,.2,.82,.43,2.05,.82,3.58,.4,1.53,1.33,3.27,2.11,5.41,.82,2.12,1.65,4.58,2.42,7.35,.77,2.76,1.45,5.83,2.17,9.11,.73,3.28,1.47,6.79,3.25,10.11,.84,1.68,1.78,3.39,2.53,5.25,.77,1.86,1.17,3.9,1.45,5.94,.47,4.1,1.2,8.26,2.16,12.52,2.02,8.48,3.95,16.56,5.71,23.92,1.8,7.33,3.42,13.94,4.79,19.51,1.33,5.52,2.41,10,3.17,13.17,.35,1.52,.63,2.72,.83,3.59,.08,.38,.15,.69,.2,.94,.04,.21,.06,.32,.05,.32-.01,0-.05-.1-.11-.31-.07-.25-.16-.55-.26-.92-.23-.86-.55-2.05-.95-3.56-.81-3.15-1.96-7.62-3.38-13.11-1.41-5.56-3.07-12.16-4.93-19.47-1.77-7.36-3.72-15.44-5.76-23.93-.96-4.25-1.69-8.49-2.15-12.57-.28-2.03-.66-3.99-1.4-5.8-.72-1.82-1.65-3.51-2.49-5.21-1.8-3.38-2.54-7.01-3.24-10.27-.69-3.29-1.34-6.35-2.08-9.1-.73-2.76-1.53-5.21-2.31-7.34-.75-2.13-1.65-3.89-2.02-5.48-.35-1.58-.54-2.79-.7-3.62-.06-.38-.12-.69-.16-.94-.03-.21-.04-.32-.03-.33Z"/></g><g><path class="cls-7" d="M70.73,445.13c-6.73-4.05-8.6-16.24-5.74-23.56,2.86-7.32,7.83-13.99,8.63-21.8,.62-6.01-1.31-12.19,.12-18.05,1.93-7.92,9.71-14.01,9.66-22.16-.02-4.57-2.6-8.89-2.37-13.46,.29-5.6,4.61-10.02,7.3-14.94,4.12-7.53,4.44-16.46,5.88-24.92,1.44-8.46,4.72-17.51,12.25-21.64,1.07,7.2,2.93,12.13,2.28,21.87-.23,3.5-4.34,10.17-4.93,17.84-.36,4.58-.61,9.17-.92,13.75-.3,4.46-.61,9-2.24,13.17-1.24,3.19-3.23,6.09-4.16,9.39-1.75,6.2,.46,12.95-.95,19.24-1.2,5.33-4.92,9.9-5.7,15.3-1.1,7.59,3.77,15.52,1.21,22.75-1.27,3.59-4.25,6.46-5.11,10.17-.67,2.88,.03,5.93-.58,8.83-.98,4.66-9.89,8.23-14.64,7.92"/><path class="cls-11" d="M104.57,291.73s0,.14-.03,.41c-.04,.3-.09,.69-.16,1.18-.16,1.04-.34,2.56-.71,4.53-.39,1.98-1.42,4.21-2.25,6.89-.88,2.68-1.75,5.77-2.53,9.23-.79,3.46-1.46,7.29-2.16,11.41-.72,4.09-1.46,8.61-3.53,12.9-.96,2.15-2.03,4.31-2.84,6.6-.83,2.29-1.22,4.75-1.47,7.29-.38,5.09-1.09,10.39-2.07,15.72-2.13,10.64-4.16,20.78-6,30.01-1.94,9.19-3.69,17.47-5.16,24.44-1.49,6.92-2.69,12.53-3.54,16.46-.42,1.91-.76,3.4-.99,4.47-.11,.48-.2,.86-.28,1.16-.07,.26-.1,.39-.12,.39-.01,0,0-.14,.05-.4,.05-.3,.12-.69,.21-1.17,.21-1.07,.5-2.58,.87-4.5,.8-3.94,1.93-9.57,3.33-16.51,1.43-6.98,3.14-15.27,5.02-24.47,1.83-9.22,3.84-19.36,5.95-30,.98-5.34,1.69-10.55,2.08-15.67,.25-2.55,.66-5.09,1.51-7.43,.84-2.35,1.92-4.51,2.88-6.64,2.06-4.22,2.8-8.64,3.55-12.74,.72-4.12,1.42-7.96,2.24-11.42,.81-3.47,1.72-6.57,2.63-9.24,.87-2.7,1.94-4.9,2.35-6.83,.4-1.93,.62-3.47,.83-4.5,.09-.49,.17-.87,.22-1.17,.05-.26,.09-.4,.1-.4Z"/></g></g></g></g><g id="Chart"><g><rect class="cls-7" x="402.47" y="287.76" width="6.97" height="22.52"/><rect class="cls-7" x="415.3" y="278.49" width="6.97" height="31.78"/><rect class="cls-7" x="428.95" y="274.16" width="6.97" height="36.11"/><rect class="cls-7" x="442.61" y="269.6" width="6.97" height="40.68"/></g></g><g id="Gears"><g><path class="cls-11" d="M167.52,316.97s.57,.04,1.5,.47c.91,.42,2.19,1.34,2.99,3.02,.39,.83,.65,1.83,.61,2.92-.05,1.08-.33,2.24-1,3.27-.32,.52-.73,1-1.22,1.42-.48,.42-1.04,.78-1.65,1.05-1.21,.55-2.65,.7-4.03,.4-1.38-.32-2.62-1.07-3.48-2.08-.44-.5-.79-1.06-1.04-1.65-.26-.58-.43-1.2-.5-1.8-.17-1.22,.07-2.39,.49-3.39,.43-1,1.09-1.79,1.8-2.38,1.43-1.18,2.99-1.46,3.99-1.46,1.02,0,1.55,.22,1.55,.22,0,.04-.55-.11-1.55-.07-.98,.04-2.47,.36-3.83,1.51-.66,.57-1.29,1.34-1.69,2.3-.39,.95-.6,2.08-.43,3.23,.07,.58,.23,1.15,.48,1.7,.24,.56,.57,1.09,.99,1.56,.82,.96,1.99,1.66,3.29,1.96,1.31,.28,2.66,.15,3.81-.37,.58-.25,1.11-.58,1.56-.98,.46-.39,.86-.84,1.16-1.34,.64-.97,.93-2.08,.99-3.1,.05-1.03-.19-2-.54-2.8-.73-1.62-1.95-2.55-2.82-3-.89-.46-1.45-.55-1.43-.6Z"/><path class="cls-11" d="M172.6,310.19s0-.07-.01-.22c0-.17,0-.39-.02-.68,0-.62-.02-1.51-.04-2.67l.05,.06c-1.48-.32-3.42-.75-5.77-1.26l.1-.05c-.46,.98-.97,2.07-1.52,3.23l-.03,.06h-.07c-1.2,.05-2.47,.26-3.76,.67l-.07,.02-.05-.05c-.79-.78-1.65-1.63-2.54-2.51l.16,.02c-1.57,1-3.23,2.06-4.98,3.17l.06-.17c.37,1.04,.78,2.19,1.2,3.36l.03,.09-.06,.07c-.8,.87-1.58,1.93-2.19,3.12l-.04,.08h-.1c-1.11,0-2.33,0-3.57,.01l.16-.13c-.4,1.81-.84,3.76-1.29,5.77l-.09-.19c1,.48,2.11,1,3.22,1.53l.09,.04v.1c.05,1.19,.26,2.49,.66,3.75l.03,.1-.08,.08c-.79,.79-1.65,1.66-2.52,2.53l.02-.22c1,1.58,2.07,3.27,3.16,4.99l-.21-.07c1.06-.38,2.21-.79,3.36-1.2l.1-.04,.08,.07c.89,.82,1.95,1.59,3.11,2.19h0c.04,.07-.1-.16,.1,.16h0v1.79c0,.6,0,1.19,0,1.78l-.14-.18c1.95,.44,3.87,.87,5.76,1.29l-.2,.1c.52-1.08,1.03-2.16,1.53-3.22l.05-.1h.11c1.29-.05,2.55-.28,3.75-.65l.1-.03,.08,.08c.85,.85,1.7,1.69,2.53,2.52l-.21-.02c1.7-1.08,3.37-2.13,4.99-3.16l-.07,.2c-.4-1.14-.8-2.26-1.19-3.36l-.03-.09,.07-.07c.89-.95,1.62-2.01,2.2-3.11l.04-.08h.09c1.22,0,2.41,0,3.57,0l-.15,.12c.46-2.03,.89-3.94,1.31-5.76l.08,.16c-1.13-.54-2.2-1.05-3.22-1.54l-.07-.03v-.08c-.05-1.36-.29-2.61-.65-3.76l-.02-.07,.05-.05c.92-.92,1.75-1.74,2.53-2.52v.13c-1.23-1.94-2.27-3.59-3.15-5l.1,.03c-1.35,.47-2.45,.85-3.37,1.18h-.06c-.95-.9-1.75-1.44-2.29-1.78l-.61-.37c-.14-.08-.21-.12-.2-.12,0,0,.08,.03,.22,.1,.14,.07,.35,.18,.63,.35,.55,.33,1.37,.85,2.34,1.73h-.06c.92-.34,2.02-.74,3.36-1.23l.06-.02,.04,.06c.9,1.41,1.95,3.05,3.18,4.98l.05,.07-.06,.06c-.78,.78-1.6,1.62-2.51,2.54l.03-.12c.37,1.17,.62,2.44,.68,3.82l-.07-.11c1.03,.48,2.09,.99,3.23,1.52l.1,.05-.02,.11c-.41,1.82-.83,3.74-1.28,5.77l-.03,.12h-.12c-1.16,0-2.34,0-3.57,.01l.14-.08c-.59,1.13-1.34,2.21-2.24,3.19l.03-.17c.39,1.1,.79,2.22,1.2,3.36l.04,.13-.11,.07c-1.62,1.03-3.28,2.09-4.99,3.17l-.12,.07-.1-.1c-.83-.83-1.68-1.67-2.53-2.52l.18,.04c-1.23,.39-2.52,.62-3.84,.67l.15-.1c-.5,1.06-1.01,2.14-1.53,3.22l-.06,.13-.14-.03c-1.89-.42-3.82-.85-5.76-1.29l-.14-.03v-3.69h0v-.02h0c.2,.32,.05,.09,.1,.16h0c-1.19-.62-2.28-1.4-3.18-2.25l.18,.04c-1.15,.41-2.3,.82-3.36,1.2l-.14,.05-.08-.12c-1.09-1.72-2.16-3.41-3.16-4.99l-.08-.12,.1-.1c.87-.87,1.73-1.74,2.52-2.53l-.04,.18c-.41-1.29-.62-2.62-.67-3.84l.1,.15c-1.12-.53-2.22-1.06-3.22-1.53l-.12-.06,.03-.13c.45-2,.89-3.95,1.3-5.76l.03-.13h.13c1.24,0,2.46,0,3.57,0l-.14,.08c.63-1.21,1.42-2.29,2.25-3.18l-.03,.15c-.42-1.18-.82-2.32-1.19-3.37l-.04-.11,.1-.06c1.75-1.11,3.42-2.16,5-3.15l.09-.06,.07,.07c.89,.89,1.74,1.74,2.52,2.53l-.12-.03c1.31-.41,2.61-.61,3.83-.65l-.09,.06c.56-1.16,1.08-2.24,1.54-3.22l.03-.07,.07,.02c2.34,.54,4.28,.99,5.76,1.33h.05v.06c-.01,1.15-.02,2.03-.02,2.65,0,.29,0,.52-.01,.68,0,.15,0,.23-.01,.24Z"/></g><g><path class="cls-8" d="M161.72,265.33c1.28,.67,2.45,1.49,3.48,2.45l3.72-1.32,3.49,5.52-2.78,2.8c.42,1.34,.67,2.75,.73,4.19l3.56,1.69-1.43,6.37h-3.94c-.67,1.29-1.49,2.46-2.45,3.49l1.32,3.72-5.52,3.49-2.8-2.78c-1.34,.42-2.75,.67-4.19,.73l-1.69,3.56-6.37-1.43v-3.95c-1.29-.67-2.45-1.49-3.49-2.45l-3.72,1.32-3.49-5.52,2.79-2.8c-.42-1.34-.67-2.75-.73-4.19l-3.56-1.69,1.43-6.37h3.94c.67-1.29,1.49-2.45,2.45-3.49l-1.32-3.72,5.52-3.49,2.8,2.79c1.34-.42,2.75-.67,4.19-.73l1.69-3.56,6.37,1.43v3.95h0Zm-5.62,7.5c-3.77-.85-7.52,1.53-8.37,5.3-.85,3.77,1.53,7.52,5.3,8.37,3.78,.85,7.52-1.53,8.37-5.3,.85-3.78-1.53-7.52-5.3-8.37Z"/><g class="cls-15"><path class="cls-4" d="M161.72,265.33c1.28,.67,2.45,1.49,3.48,2.45l3.72-1.32,3.49,5.52-2.78,2.8c.42,1.34,.67,2.75,.73,4.19l3.56,1.69-1.43,6.37h-3.94c-.67,1.29-1.49,2.46-2.45,3.49l1.32,3.72-5.52,3.49-2.8-2.78c-1.34,.42-2.75,.67-4.19,.73l-1.69,3.56-6.37-1.43v-3.95c-1.29-.67-2.45-1.49-3.49-2.45l-3.72,1.32-3.49-5.52,2.79-2.8c-.42-1.34-.67-2.75-.73-4.19l-3.56-1.69,1.43-6.37h3.94c.67-1.29,1.49-2.45,2.45-3.49l-1.32-3.72,5.52-3.49,2.8,2.79c1.34-.42,2.75-.67,4.19-.73l1.69-3.56,6.37,1.43v3.95h0Zm-5.62,7.5c-3.77-.85-7.52,1.53-8.37,5.3-.85,3.77,1.53,7.52,5.3,8.37,3.78,.85,7.52-1.53,8.37-5.3,.85-3.78-1.53-7.52-5.3-8.37Z"/></g></g><g><path class="cls-8" d="M138.68,302.87c.74,.39,1.42,.87,2.03,1.43l2.16-.77,2.03,3.21-1.62,1.63c.25,.78,.39,1.6,.43,2.44l2.07,.99-.83,3.71h-2.3c-.39,.75-.87,1.43-1.43,2.03l.77,2.16-3.21,2.03-1.63-1.62c-.78,.25-1.6,.39-2.44,.42l-.98,2.07-3.71-.83v-2.3c-.75-.39-1.43-.87-2.03-1.43l-2.16,.77-2.03-3.21,1.62-1.63c-.25-.78-.39-1.6-.43-2.44l-2.07-.99,.83-3.71h2.3c.39-.75,.87-1.43,1.43-2.03l-.77-2.16,3.21-2.03,1.63,1.62c.78-.25,1.6-.39,2.44-.43l.99-2.07,3.71,.83v2.3h0Zm-3.27,4.36c-2.2-.49-4.38,.89-4.87,3.09-.49,2.2,.89,4.38,3.09,4.87,2.2,.49,4.38-.89,4.87-3.09,.49-2.2-.89-4.38-3.09-4.87Z"/><g class="cls-14"><path class="cls-4" d="M138.68,302.87c.74,.39,1.42,.87,2.03,1.43l2.16-.77,2.03,3.21-1.62,1.63c.25,.78,.39,1.6,.43,2.44l2.07,.99-.83,3.71h-2.3c-.39,.75-.87,1.43-1.43,2.03l.77,2.16-3.21,2.03-1.63-1.62c-.78,.25-1.6,.39-2.44,.42l-.98,2.07-3.71-.83v-2.3c-.75-.39-1.43-.87-2.03-1.43l-2.16,.77-2.03-3.21,1.62-1.63c-.25-.78-.39-1.6-.43-2.44l-2.07-.99,.83-3.71h2.3c.39-.75,.87-1.43,1.43-2.03l-.77-2.16,3.21-2.03,1.63,1.62c.78-.25,1.6-.39,2.44-.43l.99-2.07,3.71,.83v2.3h0Zm-3.27,4.36c-2.2-.49-4.38,.89-4.87,3.09-.49,2.2,.89,4.38,3.09,4.87,2.2,.49,4.38-.89,4.87-3.09,.49-2.2-.89-4.38-3.09-4.87Z"/></g></g></g><g id="Character"><g><g><g><path class="cls-11" d="M359.53,266.07c4.21-1.09,7.33-5.4,7.06-9.74-.12-1.96-.85-3.86-.77-5.82,.13-3.04,2.15-5.61,3.67-8.25,1.52-2.64,2.54-6.12,.77-8.59-1.15-1.61-3.18-2.33-4.57-3.73-1.36-1.37-2.01-3.27-2.74-5.06-.73-1.79-1.67-3.64-3.35-4.59s-4.25-.53-4.94,1.28"/><path class="cls-11" d="M341.37,216.74c3-1.9,3.72-6.31,2.1-9.47-1.62-3.15-5.07-5.07-8.57-5.64-5.07-.82-10.49,.98-14.07,4.66-1.93,1.99-3.5,4.59-6.12,5.5-2.3,.8-4.85,.08-7.27,.39-3.24,.42-6.02,2.73-7.69,5.54-1.66,2.82-2.35,6.1-2.73,9.35-.35,2.98-.59,6.25-2.65,8.43-2.02,2.12-5.2,2.57-7.71,4.08-4.72,2.84-6.25,9.87-3.13,14.41,.99,1.45,2.42,2.78,2.53,4.53,.11,1.6-.93,3.02-1.41,4.55-1.25,3.93,1.97,8.61,6.09,8.85,2.08,.12,4.31-.69,6.17,.24,1.85,.92,2.54,3.16,3.73,4.85,2.33,3.34,7.2,4.6,10.86,2.8,1.53-.75,2.97-1.99,4.68-1.87,1.7,.11,3.03,1.56,4.7,1.89,2.19,.42,4.26-1.19,5.56-2.99,1.3-1.81,2.21-3.94,3.87-5.42,2.18-1.94,5.24-2.42,7.99-3.37,6.08-2.09,11.17-6.92,13.57-12.89,2.41-5.97,2.09-12.97-.84-18.7"/><g><g><path class="cls-6" d="M347.95,220.67c2.47,.27,4.33,2.38,4.27,4.87h0l-2.86,64.67c-.12,7.64-11.28,11.93-19.46,11.74h0c-8.26-.19-8.52-4.24-8.63-11.51-.17-12.14-.16-16.7-.16-16.63,0,0-10.43-1.76-12.56-15.38-1.06-6.77-.7-17.87-.1-26.95,.53-8.17,5.97-18.18,14.1-17.3l25.4,6.48Z"/><g><path class="cls-11" d="M311.44,240.3c-.03,.92,.72,1.71,1.68,1.77,.96,.05,1.77-.65,1.8-1.57,.03-.92-.72-1.71-1.68-1.77-.96-.05-1.77,.65-1.81,1.57Z"/><path class="cls-11" d="M310.84,237.27c.22,.23,1.54-.75,3.42-.74,1.88-.02,3.25,.95,3.46,.72,.1-.1-.12-.51-.72-.95-.59-.44-1.6-.86-2.77-.86-1.17,0-2.16,.43-2.72,.87-.58,.44-.78,.85-.67,.96Z"/></g><g><path class="cls-11" d="M330.17,240.3c-.03,.92,.72,1.71,1.68,1.77,.96,.05,1.77-.65,1.8-1.57,.03-.92-.72-1.71-1.68-1.77-.96-.05-1.77,.65-1.8,1.57Z"/><path class="cls-11" d="M329.31,237.66c.22,.23,1.54-.75,3.42-.74,1.88-.02,3.25,.95,3.46,.72,.1-.1-.12-.51-.72-.95-.59-.44-1.6-.86-2.77-.86-1.17,0-2.16,.43-2.72,.87-.58,.44-.78,.85-.67,.96Z"/></g><path class="cls-11" d="M322.46,251.58c0-.11-1.16-.31-3.05-.56-.48-.05-.93-.15-1.01-.47-.11-.35,.09-.86,.32-1.42,.45-1.16,.93-2.38,1.43-3.65,1.98-5.2,3.42-9.47,3.21-9.55-.21-.08-1.99,4.07-3.97,9.27-.48,1.28-.93,2.5-1.37,3.67-.18,.54-.5,1.16-.25,1.88,.13,.36,.48,.62,.79,.7,.31,.09,.58,.1,.81,.11,1.9,.11,3.09,.12,3.09,.01Z"/><path class="cls-1" d="M321.11,273.81s9.16,.61,18.24-4.82c0,0-4.62,9.6-18.24,8.3v-3.47Z"/><path class="cls-7" d="M323.24,256.11c.68-.89,1.86-1.38,3.04-1.25,.82,.09,1.64,.48,2.13,1.15,.49,.66,.6,1.61,.14,2.24-.51,.71-1.57,.87-2.46,.62-.9-.26-1.67-.85-2.4-1.44-.2-.16-.41-.33-.54-.56-.13-.22-.15-.51,0-.7"/><path class="cls-11" d="M327.99,252.89c-.31-.02-.31,2.02-2.06,3.46-1.75,1.45-3.92,1.21-3.94,1.5-.03,.13,.48,.4,1.4,.42,.9,.03,2.22-.25,3.29-1.14,1.07-.89,1.53-2.07,1.6-2.91,.08-.85-.15-1.36-.29-1.35Z"/></g><path class="cls-11" d="M328.47,234.37c.18,.51,2.06,.27,4.26,.54,2.21,.23,3.99,.88,4.28,.42,.13-.22-.18-.7-.9-1.2-.71-.5-1.85-.97-3.17-1.12-1.32-.15-2.54,.06-3.34,.38-.81,.32-1.22,.72-1.14,.97Z"/><path class="cls-11" d="M311.54,231.83c.33,.43,1.62-.01,3.18-.03,1.56-.07,2.87,.29,3.18-.15,.13-.22-.07-.64-.65-1.05-.57-.4-1.51-.73-2.58-.71-1.07,.03-2,.42-2.54,.85-.55,.44-.73,.88-.59,1.09Z"/></g><path class="cls-11" d="M339.01,216.24c3.12-2.1,7.16-3.06,10.79-2.02,3.63,1.04,6.64,4.32,6.77,8.02,.08,2.41-.96,4.96,.11,7.13,1.02,2.06,3.52,2.9,5.29,4.4,2.79,2.35,3.61,6.65,1.88,9.82-1.49,2.73-4.61,4.73-4.87,7.81-.25,2.9,2.2,5.35,2.79,8.2,.66,3.14-1.08,6.4-3.58,8.48-2.49,2.09-5.65,3.23-8.73,4.34-2.4,.87-4.98,1.74-7.47,1.18-2.97-.67-5.19-3.43-5.6-6.39-.41-2.96,.81-5.99,2.84-8.22,1.75-1.93,4.2-3.56,4.62-6.1,.65-3.96-4.06-7.21-3.77-11.21,.15-2.06,1.6-3.77,2.82-5.47,1.21-1.7,2.27-3.83,1.52-5.77-.97-2.52-4.27-3.17-6.27-5.02-1.67-1.54-2.35-4.04-1.67-6.19,.67-2.15,2.67-3.85,4.94-4.21"/><path class="cls-11" d="M340.47,213.17c.01,2.73-1.25,5.43-3.34,7.18-2.09,1.75-4.97,2.51-7.65,2.02-2.08-.38-4.36-1.43-6.16-.32-1.89,1.17-1.97,4.02-3.65,5.48-2.4,2.08-6.22,.13-9.26,1.03-2.35,.7-3.82,2.95-5.39,4.84-1.56,1.89-3.9,3.69-6.26,2.99,.15-2.12,.3-4.25,.93-6.28,.63-2.03,1.79-3.96,3.57-5.12,.97-.63,2.1-1.02,3.01-1.75,1.95-1.58,2.41-4.32,3.61-6.52,1.55-2.84,4.56-4.83,7.78-5.16,2.68-.27,5.44,.53,8.05-.13,1.93-.49,3.62-1.74,5.57-2.11,3.81-.72,7.35,2.01,10.11,4.73"/></g><path class="cls-10" d="M365.34,245.72c-.07-.02,.4-.52,.3-1.57-.08-1.03-.94-2.49-2.74-3.13-.87-.35-1.89-.56-2.99-.81-1.1-.26-2.32-.59-3.39-1.4-1.1-.79-1.7-2.24-1.76-3.64-.09-1.42,.14-2.85,.21-4.29,.03-.72,.01-1.42-.11-2.09-.14-.67-.41-1.27-.8-1.79-.82-1.02-2.1-1.47-3.28-1.88-1.2-.38-2.37-.82-3.34-1.44-.98-.6-1.8-1.3-2.46-2.01-1.33-1.43-2.03-2.87-2.4-3.88-.18-.51-.3-.91-.35-1.19-.06-.28-.08-.43-.06-.43,.05-.01,.18,.57,.6,1.55,.42,.97,1.16,2.35,2.48,3.7,1.31,1.38,3.24,2.58,5.69,3.25,1.18,.4,2.57,.85,3.52,2.01,.45,.58,.76,1.28,.91,2.01,.13,.73,.15,1.48,.12,2.22-.08,1.48-.3,2.89-.22,4.23,.07,1.33,.57,2.57,1.55,3.3,.96,.74,2.12,1.08,3.2,1.36,1.09,.27,2.13,.5,3.03,.89,.9,.38,1.66,.93,2.11,1.58,.46,.64,.66,1.32,.69,1.87,.03,.56-.11,.98-.25,1.23-.13,.26-.25,.36-.26,.35Z"/><path class="cls-10" d="M285.15,254.22s-.08-.03-.22-.1c-.14-.08-.34-.24-.51-.52-.34-.56-.36-1.64,.28-2.69,.3-.53,.79-1.05,1.46-1.39,.65-.35,1.4-.62,2.19-.92,.78-.31,1.62-.66,2.29-1.3,.67-.64,1.09-1.56,1.31-2.58,.23-1.02,.3-2.14,.48-3.3,.17-1.15,.54-2.41,1.35-3.43,1.59-2.09,4.18-3.2,6.12-5.16,.95-.99,1.67-2.23,2.13-3.61,.47-1.37,.73-2.85,.96-4.36,.42-2.99,.85-6.34,2.86-9.08,.98-1.36,2.48-2.36,4.11-2.65,1.62-.32,3.23-.08,4.74,.12,1.52,.21,3.01,.44,4.43,.26,1.43-.16,2.69-.85,3.62-1.87,1.86-2,2.93-4.7,5.21-6.08,2.21-1.37,4.79-1.54,6.88-.95,2.12,.59,3.68,2.03,4.53,3.52,.88,1.49,1.16,3,1.18,4.2,.02,1.21-.22,2.13-.44,2.72-.22,.59-.4,.87-.4,.87-.03-.01,.12-.31,.3-.91,.18-.59,.39-1.5,.33-2.68-.05-1.17-.35-2.63-1.22-4.06-.85-1.42-2.35-2.77-4.38-3.31-2-.54-4.47-.35-6.55,.96-1.03,.65-1.87,1.62-2.63,2.71-.77,1.08-1.47,2.28-2.47,3.34-.5,.53-1.07,1.01-1.74,1.36-.67,.33-1.4,.59-2.16,.67-1.52,.19-3.05-.04-4.56-.25-1.51-.2-3.07-.42-4.57-.12-1.5,.27-2.86,1.18-3.79,2.46-.94,1.27-1.54,2.76-1.95,4.27-.41,1.51-.59,3.05-.83,4.57-.23,1.52-.5,3.02-1,4.45-.48,1.42-1.24,2.74-2.25,3.78-2.05,2.03-4.63,3.12-6.12,5.08-.76,.96-1.11,2.1-1.3,3.24-.19,1.13-.27,2.26-.52,3.32-.23,1.05-.7,2.06-1.44,2.74-.74,.69-1.62,1.03-2.41,1.33-.8,.29-1.54,.54-2.18,.87-.64,.31-1.09,.79-1.4,1.28-.63,.99-.65,2-.36,2.53,.31,.53,.67,.64,.64,.67Z"/></g><g><path class="cls-7" d="M251.74,347.95l24.15-2.21s14.86-39.15,33.18-48.64l11.87,20.73-25.41,47.73h-49.61l5.81-17.61Z"/><path class="cls-13" d="M251.74,347.95l24.15-2.21s14.86-39.15,33.18-48.64l11.87,20.73-25.41,47.73h-49.61l5.81-17.61Z"/><path class="cls-5" d="M261.28,359.01c-.12-.07,.79-1.83,2.04-3.91,1.25-2.09,2.36-3.72,2.48-3.64,.12,.07-.79,1.82-2.04,3.91-1.25,2.09-2.36,3.72-2.48,3.64Z"/><path class="cls-5" d="M278.39,358.53c-.11,.09-1.43-1.37-2.95-3.26-1.52-1.89-2.66-3.49-2.55-3.58,.11-.09,1.43,1.37,2.95,3.26,1.52,1.89,2.66,3.49,2.54,3.58Z"/><path class="cls-5" d="M281.36,349.56c-.14,0-.26-1.42-.26-3.17s.12-3.17,.26-3.17,.26,1.42,.26,3.17-.12,3.17-.26,3.17Z"/><path class="cls-5" d="M272.86,363.55c-.08,.12-1.11-.42-2.31-1.2-1.2-.78-2.1-1.51-2.02-1.63,.08-.12,1.11,.42,2.31,1.2,1.2,.78,2.1,1.51,2.02,1.63Z"/><path class="cls-5" d="M286.73,327.57c.13,.06-.62,2.01-1.67,4.36-1.05,2.35-2.01,4.21-2.14,4.15-.13-.06,.62-2.01,1.67-4.36,1.05-2.35,2.01-4.21,2.14-4.15Z"/><path class="cls-5" d="M296.52,311.71c.09,.11-.78,.92-1.93,1.79-1.15,.87-2.16,1.49-2.24,1.37-.09-.11,.78-.92,1.93-1.79,1.15-.87,2.16-1.49,2.24-1.37Z"/><path class="cls-7" d="M332.64,362.47l12.46-50.31c2.17-8.76,10.77-14.33,19.65-12.73h0c9.14,1.65,15.3,10.29,13.88,19.46l-7.63,49.17c-1.87,10.3-10.06,18.29-20.41,19.9l-9.9,1.54-8.04-27.04Z"/><path class="cls-11" d="M371.9,296.18c-.06,.12-1.39-1.51-4.44-2.23-1.5-.35-3.38-.43-5.36,.04-1.98,.46-4.01,1.53-5.83,3.04-3.65,3.06-5.64,7.04-6.99,9.82-.67,1.41-1.18,2.58-1.54,3.38-.36,.8-.57,1.24-.61,1.22-.03-.01,.12-.48,.42-1.3,.31-.82,.76-2.01,1.39-3.45,.64-1.44,1.45-3.14,2.56-4.91,1.11-1.77,2.56-3.6,4.43-5.16,1.87-1.55,3.98-2.65,6.05-3.11,2.07-.46,4.02-.33,5.56,.07,1.54,.42,2.68,1.08,3.37,1.63,.35,.28,.6,.51,.76,.68,.16,.17,.24,.26,.22,.28Z"/><path class="cls-11" d="M301.33,307.5s-.11,.17-.35,.47c-.28,.34-.63,.76-1.07,1.28-.92,1.11-2.24,2.73-3.74,4.83-2.98,4.16-6.73,10.39-8.5,18.05-1.74,7.67-1.82,14.85-2.12,20-.12,2.58-.25,4.67-.36,6.11-.06,.67-.11,1.22-.15,1.66-.04,.38-.07,.58-.09,.58-.02,0-.02-.2-.02-.58,.01-.44,.03-.99,.05-1.66,.05-1.51,.11-3.59,.19-6.11,.2-5.14,.22-12.35,1.98-20.1,1.8-7.77,5.65-14.02,8.71-18.15,1.55-2.08,2.91-3.67,3.88-4.74,.48-.54,.88-.94,1.14-1.21,.27-.27,.41-.41,.43-.4Z"/><path class="cls-7" d="M381.15,307.39c-1.37-9-6.34-11.16-11.48-13.96-1.68-.92-9.79-3-16.22-4.57-.61-3.9-1.71-10.87-1.96-12.34-.34-2.07-32.76,3.1-33.17,3.88-.27,.51-1.02,8.59-1.49,13.98l-7.76,2.71-10.13,12.88-5.27,7.49c-3.06,4.34-5.38,9.19-6.53,14.37-1.28,5.73-1.45,11.33-1.45,17.42l-1.57,33.03,67.83,19.18,5.25-33.45,17.5-23.82c1.49-9.63,8.13-25.73,6.45-36.79Z"/><path class="cls-11" d="M323.26,295.42c-.07,0-.24-.87-.45-2.29-.21-1.42-.47-3.39-.72-5.57-.12-1.08-.23-2.11-.34-3.08-.09-.94-.21-1.8-.18-2.54,.02-.74,.23-1.35,.48-1.69,.26-.34,.49-.43,.5-.41,.03,.03-.15,.18-.33,.52-.18,.34-.31,.89-.29,1.59,.02,.69,.17,1.54,.29,2.49,.12,.97,.24,1.99,.38,3.07,.25,2.18,.45,4.16,.57,5.59s.16,2.33,.09,2.33Z"/><path class="cls-11" d="M331.91,293.38c-.06,.02-.37-.77-.72-2.1-.35-1.32-.72-3.19-.91-5.27-.19-2.09-.17-3.99-.07-5.35,.1-1.37,.26-2.2,.33-2.19,.16,.01-.13,3.38,.26,7.5,.37,4.12,1.27,7.37,1.12,7.42Z"/><path class="cls-11" d="M348.01,291.04c-.17-.02,.55-3.38-.18-7.46-.68-4.09-2.49-7.01-2.34-7.09,.05-.03,.57,.65,1.19,1.88,.62,1.23,1.3,3.03,1.66,5.12,.36,2.08,.33,4.01,.16,5.38-.17,1.37-.43,2.19-.49,2.17Z"/><path class="cls-5" d="M301.95,320.46c-.12-.08,1.01-2.01,2.66-4.2,1.65-2.2,3.19-3.82,3.29-3.73,.11,.1-1.24,1.85-2.87,4.04-1.64,2.18-2.95,3.97-3.07,3.89Z"/><path class="cls-5" d="M317.23,308.03c-.11,.09-1.32-1.3-2.7-3.1-1.38-1.8-2.4-3.33-2.28-3.42,.11-.09,1.32,1.3,2.7,3.1,1.37,1.8,2.4,3.33,2.28,3.42Z"/><path class="cls-5" d="M333.19,300.22c.09,.11-1.4,1.48-3.19,3.23-1.79,1.74-3.2,3.2-3.31,3.11-.11-.09,1.14-1.72,2.95-3.48,1.8-1.76,3.47-2.96,3.55-2.85Z"/><path class="cls-5" d="M328.71,290.7c-.1,.11-1.21-.75-2.49-1.91-1.28-1.16-2.24-2.19-2.14-2.29,.1-.11,1.21,.75,2.49,1.91,1.28,1.16,2.24,2.19,2.14,2.29Z"/><path class="cls-5" d="M342.7,283.24c.03,.14-1.48,.58-3.37,.99-1.89,.4-3.44,.62-3.48,.48-.03-.14,1.48-.58,3.37-.99,1.89-.4,3.44-.62,3.47-.48Z"/><path class="cls-5" d="M345.5,305.39c-.14,0-.34-1.55-.44-3.49-.1-1.93-.06-3.51,.08-3.51,.14,0,.34,1.55,.44,3.49,.1,1.93,.06,3.51-.08,3.51Z"/><path class="cls-5" d="M340.4,316.04c-.14,.05-.92-1.76-1.75-4.04-.83-2.28-1.4-4.17-1.26-4.22,.13-.05,.92,1.76,1.75,4.04,.83,2.28,1.4,4.17,1.26,4.22Z"/><path class="cls-5" d="M326.54,323.55c-.13,.05-1-1.84-1.92-4.23-.93-2.39-1.57-4.37-1.44-4.42,.13-.05,1,1.84,1.92,4.23,.93,2.39,1.57,4.37,1.44,4.42Z"/><path class="cls-5" d="M313.5,332.06c-.14,.03-.64-1.85-1.12-4.19-.48-2.34-.75-4.27-.61-4.3,.14-.03,.64,1.85,1.12,4.19,.48,2.34,.75,4.27,.61,4.29Z"/><path class="cls-5" d="M298,332.4c-.13,.06-1.07-1.6-2.09-3.71-1.03-2.11-1.76-3.87-1.63-3.93,.13-.06,1.07,1.6,2.09,3.71,1.03,2.11,1.76,3.87,1.63,3.93Z"/><path class="cls-5" d="M297.67,342.34c.06,.13-1.75,1.16-4.06,2.3-2.31,1.14-4.23,1.96-4.29,1.83-.06-.13,1.75-1.16,4.06-2.3,2.31-1.14,4.23-1.96,4.29-1.83Z"/><path class="cls-5" d="M297.86,358.06c-.13,.05-.86-1.55-1.41-3.64-.56-2.09-.73-3.84-.59-3.86,.15-.02,.54,1.67,1.09,3.73,.55,2.06,1.05,3.72,.91,3.77Z"/><path class="cls-5" d="M294.65,369.1c-.1,.11-1.56-1.07-3.26-2.63-1.71-1.56-3.01-2.91-2.91-3.02,.1-.11,1.56,1.07,3.26,2.64,1.71,1.56,3.01,2.91,2.91,3.02Z"/><path class="cls-5" d="M315.07,361.56c.04,.15-2.26,.81-4.94,1.99-2.69,1.17-4.73,2.41-4.81,2.28-.08-.11,1.86-1.57,4.6-2.76,2.73-1.2,5.12-1.64,5.15-1.51Z"/><path class="cls-5" d="M309.1,356.09c-.14,.05-.79-1.49-1.47-3.42-.68-1.94-1.11-3.55-.98-3.6s.79,1.49,1.47,3.42c.68,1.94,1.11,3.55,.98,3.6Z"/><path class="cls-5" d="M321.21,342.57c.12,.08-1.1,2.24-2.74,4.83-1.63,2.59-3.06,4.63-3.18,4.55-.12-.08,1.1-2.24,2.74-4.83,1.63-2.59,3.06-4.63,3.18-4.55Z"/><path class="cls-5" d="M334.23,343.86c-.11,.08-1.72-1.87-3.32-4.54-1.61-2.67-2.57-5.01-2.44-5.07,.14-.06,1.3,2.16,2.89,4.8,1.58,2.65,3,4.72,2.88,4.81Z"/><path class="cls-5" d="M342.02,331.02c.03,.14-1.66,.57-3.81,.68-2.14,.11-3.87-.16-3.86-.3,.01-.15,1.73-.12,3.83-.22,2.1-.1,3.81-.3,3.83-.16Z"/><path class="cls-5" d="M360.53,316.39c.06,.13-2.13,1.3-4.9,2.62-2.77,1.32-5.06,2.28-5.13,2.15-.06-.13,2.13-1.3,4.9-2.62,2.77-1.32,5.06-2.28,5.13-2.15Z"/><path class="cls-5" d="M361.76,307.09c-.13-.06,.66-1.91,1.75-4.12,1.1-2.21,2.09-3.96,2.22-3.89,.13,.06-.66,1.91-1.75,4.12-1.1,2.21-2.09,3.95-2.22,3.89Z"/><path class="cls-5" d="M373.52,314.39c-.14,.03-.73-2.03-1.52-4.55-.79-2.52-1.48-4.55-1.34-4.6,.13-.05,1.05,1.91,1.84,4.45,.8,2.54,1.16,4.68,1.02,4.7Z"/><path class="cls-5" d="M375.37,324.07c.05,.13-1.88,.97-4.39,1.6-2.51,.65-4.6,.84-4.62,.7-.02-.15,2.01-.57,4.49-1.21,2.48-.63,4.47-1.24,4.52-1.1Z"/><path class="cls-5" d="M355.21,335.89c-.15-.03,.28-2.46,.4-5.49,.14-3.03-.08-5.49,.07-5.51,.13-.02,.59,2.45,.45,5.53-.12,3.08-.79,5.51-.92,5.47Z"/><path class="cls-5" d="M351.19,348.06c-.09,.1-1.85-1.39-3.66-3.58-1.81-2.18-2.96-4.18-2.84-4.26,.13-.08,1.45,1.77,3.24,3.92,1.78,2.16,3.36,3.8,3.26,3.91Z"/><path class="cls-5" d="M371.4,345.49c.06,.13-1.81,1.04-4.17,2.02-2.36,.99-4.32,1.68-4.37,1.54-.06-.13,1.81-1.04,4.17-2.02,2.36-.98,4.32-1.68,4.37-1.54Z"/><path class="cls-5" d="M364.16,368.39c-.14,0-.24-2.47-.21-5.5,.03-3.04,.17-5.5,.32-5.5,.14,0,.24,2.46,.21,5.5-.03,3.04-.17,5.5-.32,5.5Z"/><path class="cls-5" d="M348.65,367.07c-.14-.02,.11-2.58,.89-5.65,.77-3.08,1.76-5.45,1.88-5.4,.14,.05-.62,2.48-1.38,5.53-.77,3.04-1.24,5.55-1.39,5.53Z"/><path class="cls-5" d="M349.36,373.08c0,.15-2.49,.39-5.52,.9-3.04,.5-5.48,1.07-5.52,.93-.04-.13,2.36-.94,5.43-1.44,3.07-.51,5.6-.52,5.61-.38Z"/><path class="cls-5" d="M332.2,369.23c-.1-.1,1.22-1.64,2.96-3.44,1.74-1.8,3.24-3.18,3.34-3.08,.1,.1-1.22,1.64-2.97,3.44-1.74,1.8-3.24,3.18-3.34,3.08Z"/><path class="cls-5" d="M321.09,380.04c-.15,.03-.59-1.77-1.35-3.91-.75-2.15-1.53-3.83-1.4-3.9,.12-.07,1.12,1.53,1.89,3.72,.77,2.19,.99,4.06,.86,4.09Z"/><path class="cls-5" d="M339.03,386.22c-.06,.13-2.3-.74-5.02-1.94-2.71-1.2-4.86-2.29-4.81-2.42,.06-.13,2.3,.74,5.02,1.94,2.71,1.2,4.86,2.29,4.8,2.42Z"/><path class="cls-5" d="M307.76,384.41c-.14-.05,.28-1.68,.94-3.66,.66-1.98,1.3-3.54,1.43-3.49,.14,.05-.28,1.68-.94,3.66-.66,1.97-1.3,3.54-1.43,3.49Z"/><path class="cls-5" d="M328.36,387.9c-.03,.15-2.87-.31-6.41-.49-3.54-.2-6.41-.04-6.42-.19-.02-.13,2.87-.52,6.45-.33,3.58,.18,6.41,.88,6.38,1.01Z"/><path class="cls-11" d="M332.64,358.41s-.03-.13-.03-.39c0-.26,.02-.65,.16-1.13,.13-.48,.44-1.09,1.09-1.49,.63-.41,1.51-.55,2.44-.4l-.2,.12c1.1-3.83,2.84-9.44,4.59-15.72,1.64-5.88,2.74-11.29,3.52-15.22,.37-1.9,.68-3.47,.92-4.65,.22-1.1,.36-1.7,.4-1.7,.04,0-.04,.62-.2,1.73-.16,1.11-.41,2.71-.75,4.68-.68,3.94-1.74,9.39-3.38,15.29-1.75,6.3-3.57,11.88-4.76,15.68l-.05,.15-.16-.03c-.83-.15-1.66-.05-2.22,.3-.59,.33-.9,.87-1.05,1.31-.3,.91-.25,1.48-.31,1.47Z"/><path class="cls-11" d="M355.06,372.32c-.09,.04-.7-1.31-1.97-3.33-1.27-2.02-3.27-4.66-5.96-7.11-2.7-2.44-5.51-4.19-7.64-5.26-2.13-1.07-3.54-1.56-3.51-1.65,.01-.03,.37,.06,1.01,.27,.65,.19,1.56,.55,2.65,1.05,2.19,.99,5.09,2.72,7.83,5.2,2.73,2.49,4.73,5.21,5.92,7.3,.6,1.04,1.04,1.92,1.3,2.54,.26,.62,.39,.97,.36,.98Z"/><g class="cls-12"><path d="M336.55,354.24c3.82,.27,6.96,.56,10.55,1.91,3.59,1.35,6.91,3.92,8.23,7.52,.32,.86,.47,1.95-.19,2.6-.48,.47-1.26,.53-1.89,.31s-1.16-.68-1.66-1.14c-2.2-2.04-4.49-3.84-6.77-5.8-2.28-1.96-5.58-4.02-8.55-4.47"/></g><path class="cls-11" d="M329.34,347.86s-.35,.26-1.04,.6c-.69,.35-1.74,.78-3.08,1.16-2.66,.78-6.63,1.2-10.78,.12-4.15-1.08-7.42-3.38-9.36-5.35-.98-.99-1.69-1.87-2.12-2.51-.44-.64-.64-1.02-.62-1.03,.08-.06,.99,1.41,3,3.28,1.98,1.87,5.19,4.06,9.23,5.11,4.04,1.05,7.92,.7,10.55,.03,2.66-.66,4.17-1.5,4.21-1.41Z"/><g class="cls-12"><path d="M302.88,341.62c1.68,3.66,3.66,7.35,6.85,9.8,1.84,1.42,3.99,2.61,6.32,2.65,3.34,.06,6.2-2.22,8.75-4.38-8.25,1.29-17.55-2.45-21.92-8.07"/></g><path class="cls-11" d="M339.86,292.62c-.16,0,.03-3.43-.38-7.62-.39-4.19-1.23-7.52-1.07-7.56,.06-.02,.36,.79,.69,2.15,.34,1.35,.7,3.25,.9,5.36,.2,2.12,.21,4.05,.13,5.44-.07,1.39-.21,2.24-.27,2.24Z"/></g><g><path class="cls-7" d="M221.24,426.44s-10.87,2.35-20.57,.89c-9.1-1.36-29.47,.05-29.46,12.04,0,13.37,27.17,10.07,37.77,7.95,10.6-2.12,21.15-4.04,21.15-4.04l-8.89-16.84Z"/><path class="cls-11" d="M196.84,443.57c-.14,.03-.73-2.05-1.31-4.65-.58-2.6-.95-4.74-.8-4.77,.14-.03,.73,2.05,1.31,4.65,.58,2.6,.94,4.74,.8,4.77Z"/><path class="cls-11" d="M200.55,443.75c-.14,.02-.55-2.12-.92-4.77-.36-2.66-.54-4.82-.4-4.84,.14-.02,.55,2.12,.92,4.77,.36,2.65,.54,4.82,.4,4.84Z"/><path class="cls-11" d="M204.13,442.35c-.14,.02-.49-1.85-.77-4.17-.28-2.32-.39-4.21-.25-4.23,.14-.02,.49,1.85,.77,4.17,.28,2.32,.39,4.21,.25,4.23Z"/><path class="cls-11" d="M209.75,440.95c-.13,.05-.9-1.5-1.4-3.58-.51-2.07-.54-3.81-.4-3.82,.15-.01,.41,1.67,.91,3.7,.49,2.03,1.03,3.65,.89,3.7Z"/><path class="cls-11" d="M210.96,436.06s.5-.11,1.42-.09c.91,.03,2.26,.17,3.82,.75,.39,.15,.8,.34,1.18,.63,.37,.29,.72,.75,.74,1.33,.01,1.18-1.29,2.04-2.46,1.79-1.19-.23-2.09-1.1-2.84-2.02-.76-.95-1.3-2.1-1.61-3.34-.6-2.49-.15-5.07,1.2-6.92,.2-.22,.47-.43,.81-.49,.33-.06,.69,.07,.9,.28,.45,.42,.6,.96,.68,1.46,.13,.98,.06,1.91-.14,2.72-.39,1.63-1.21,2.76-1.83,3.43-.32,.33-.6,.56-.79,.7-.2,.14-.31,.2-.32,.19-.03-.04,.38-.34,.96-1.03,.56-.69,1.3-1.81,1.63-3.38,.17-.78,.21-1.66,.08-2.58-.07-.43-.24-.9-.56-1.18-.31-.28-.75-.2-1.05,.18-1.17,1.65-1.63,4.15-1.05,6.49,.29,1.17,.8,2.26,1.5,3.15,.69,.88,1.55,1.68,2.52,1.86,.93,.23,1.96-.5,1.94-1.31,0-.4-.24-.77-.56-1.02-.32-.26-.69-.45-1.05-.6-1.49-.6-2.8-.8-3.7-.89-.9-.08-1.41-.07-1.41-.11Z"/><path class="cls-11" d="M229.05,441.51s-.09,.04-.27,.09c-.21,.05-.48,.12-.82,.2-.76,.17-1.81,.41-3.15,.72-2.74,.6-6.72,1.45-11.66,2.4-4.94,.95-10.84,2.03-17.46,2.93-3.3,.44-6.83,.84-10.49,.52-1.83-.13-3.68-.45-5.49-1.05-.9-.32-1.8-.67-2.64-1.17-.84-.5-1.65-1.04-2.32-1.87l.04,.04c-.34-.32-.69-.7-.95-1.13-1.11-1.78-1.15-3.98-.55-5.85,.61-1.91,1.97-3.44,3.48-4.55,1.53-1.12,3.24-1.9,4.95-2.45,.87-.25,1.71-.54,2.57-.74,.86-.17,1.71-.4,2.56-.52,6.81-1.08,13.01-.53,18.15-.53,2.58,.05,4.91-.02,6.95-.15,2.04-.15,3.79-.39,5.2-.66,.7-.15,1.33-.28,1.87-.39,.52-.15,.97-.28,1.35-.38,.34-.09,.62-.17,.83-.23,.19-.05,.29-.07,.29-.06,0,0-.09,.05-.27,.11-.21,.07-.48,.16-.82,.28-.37,.12-.82,.27-1.34,.43-.55,.13-1.17,.28-1.87,.44-1.42,.3-3.17,.57-5.22,.75-2.05,.15-4.39,.25-6.98,.23-5.16,.04-11.35-.46-18.07,.63-.84,.12-1.67,.35-2.52,.52-.85,.19-1.67,.49-2.53,.73-1.68,.55-3.34,1.32-4.81,2.39-1.45,1.08-2.73,2.53-3.29,4.3-.56,1.75-.51,3.81,.5,5.42,.23,.4,.55,.73,.85,1.02l.02,.02,.02,.03c.55,.68,1.35,1.25,2.15,1.71,.8,.48,1.67,.82,2.54,1.13,1.76,.59,3.58,.9,5.37,1.03,3.6,.32,7.09-.06,10.39-.49,6.6-.87,12.51-1.92,17.45-2.82,4.95-.91,8.93-1.7,11.68-2.24,1.35-.27,2.41-.47,3.17-.62,.34-.06,.61-.11,.83-.15,.19-.03,.28-.04,.28-.04Z"/><path class="cls-11" d="M189.31,447.95c-.08,0-.14-1.06-.26-2.78-.12-1.71-.33-4.08-.67-6.67-.35-2.6-.77-4.93-1.11-6.62-.33-1.69-.55-2.73-.48-2.75,.06-.02,.41,.99,.84,2.67,.43,1.67,.91,4.01,1.26,6.63,.35,2.61,.5,5,.53,6.73,.03,1.73-.04,2.79-.1,2.79Z"/><polygon class="cls-14" points="217.89 427.02 224.78 444.27 230.12 443.28 219.89 426.44 217.89 427.02"/></g><path class="cls-11" d="M307.65,379.74c-1.11,.37-72.28-19.58-101.07-27.67-7.56-2.13-15.67-.9-22.26,3.37l-.35,.22c-9.68,6.26-14.39,17.92-11.77,29.15h0c1.66,7.13,6.1,13.29,12.34,17.12,18.98,11.63,59.15,36.09,60.38,35.62,1.61-.62,51.78-1.92,51.78-1.92l-60.35-43.4,28.71,18.56,42.59-31.03h0Z"/><path class="cls-6" d="M248.23,358.08l15.13-7.83,14.84,9.3,55.55,1.81,8.04,27.04-80.4-18.64s-14.63,1.29-15.73-1.99c-1.1-3.29,2.57-9.7,2.57-9.7Z"/><path class="cls-11" d="M293.74,401.42l-7.48,24.56,.93,7.48h0c13.62,13.73,35.34,15.2,50.68,3.42h0c9.33-7.16,14.77-18.27,14.72-30.03l-.11-25.66-58.74,20.24Z"/><path class="cls-10" d="M249.2,401.58c-.09,.12-8.77-6.21-19.39-14.13-10.62-7.92-19.16-14.44-19.08-14.55,.09-.12,8.77,6.21,19.39,14.14,10.62,7.92,19.16,14.44,19.08,14.55Z"/><path class="cls-1" d="M262.34,355.15c.04,.14-3.27,1.32-7.4,2.64-4.13,1.32-7.52,2.29-7.56,2.15-.04-.14,3.27-1.32,7.4-2.64,4.13-1.32,7.52-2.29,7.56-2.15Z"/><path class="cls-1" d="M263.47,359.76c0,.08-.98,.22-2.58,.48-1.59,.26-3.79,.65-6.18,1.2-2.4,.55-4.54,1.16-6.09,1.62-1.55,.46-2.5,.76-2.53,.69-.02-.06,.89-.49,2.41-1.04,1.52-.55,3.67-1.22,6.09-1.78,2.42-.55,4.64-.89,6.25-1.06,1.61-.17,2.62-.19,2.63-.12Z"/><path class="cls-1" d="M262.2,363.99c.03,.14-3.7,1-8.34,1.92-4.63,.92-8.41,1.55-8.44,1.41-.03-.14,3.7-1,8.34-1.92,4.63-.92,8.41-1.55,8.44-1.41Z"/><g><path class="cls-10" d="M242.58,321.8l13.96,45.92c.16,.53,.63,.9,1.17,.94l38.03,2.85c.69,.05,1.23,.63,1.23,1.33v2.37c0,.74-.61,1.34-1.36,1.33l-103.96-1.95c-.54-.01-1.02-.35-1.22-.86l-18.28-47.9c-.32-.85,.28-1.76,1.18-1.8l67.91-3.18c.61-.03,1.16,.36,1.33,.94Z"/><path class="cls-9" d="M213.28,341.58c-.74,.19-1.91,1.24-2.06,2.34-.14,1.1,.45,2.21,1.34,2.86,1.1,.79,2.68,.89,3.8,.14,1.12-.75,1.62-2.24,1.04-3.84-.46-1.27-2.78-2.15-4.12-1.5"/></g><g><path class="cls-11" d="M230.12,443.28l-10.99-18.08,80.8-63.33c5.03-4.12,11.17-6.64,17.65-7.23h0c20.1-1.83,36.98,14.93,35.3,35.04l-1.29,15.45-53.63,17.24-67.84,20.91Z"/><path class="cls-10" d="M333.74,400.36s-.07,.07-.21,.2c-.17,.14-.39,.32-.66,.54-.62,.49-1.48,1.18-2.57,2.05-.56,.45-1.19,.94-1.87,1.48-.68,.54-1.49,1.04-2.32,1.63-.84,.58-1.74,1.19-2.68,1.84-.48,.32-.96,.67-1.47,1-.52,.31-1.06,.64-1.6,.97-2.2,1.31-4.57,2.81-7.25,4.17-1.33,.7-2.69,1.46-4.13,2.17-1.45,.69-2.94,1.39-4.47,2.12-6.15,2.8-13.04,5.62-20.43,8.14-14.76,5.09-28.4,8.75-38.18,11.71-2.45,.72-4.66,1.4-6.59,2.01-1.94,.6-3.61,1.11-4.96,1.57-1.33,.43-2.38,.77-3.13,1.02-.34,.1-.61,.19-.82,.25-.19,.05-.28,.08-.28,.07,0,0,.09-.05,.27-.12,.21-.08,.47-.18,.8-.3,.74-.27,1.78-.64,3.1-1.11,1.34-.49,3-1.03,4.94-1.66,1.93-.64,4.13-1.34,6.57-2.08,9.75-3.05,23.38-6.77,38.11-11.85,7.37-2.51,14.25-5.31,20.4-8.08,1.53-.72,3.02-1.41,4.46-2.09,1.44-.7,2.79-1.45,4.13-2.14,2.69-1.34,5.06-2.82,7.26-4.1,.55-.32,1.09-.64,1.61-.95,.51-.32,1-.66,1.48-.98,.95-.64,1.86-1.24,2.7-1.8,.84-.57,1.65-1.06,2.33-1.59,.69-.52,1.32-1,1.89-1.44,1.12-.84,2-1.5,2.63-1.97,.28-.21,.51-.37,.69-.5,.16-.11,.24-.16,.25-.16Z"/><path class="cls-10" d="M335.7,408.81s-.28,.18-.82,.43c-.54,.25-1.33,.57-2.32,.94-1.98,.74-4.77,1.61-7.92,2.29-3.16,.68-6.06,1.03-8.17,1.17-1.05,.07-1.91,.1-2.5,.1-.59,0-.92-.02-.92-.05,0-.08,1.3-.18,3.38-.41,2.09-.23,4.96-.64,8.09-1.31,3.13-.67,5.91-1.49,7.91-2.13,2-.64,3.22-1.09,3.25-1.01Z"/><path class="cls-10" d="M296.7,364.91c.09,.11-17.21,13.7-38.62,30.35-21.42,16.65-38.86,30.05-38.95,29.94-.09-.11,17.2-13.7,38.63-30.35,21.42-16.65,38.85-30.05,38.94-29.94Z"/><g><g><path class="cls-7" d="M292.03,432.11c-3.88-2.07-8.23-.85-11.94,.4-2.47,.83-5.03,2.15-7.54,1.44-1.81-.51-3.16-1.98-4.55-3.26-5.58-5.15-13.29-7.96-20.89-7.48-2.16,.14-4.27,1-5.74,2.59-3.81,4.12-.94,9.49,2.47,12.96,6.01,6.12,14.18,10.07,22.71,10.96,7.09,.74,16.84-.24,24.03-3.32,4.43-1.9,6.71-7.13,4.38-11.35-.68-1.23-1.67-2.27-2.94-2.95Z"/><g class="cls-14"><path d="M292.03,435.41c-3.88-2.07-8.23-.85-11.94,.4-2.47,.83-5.03,2.15-7.54,1.44-1.81-.51-3.16-1.98-4.55-3.26-5.58-5.15-13.29-7.96-20.89-7.48-2.16,.14-4.27,1-5.74,2.59-.84,.91-1.34,1.89-1.6,2.89,.56,2.48,2.23,4.9,4.06,6.77,6.01,6.12,14.18,10.07,22.71,10.96,7.09,.74,16.84-.24,24.03-3.32,2.66-1.14,4.54-3.49,5.11-6.09-.15-.66-.38-1.32-.73-1.96-.68-1.23-1.67-2.27-2.94-2.95Z"/></g></g><path class="cls-11" d="M295.7,440.32c-.07,.02-.05-.95-.95-2.3-.45-.66-1.12-1.4-2.07-2.03-.94-.63-2.15-1.18-3.56-1.36-2.88-.34-6.21,.87-9.92,1.88-1.83,.48-3.83,1.23-6.02,.95-1.07-.14-2.14-.49-3.1-1.07-.95-.57-1.82-1.28-2.66-2-3.19-3.12-6.98-5.07-10.6-6.3-1.81-.61-3.59-1.01-5.27-1.22-1.69-.22-3.27-.25-4.69-.03-1.42,.22-2.65,.69-3.63,1.27-.97,.59-1.7,1.27-2.22,1.88-1.03,1.25-1.38,2.1-1.43,2.07,0,0,.27-.88,1.27-2.19,.51-.64,1.23-1.37,2.23-2,1-.62,2.26-1.13,3.72-1.38,1.46-.25,3.09-.24,4.8-.04,1.72,.2,3.53,.59,5.37,1.2,1.85,.6,3.72,1.42,5.56,2.46,.91,.53,1.84,1.08,2.71,1.76,.86,.68,1.68,1.42,2.52,2.14,.84,.72,1.68,1.41,2.59,1.95,.9,.55,1.89,.88,2.9,1.01,2.03,.27,3.97-.43,5.83-.91,3.69-.97,7.08-2.17,10.09-1.78,2.99,.48,4.91,2.27,5.76,3.65,.44,.7,.63,1.33,.72,1.75,.07,.43,.08,.66,.06,.66Z"/><path class="cls-11" d="M295.7,440.32c-.07,.02-.05-.95-.95-2.3-.45-.66-1.12-1.4-2.07-2.03-.94-.63-2.15-1.18-3.56-1.36-2.88-.34-6.21,.87-9.92,1.88-1.83,.48-3.83,1.23-6.02,.95-1.07-.14-2.14-.49-3.1-1.07-.95-.57-1.82-1.28-2.66-2-3.19-3.12-6.98-5.07-10.6-6.3-1.81-.61-3.59-1.01-5.27-1.22-1.69-.22-3.27-.25-4.69-.03-1.42,.22-2.65,.69-3.63,1.27-.97,.59-1.7,1.27-2.22,1.88-1.03,1.25-1.38,2.1-1.43,2.07,0,0,.27-.88,1.27-2.19,.51-.64,1.23-1.37,2.23-2,1-.62,2.26-1.13,3.72-1.38,1.46-.25,3.09-.24,4.8-.04,1.72,.2,3.53,.59,5.37,1.2,1.85,.6,3.72,1.42,5.56,2.46,.91,.53,1.84,1.08,2.71,1.76,.86,.68,1.68,1.42,2.52,2.14,.84,.72,1.68,1.41,2.59,1.95,.9,.55,1.89,.88,2.9,1.01,2.03,.27,3.97-.43,5.83-.91,3.69-.97,7.08-2.17,10.09-1.78,2.99,.48,4.91,2.27,5.76,3.65,.44,.7,.63,1.33,.72,1.75,.07,.43,.08,.66,.06,.66Z"/><path class="cls-11" d="M247.63,439.38c-.04-.06,.71-.6,1.98-1.38,1.27-.78,3.08-1.77,5.13-2.74,2.06-.97,3.98-1.72,5.39-2.21,1.41-.49,2.3-.72,2.32-.65,.02,.07-.82,.42-2.19,1-1.37,.57-3.25,1.37-5.3,2.33-2.04,.96-3.86,1.9-5.18,2.59-1.31,.69-2.13,1.12-2.17,1.05Z"/><path class="cls-11" d="M248.96,443.26c-.06-.13,3.33-1.9,7.57-3.95,4.24-2.05,7.73-3.61,7.8-3.48,.06,.13-3.33,1.9-7.57,3.95-4.24,2.05-7.73,3.61-7.8,3.48Z"/><path class="cls-11" d="M265.02,444.94c-.08,.12-4.21-2.34-9.22-5.5-5.02-3.16-9.02-5.82-8.95-5.94,.08-.12,4.21,2.34,9.22,5.5,5.02,3.16,9.02,5.82,8.95,5.94Z"/><path class="cls-11" d="M267.34,440.92c-.05,.06-.81-.48-2.02-1.35-1.22-.88-2.89-2.09-4.77-3.39-1.88-1.3-3.6-2.45-4.85-3.28-1.25-.83-2.01-1.36-1.97-1.42,.04-.06,.87,.35,2.17,1.11,1.3,.75,3.06,1.85,4.95,3.16,1.88,1.31,3.53,2.57,4.69,3.52,1.16,.95,1.84,1.59,1.8,1.64Z"/></g></g></g></g></svg>