<?xml version="1.0" encoding="UTF-8"?><svg xmlns="http://www.w3.org/2000/svg" viewBox="0 0 750 500"><defs><style>.cls-1{fill:#ebebeb;}.cls-2{fill:#eb996e;}.cls-3{fill:#f5f5f5;}.cls-4{fill:#fff;}.cls-5{fill:#fafafa;}.cls-6{fill:#ffbe9d;}.cls-7{fill:#e8505b;}.cls-8{fill:#e0e0e0;}.cls-9{fill:#455a64;}.cls-10{fill:#263238;}.cls-11{opacity:.2;}.cls-12{opacity:.4;}</style></defs><g id="Background_Complete"><g><path class="cls-3" d="M617.45,292.8c-15.48-13.28-17.1-35.23-14.51-54.55,.43-3.23,.42-6.67,2.24-9.36,1.82-2.69,5.61-4.27,8.37-2.62,2.29,1.37,3.06,4.27,4.17,6.72,1.48,3.26,3.89,6.07,6.87,8.01,1.95,1.28,4.44,2.18,6.59,1.26,2.95-1.26,3.66-5.09,3.96-8.31,.56-6,1.12-12.01,1.68-18.01,.3-3.22,.62-6.51,1.92-9.46,1.31-2.96,3.8-5.57,6.95-6.13,3.15-.55,6.76,1.59,7.09,4.81,.14,1.34-.26,2.67-.31,4.02-.04,1.35,.43,2.89,1.66,3.38,1.25,.51,2.63-.28,3.68-1.12,3.65-2.92,6.32-6.88,8.84-10.84s4.99-8.01,8.36-11.26c3.37-3.24,7.82-5.64,12.45-5.44,4.64,.2,9.26,3.53,9.98,8.18,.72,4.66-2.39,9-5.64,12.38-4.82,5.02-10.36,9.34-16.38,12.77-1.09,.62-2.26,1.29-2.77,2.44-.91,2.08,.91,4.41,2.96,5.33,2.32,1.04,4.95,1.05,7.43,1.59,2.48,.55,5.09,1.92,5.8,4.39,.99,3.42-2.11,6.6-5.04,8.59-5.87,3.98-12.42,6.94-19.27,8.7-2.45,.63-5.02,1.14-7.1,2.62-2.08,1.47-3.52,4.25-2.59,6.63,.93,2.39,3.82,3.41,6.34,3.19,2.53-.21,4.88-1.34,7.33-1.99,4.59-1.23,10.27-.35,12.73,3.75,1.61,2.7,1.43,6.21,.19,9.12-1.24,2.9-3.41,5.29-5.67,7.47-7.92,7.61-17.66,13.4-28.28,15.94-10.62,2.54-20.22,2.55-30.05-2.2"/><path class="cls-8" d="M623.67,281.14c3.83-9.5,8.89-19.57,14.55-29.91,1.42-2.58,2.83-5.13,4.22-7.65,1.39-2.51,2.77-4.99,4.27-7.34,2.98-4.71,6.2-9.01,9.38-13,3.18-3.99,6.35-7.66,9.34-11.07,2.99-3.41,5.84-6.53,8.56-9.26,5.42-5.49,10.31-9.39,13.78-11.93,1.73-1.28,3.11-2.22,4.05-2.85,.45-.3,.81-.53,1.07-.71,.24-.16,.37-.23,.38-.22,0,0-.11,.1-.34,.27-.26,.19-.6,.44-1.04,.76-.92,.66-2.27,1.64-3.98,2.94-3.42,2.6-8.25,6.53-13.62,12.05-2.69,2.74-5.52,5.87-8.49,9.29-2.97,3.42-6.12,7.1-9.28,11.09-3.16,3.99-6.36,8.28-9.31,12.97-1.49,2.34-2.85,4.8-4.24,7.31-1.38,2.51-2.79,5.06-4.21,7.64-5.65,10.34-10.71,20.37-14.56,29.83"/><path class="cls-8" d="M646.87,236.24s-.1-.5-.18-1.4c-.08-.91-.15-2.22-.22-3.85-.14-3.25-.17-7.75-.19-12.7-.02-4.96-.12-9.44-.3-12.68-.09-1.62-.17-2.93-.24-3.84-.06-.91-.08-1.41-.04-1.42,.04,0,.13,.49,.27,1.39,.14,.9,.29,2.21,.43,3.83,.29,3.24,.46,7.74,.48,12.71,0,4.89,.01,9.32,.01,12.7,.01,1.53,.02,2.81,.03,3.85,0,.91-.01,1.41-.05,1.42Z"/><path class="cls-8" d="M689.03,232.63s-.6,.05-1.67,.03c-1.07-.01-2.62-.04-4.54,0-3.83,.03-9.12,.26-14.95,.77-5.83,.52-11.08,1.21-14.87,1.82-1.9,.29-3.42,.57-4.48,.76-1.06,.19-1.64,.28-1.65,.24,0-.04,.56-.2,1.61-.47,1.04-.26,2.56-.6,4.46-.95,3.78-.72,9.04-1.48,14.89-2,5.84-.51,11.16-.67,15-.59,1.92,.02,3.48,.11,4.55,.2,1.07,.09,1.66,.16,1.66,.2Z"/><path class="cls-8" d="M624.25,280.43s-.1-.18-.23-.53c-.15-.42-.34-.94-.56-1.57-.48-1.36-1.12-3.36-1.88-5.83-1.52-4.94-3.41-11.83-5.4-19.46-1.99-7.64-3.81-14.53-5.23-19.5-.7-2.41-1.27-4.4-1.7-5.88-.18-.64-.33-1.17-.45-1.6-.1-.37-.14-.56-.12-.57,.02,0,.1,.18,.23,.53,.15,.42,.34,.94,.56,1.57,.48,1.36,1.12,3.36,1.88,5.83,1.52,4.94,3.41,11.83,5.4,19.47,1.98,7.63,3.81,14.53,5.23,19.5,.7,2.41,1.27,4.4,1.7,5.88,.18,.64,.33,1.17,.45,1.6,.1,.37,.14,.57,.12,.57Z"/><path class="cls-8" d="M681.02,268.19s-.19,.08-.57,.17c-.44,.1-.99,.23-1.65,.38-1.52,.33-3.58,.78-6.08,1.32-5.13,1.12-12.21,2.74-20.02,4.55-7.81,1.81-14.91,3.37-20.07,4.38-2.58,.51-4.67,.89-6.12,1.13-.67,.11-1.22,.19-1.67,.27-.38,.05-.59,.07-.59,.05,0-.02,.19-.08,.57-.17,.44-.1,.99-.22,1.65-.37,1.52-.33,3.58-.78,6.08-1.32,5.13-1.12,12.21-2.74,20.02-4.55,7.81-1.81,14.91-3.37,20.06-4.38,2.58-.51,4.67-.89,6.12-1.13,.67-.11,1.22-.19,1.67-.27,.38-.05,.59-.07,.59-.05Z"/></g><g><path class="cls-8" d="M654.75,152.2c-3.19,.71-6.43-.3-8.65-2.7-2.23-2.41-2.98-5.73-2-8.86l15.53-50c.97-3.14,3.47-5.44,6.67-6.17h.03c3.19-.72,6.43,.29,8.65,2.7l35.54,38.45c2.23,2.41,2.98,5.73,2,8.86-.97,3.14-3.47,5.44-6.67,6.17l-51.07,11.55h-.03Zm12.17-65.08h-.02c-2.25,.51-4,2.13-4.68,4.33l-15.53,50c-.68,2.2-.16,4.52,1.41,6.22,1.56,1.69,3.83,2.39,6.07,1.9h.02l51.07-11.55c2.25-.51,4-2.12,4.68-4.32,.68-2.2,.16-4.52-1.41-6.22l-35.54-38.45c-1.56-1.69-3.83-2.39-6.07-1.89Z"/><path class="cls-8" d="M673.44,132.98c-.42-1.82,.69-3.58,2.67-4.04,1.94-.45,3.67,.67,4.09,2.48,.42,1.82-.64,3.62-2.58,4.06-1.99,.46-3.76-.69-4.18-2.51Zm-5.83-26.65l6.25-1.44,3.5,20.02-4.18,.96-5.57-19.54Z"/></g><g><path class="cls-1" d="M42.82,291.62s-6.44,3.62,3.25,17.04c9.69,13.42,15.96,19.83,15.96,19.83,0,0,1.84,3.18-.92,4.14-2.77,.97-9.19,.94-9.92,4.62-.76,3.82,2.4,6.82,8.18,8.98,5.78,2.17,18.28,7.37,19.41,7.85,1.11,.47,2.37,1.88,.59,2.84-1.78,.96-15.65,4.62-13.52,11.1,2.13,6.48,19.23,9.86,21.1,10.27,1.86,.41,2.4,1.09,2.4,2.07,0,.99-4.77,1.78-8.67,2.98-3.9,1.2-8.22,3.28-6.68,6.91,1.54,3.63,12.36,10.1,36.01,8.77l10.91-1.33,4.49-10.09c8.29-22.18,5.33-34.44,2.32-36.99-3.01-2.55-6.28,.95-8.58,4.32-2.31,3.37-4.48,7.7-5.42,7.4-.94-.3-1.43-1.01-1.26-2.91,.17-1.9,2.01-19.24-3.54-23.19-5.55-3.96-13.16,8.2-14.61,9.62-1.45,1.41-2.42-.21-2.54-1.41-.12-1.22-1.38-14.7-1.73-20.87-.35-6.17-2.28-10.07-6.15-10.48-3.73-.4-5.61,5.74-7.36,8.1-1.74,2.35-4.23-.35-4.23-.35,0,0-4.26-7.89-14.2-21.13-9.93-13.24-15.42-8.01-15.42-8.01"/><path class="cls-8" d="M121.88,400.16c-7.26-9.75-19.86-27.3-30.76-42.3-10.9-15-20.78-28.58-27.98-38.36-3.6-4.88-6.52-8.83-8.55-11.58-1-1.36-1.78-2.42-2.32-3.15-.26-.35-.45-.63-.6-.82-.13-.19-.19-.29-.19-.29,0,0,.08,.09,.22,.27,.15,.19,.36,.46,.62,.8,.55,.72,1.35,1.77,2.37,3.11,2.06,2.7,5.01,6.64,8.63,11.52,7.26,9.75,17.17,23.3,28.06,38.31,10.9,15.01,23.47,32.58,30.68,42.36"/><path class="cls-8" d="M60.17,337.65s.29,.01,.79,.09c.51,.08,1.23,.22,2.13,.4,1.79,.36,4.25,.92,6.96,1.58,2.67,.67,5.08,1.27,6.92,1.73,.83,.2,1.53,.37,2.1,.51,.5,.12,.77,.19,.76,.22,0,.02-.29,0-.79-.09-.5-.08-1.23-.22-2.13-.41-1.79-.38-4.24-.97-6.95-1.63-2.67-.65-5.08-1.23-6.93-1.68-.83-.2-1.54-.37-2.1-.5-.5-.12-.77-.2-.76-.22Z"/><path class="cls-8" d="M80.47,341.37c-.09-.02,.84-5.14,2.07-11.45,1.24-6.31,2.32-11.4,2.41-11.38s-.84,5.14-2.08,11.45c-1.24,6.3-2.32,11.4-2.41,11.38Z"/><path class="cls-8" d="M96.17,365.17s.1-.27,.34-.74c.27-.53,.61-1.18,1.01-1.96,.85-1.66,2.02-3.95,3.22-6.52,1.2-2.57,2.21-4.94,2.93-6.66,.34-.81,.62-1.49,.85-2.04,.2-.48,.33-.74,.35-.73,.02,0-.06,.29-.22,.78-.17,.49-.42,1.21-.75,2.08-.66,1.75-1.64,4.13-2.84,6.72-1.2,2.58-2.41,4.86-3.32,6.49-.46,.81-.84,1.47-1.11,1.91-.27,.45-.43,.69-.45,.67Z"/><path class="cls-8" d="M77.07,365.84s.26-.06,.74-.1c.55-.04,1.23-.09,2.03-.15,1.72-.11,4.09-.25,6.72-.37,2.63-.13,5-.22,6.72-.27,.8-.02,1.48-.03,2.04-.04,.48,0,.75,0,.75,.03,0,.02-.26,.06-.74,.1-.55,.04-1.23,.09-2.03,.15-1.72,.11-4.09,.25-6.72,.37-2.62,.13-5,.22-6.72,.27-.8,.02-1.49,.03-2.04,.04-.48,0-.75,0-.75-.03Z"/><path class="cls-8" d="M88.26,388.61s.34-.07,.95-.12c.68-.05,1.56-.12,2.61-.2,2.2-.16,5.25-.35,8.61-.55,3.36-.19,6.41-.35,8.61-.45,1.05-.04,1.93-.07,2.61-.1,.62-.02,.96-.01,.96,.01,0,.02-.34,.07-.95,.12-.68,.05-1.55,.12-2.61,.2-2.2,.16-5.25,.35-8.61,.55-3.36,.19-6.41,.35-8.61,.45-1.05,.04-1.93,.07-2.61,.1-.62,.02-.96,.01-.96-.01Z"/><path class="cls-8" d="M112.02,387.08s.12-.35,.4-.95c.31-.65,.71-1.5,1.2-2.53,1.01-2.14,2.39-5.1,3.82-8.41,1.44-3.31,2.66-6.34,3.53-8.53,.42-1.06,.77-1.93,1.03-2.6,.25-.61,.39-.95,.41-.94,.02,0-.08,.36-.29,.99-.21,.63-.52,1.53-.93,2.64-.81,2.22-2,5.27-3.44,8.58-1.43,3.31-2.85,6.26-3.91,8.38-.53,1.06-.98,1.91-1.29,2.49-.32,.58-.5,.9-.52,.89Z"/></g><g><rect class="cls-3" x="116.58" y="87.39" width="104.14" height="319.03"/><rect class="cls-5" x="220.4" y="87.39" width="82.31" height="319.03"/><g><rect class="cls-8" x="122.17" y="138.45" width="88.34" height="24.87"/><rect class="cls-3" x="124.63" y="141.57" width="4.95" height="19.04"/><path class="cls-5" d="M135.41,145.58c0,.87-.7,1.57-1.57,1.57s-1.57-.7-1.57-1.57,.7-1.57,1.57-1.57,1.57,.7,1.57,1.57Z"/><path class="cls-5" d="M135.41,152.3c0,.87-.7,1.57-1.57,1.57s-1.57-.7-1.57-1.57,.7-1.57,1.57-1.57,1.57,.7,1.57,1.57Z"/><rect class="cls-3" x="141.69" y="144.01" width="4.86" height="14.62"/><rect class="cls-3" x="148.71" y="144.01" width="4.86" height="14.62"/><rect class="cls-3" x="155.74" y="144.01" width="4.86" height="14.62"/><rect class="cls-3" x="162.76" y="144.01" width="4.86" height="14.62"/><rect class="cls-3" x="169.78" y="144.01" width="4.86" height="14.62"/><rect class="cls-3" x="176.8" y="144.01" width="4.86" height="14.62"/><rect class="cls-3" x="183.82" y="144.01" width="4.86" height="14.62"/><rect class="cls-3" x="190.84" y="144.01" width="4.86" height="14.62"/><rect class="cls-3" x="197.87" y="144.01" width="4.86" height="14.62"/><rect class="cls-3" x="204.89" y="144.01" width="4.86" height="14.62"/></g><g><rect class="cls-8" x="122.17" y="178.28" width="88.34" height="24.87"/><rect class="cls-3" x="124.63" y="181.41" width="4.95" height="19.04"/><path class="cls-5" d="M135.41,185.42c0,.87-.7,1.57-1.57,1.57s-1.57-.7-1.57-1.57,.7-1.57,1.57-1.57,1.57,.7,1.57,1.57Z"/><circle class="cls-5" cx="133.84" cy="192.14" r="1.57"/><rect class="cls-3" x="141.69" y="183.84" width="4.86" height="14.62"/><rect class="cls-3" x="148.71" y="183.84" width="4.86" height="14.62"/><rect class="cls-3" x="155.74" y="183.84" width="4.86" height="14.62"/><rect class="cls-3" x="162.76" y="183.84" width="4.86" height="14.62"/><rect class="cls-3" x="169.78" y="183.84" width="4.86" height="14.62"/><rect class="cls-3" x="176.8" y="183.84" width="4.86" height="14.62"/><rect class="cls-3" x="183.82" y="183.84" width="4.86" height="14.62"/><rect class="cls-3" x="190.84" y="183.84" width="4.86" height="14.62"/><rect class="cls-3" x="197.87" y="183.84" width="4.86" height="14.62"/><rect class="cls-3" x="204.89" y="183.84" width="4.86" height="14.62"/></g><g><rect class="cls-8" x="122.17" y="218.12" width="88.34" height="24.87"/><rect class="cls-3" x="124.63" y="221.25" width="4.95" height="19.04"/><path class="cls-5" d="M135.41,225.25c0,.87-.7,1.57-1.57,1.57s-1.57-.7-1.57-1.57,.7-1.57,1.57-1.57,1.57,.7,1.57,1.57Z"/><circle class="cls-5" cx="133.84" cy="231.98" r="1.57"/><rect class="cls-3" x="141.69" y="223.68" width="4.86" height="14.62"/><rect class="cls-3" x="148.71" y="223.68" width="4.86" height="14.62"/><rect class="cls-3" x="155.74" y="223.68" width="4.86" height="14.62"/><rect class="cls-3" x="162.76" y="223.68" width="4.86" height="14.62"/><rect class="cls-3" x="169.78" y="223.68" width="4.86" height="14.62"/><rect class="cls-3" x="176.8" y="223.68" width="4.86" height="14.62"/><rect class="cls-3" x="183.82" y="223.68" width="4.86" height="14.62"/><rect class="cls-3" x="190.84" y="223.68" width="4.86" height="14.62"/><rect class="cls-3" x="197.87" y="223.68" width="4.86" height="14.62"/><rect class="cls-3" x="204.89" y="223.68" width="4.86" height="14.62"/></g><g><rect class="cls-8" x="122.17" y="257.96" width="88.34" height="24.87"/><rect class="cls-3" x="124.63" y="261.09" width="4.95" height="19.04"/><path class="cls-5" d="M135.41,265.09c0,.87-.7,1.57-1.57,1.57s-1.57-.7-1.57-1.57,.7-1.57,1.57-1.57,1.57,.7,1.57,1.57Z"/><path class="cls-5" d="M135.41,271.82c0,.87-.7,1.57-1.57,1.57s-1.57-.7-1.57-1.57,.7-1.57,1.57-1.57,1.57,.7,1.57,1.57Z"/><rect class="cls-3" x="141.69" y="263.52" width="4.86" height="14.62"/><rect class="cls-3" x="148.71" y="263.52" width="4.86" height="14.62"/><rect class="cls-3" x="155.74" y="263.52" width="4.86" height="14.62"/><rect class="cls-3" x="162.76" y="263.52" width="4.86" height="14.62"/><rect class="cls-3" x="169.78" y="263.52" width="4.86" height="14.62"/><rect class="cls-3" x="176.8" y="263.52" width="4.86" height="14.62"/><rect class="cls-3" x="183.82" y="263.52" width="4.86" height="14.62"/><rect class="cls-3" x="190.84" y="263.52" width="4.86" height="14.62"/><rect class="cls-3" x="197.87" y="263.52" width="4.86" height="14.62"/><rect class="cls-3" x="204.89" y="263.52" width="4.86" height="14.62"/></g><g><rect class="cls-8" x="122.17" y="297.8" width="88.34" height="24.87"/><rect class="cls-3" x="124.63" y="300.92" width="4.95" height="19.04"/><path class="cls-5" d="M135.41,304.93c0,.87-.7,1.57-1.57,1.57s-1.57-.7-1.57-1.57,.7-1.57,1.57-1.57,1.57,.7,1.57,1.57Z"/><circle class="cls-5" cx="133.84" cy="311.65" r="1.57"/><rect class="cls-3" x="141.69" y="303.36" width="4.86" height="14.62"/><rect class="cls-3" x="148.71" y="303.36" width="4.86" height="14.62"/><rect class="cls-3" x="155.74" y="303.36" width="4.86" height="14.62"/><rect class="cls-3" x="162.76" y="303.36" width="4.86" height="14.62"/><rect class="cls-3" x="169.78" y="303.36" width="4.86" height="14.62"/><rect class="cls-3" x="176.8" y="303.36" width="4.86" height="14.62"/><rect class="cls-3" x="183.82" y="303.36" width="4.86" height="14.62"/><rect class="cls-3" x="190.84" y="303.36" width="4.86" height="14.62"/><rect class="cls-3" x="197.87" y="303.36" width="4.86" height="14.62"/><rect class="cls-3" x="204.89" y="303.36" width="4.86" height="14.62"/></g><g><rect class="cls-8" x="122.17" y="337.64" width="88.34" height="24.87"/><rect class="cls-3" x="124.63" y="340.76" width="4.95" height="19.04"/><path class="cls-5" d="M135.41,344.77c0,.87-.7,1.57-1.57,1.57s-1.57-.7-1.57-1.57,.7-1.57,1.57-1.57,1.57,.7,1.57,1.57Z"/><path class="cls-5" d="M135.41,351.49c0,.87-.7,1.57-1.57,1.57s-1.57-.7-1.57-1.57,.7-1.57,1.57-1.57,1.57,.7,1.57,1.57Z"/><rect class="cls-3" x="141.69" y="343.19" width="4.86" height="14.62"/><rect class="cls-3" x="148.71" y="343.19" width="4.86" height="14.62"/><rect class="cls-3" x="155.74" y="343.19" width="4.86" height="14.62"/><rect class="cls-3" x="162.76" y="343.19" width="4.86" height="14.62"/><rect class="cls-3" x="169.78" y="343.19" width="4.86" height="14.62"/><rect class="cls-3" x="176.8" y="343.19" width="4.86" height="14.62"/><rect class="cls-3" x="183.82" y="343.19" width="4.86" height="14.62"/><rect class="cls-3" x="190.84" y="343.19" width="4.86" height="14.62"/><rect class="cls-3" x="197.87" y="343.19" width="4.86" height="14.62"/><rect class="cls-3" x="204.89" y="343.19" width="4.86" height="14.62"/></g><g><rect class="cls-8" x="122.17" y="377.47" width="88.34" height="24.87"/><rect class="cls-3" x="124.63" y="380.6" width="4.95" height="19.04"/><path class="cls-5" d="M135.41,384.6c0,.87-.7,1.57-1.57,1.57s-1.57-.7-1.57-1.57,.7-1.57,1.57-1.57,1.57,.7,1.57,1.57Z"/><circle class="cls-5" cx="133.84" cy="391.33" r="1.57"/><rect class="cls-3" x="141.69" y="383.03" width="4.86" height="14.62"/><rect class="cls-3" x="148.71" y="383.03" width="4.86" height="14.62"/><rect class="cls-3" x="155.74" y="383.03" width="4.86" height="14.62"/><rect class="cls-3" x="162.76" y="383.03" width="4.86" height="14.62"/><rect class="cls-3" x="169.78" y="383.03" width="4.86" height="14.62"/><rect class="cls-3" x="176.8" y="383.03" width="4.86" height="14.62"/><rect class="cls-3" x="183.82" y="383.03" width="4.86" height="14.62"/><rect class="cls-3" x="190.84" y="383.03" width="4.86" height="14.62"/><rect class="cls-3" x="197.87" y="383.03" width="4.86" height="14.62"/><rect class="cls-3" x="204.89" y="383.03" width="4.86" height="14.62"/></g><path class="cls-8" d="M176.8,138.45s-.06-.26-.1-.77c-.04-.51-.07-1.25-.09-2.21-.03-.96-.05-2.13-.11-3.49-.08-1.35-.17-2.91-.61-4.53-.47-1.62-1.21-3.35-2.36-4.96-1.14-1.61-2.77-3.05-4.83-3.88-2.05-.85-4.41-1.17-6.86-1.39-2.46-.21-5-.43-7.61-.66-10.43-.9-19.88-1.49-26.74-1.62-3.43-.08-6.2-.06-8.12-.05-.9,0-1.64,.01-2.21,.02-.51,0-.77-.01-.77-.04,0-.02,.26-.05,.77-.09,.57-.04,1.3-.08,2.21-.14,1.92-.08,4.7-.17,8.13-.15,6.87,.02,16.35,.53,26.78,1.43,2.61,.23,5.15,.45,7.61,.67,2.46,.23,4.88,.56,7.03,1.47,2.16,.88,3.87,2.43,5.04,4.12,1.18,1.69,1.91,3.48,2.36,5.15,.43,1.7,.48,3.27,.53,4.64,.03,1.37,.02,2.54,0,3.5-.01,.9-.02,1.63-.03,2.21,0,.5,0,.77-.03,.77Z"/><path class="cls-8" d="M150,138.45s-.04-.25-.06-.73c0-.55-.02-1.23-.03-2.08,0-.9,0-2.01-.11-3.27-.12-1.25-.32-2.72-1.09-4.09-.77-1.35-2.27-2.37-3.98-3.06-1.72-.67-3.75-.94-5.8-.59-1.02,.18-2.05,.51-2.99,1.02-.93,.52-1.81,1.24-2.32,2.19-.53,.95-.55,2.12,0,3.08,.54,.96,1.52,1.72,2.62,1.97,1.1,.27,2.27-.11,3.07-.89,.81-.76,1.3-1.85,1.38-2.93,.11-1.09-.29-2.12-.92-3-.61-.87-1.42-1.59-2.32-2.05-.89-.5-1.9-.58-2.91-.75-1-.15-1.97-.28-2.9-.38-1.88-.21-3.64-.33-5.24-.4-3.22-.13-5.83-.08-7.63-.09-.85,0-1.53,0-2.08,0-.48,0-.73-.02-.73-.05,0-.02,.25-.05,.72-.08,.54-.03,1.23-.07,2.08-.11,1.8-.07,4.42-.19,7.65-.12,1.62,.04,3.39,.14,5.29,.33,.95,.09,1.93,.22,2.93,.36,.5,.08,1,.14,1.53,.24,.54,.1,1.07,.29,1.56,.54,1,.51,1.88,1.28,2.55,2.23,.68,.92,1.16,2.15,1.04,3.4-.09,1.23-.63,2.45-1.57,3.34-.91,.9-2.33,1.37-3.65,1.05-1.3-.3-2.4-1.16-3.04-2.29-.66-1.12-.63-2.61,0-3.69,.6-1.11,1.57-1.88,2.58-2.44,1.02-.55,2.11-.88,3.19-1.06,2.17-.36,4.3-.05,6.1,.68,1.77,.74,3.36,1.83,4.18,3.33,.8,1.49,.96,3.01,1.05,4.28,.07,1.29,.03,2.4,0,3.3-.04,.85-.07,1.53-.09,2.08-.02,.47-.05,.72-.07,.72Z"/><path class="cls-8" d="M184.01,138.45s-.09-.28-.19-.82c-.1-.54-.25-1.34-.47-2.36-.45-2.04-1.15-4.99-2.61-8.42-1.44-3.4-3.74-7.35-7.68-10.3-1.92-1.5-4.4-2.32-7.03-2.67-2.63-.38-5.43-.36-8.28-.44-11.42-.22-21.76-.17-29.25-.47-3.74-.13-6.77-.31-8.86-.46-.99-.09-1.79-.15-2.4-.21-.55-.06-.84-.09-.83-.12,0-.02,.29-.03,.84-.01,.62,.02,1.41,.05,2.41,.09,2.09,.08,5.12,.19,8.86,.26,7.48,.18,17.82,.07,29.25,.29,2.85,.08,5.65,.06,8.36,.46,2.68,.37,5.3,1.24,7.3,2.82,1.98,1.55,3.63,3.3,4.87,5.15,1.25,1.84,2.17,3.71,2.88,5.45,1.42,3.49,2.06,6.49,2.44,8.55,.18,1.03,.3,1.84,.36,2.39,.06,.55,.08,.84,.06,.84Z"/><rect class="cls-8" x="123.38" y="91.36" width="85.91" height="12.47"/><rect class="cls-3" x="142.28" y="97.59" width="46.78" height="6.24"/></g></g><g id="Servers"><g><g><rect class="cls-10" x="270.84" y="285.58" width="138.56" height="98.08"/><rect class="cls-9" x="250.61" y="275.44" width="151.47" height="37.58"/><g><g><path class="cls-10" d="M298.58,285.58c0,.94-.77,1.71-1.71,1.71s-1.71-.77-1.71-1.71,.77-1.71,1.71-1.71,1.71,.77,1.71,1.71Z"/><path class="cls-10" d="M306.13,285.58c0,.94-.77,1.71-1.71,1.71s-1.71-.77-1.71-1.71,.77-1.71,1.71-1.71,1.71,.77,1.71,1.71Z"/><path class="cls-10" d="M313.68,285.58c0,.94-.77,1.71-1.71,1.71s-1.71-.77-1.71-1.71,.77-1.71,1.71-1.71,1.71,.77,1.71,1.71Z"/><path class="cls-10" d="M321.23,285.58c0,.94-.77,1.71-1.71,1.71s-1.71-.77-1.71-1.71,.77-1.71,1.71-1.71,1.71,.77,1.71,1.71Z"/><path class="cls-10" d="M379.73,285.58c0,.94-.77,1.71-1.71,1.71s-1.71-.77-1.71-1.71,.77-1.71,1.71-1.71,1.71,.77,1.71,1.71Z"/><path class="cls-10" d="M387.43,285.58c0,.94-.77,1.71-1.71,1.71s-1.71-.77-1.71-1.71,.77-1.71,1.71-1.71,1.71,.77,1.71,1.71Z"/><path class="cls-10" d="M328.78,285.58c0,.94-.77,1.71-1.71,1.71s-1.71-.77-1.71-1.71,.77-1.71,1.71-1.71,1.71,.77,1.71,1.71Z"/><path class="cls-10" d="M365.86,285.58c0,.94-.77,1.71-1.71,1.71s-1.71-.77-1.71-1.71,.77-1.71,1.71-1.71,1.71,.77,1.71,1.71Z"/><path class="cls-3" d="M336.33,285.58c0,.94-.77,1.71-1.71,1.71s-1.71-.77-1.71-1.71,.77-1.71,1.71-1.71,1.71,.77,1.71,1.71Z"/><path class="cls-3" d="M343.88,285.58c0,.94-.77,1.71-1.71,1.71s-1.71-.77-1.71-1.71,.77-1.71,1.71-1.71,1.71,.77,1.71,1.71Z"/><path class="cls-3" d="M359.2,285.58c0,.94-.77,1.71-1.71,1.71s-1.71-.77-1.71-1.71,.77-1.71,1.71-1.71,1.71,.77,1.71,1.71Z"/><path class="cls-3" d="M393.7,285.58c0,.94-.77,1.71-1.71,1.71s-1.71-.77-1.71-1.71,.77-1.71,1.71-1.71,1.71,.77,1.71,1.71Z"/><path class="cls-7" d="M351.43,285.58c0,.94-.77,1.71-1.71,1.71s-1.71-.77-1.71-1.71,.77-1.71,1.71-1.71,1.71,.77,1.71,1.71Z"/><path class="cls-7" d="M373.04,285.58c0,.94-.77,1.71-1.71,1.71s-1.71-.77-1.71-1.71,.77-1.71,1.71-1.71,1.71,.77,1.71,1.71Z"/></g><g><path class="cls-10" d="M390.27,293.83c0-.94,.77-1.71,1.71-1.71s1.71,.77,1.71,1.71-.77,1.71-1.71,1.71-1.71-.77-1.71-1.71Z"/><circle class="cls-10" cx="384.43" cy="293.83" r="1.71"/><path class="cls-10" d="M375.17,293.83c0-.94,.77-1.71,1.71-1.71s1.71,.77,1.71,1.71-.77,1.71-1.71,1.71-1.71-.77-1.71-1.71Z"/><path class="cls-10" d="M367.62,293.83c0-.94,.77-1.71,1.71-1.71s1.71,.77,1.71,1.71-.77,1.71-1.71,1.71-1.71-.77-1.71-1.71Z"/><path class="cls-10" d="M309.12,293.83c0-.94,.77-1.71,1.71-1.71s1.71,.77,1.71,1.71-.77,1.71-1.71,1.71-1.71-.77-1.71-1.71Z"/><path class="cls-10" d="M301.42,293.83c0-.94,.77-1.71,1.71-1.71s1.71,.77,1.71,1.71-.77,1.71-1.71,1.71-1.71-.77-1.71-1.71Z"/><circle class="cls-10" cx="361.79" cy="293.83" r="1.71"/><circle class="cls-10" cx="324.71" cy="293.83" r="1.71"/><path class="cls-3" d="M352.52,293.83c0-.94,.77-1.71,1.71-1.71s1.71,.77,1.71,1.71-.77,1.71-1.71,1.71-1.71-.77-1.71-1.71Z"/><path class="cls-3" d="M344.98,293.83c0-.94,.77-1.71,1.71-1.71s1.71,.77,1.71,1.71-.77,1.71-1.71,1.71-1.71-.77-1.71-1.71Z"/><path class="cls-3" d="M329.66,293.83c0-.94,.77-1.71,1.71-1.71s1.71,.77,1.71,1.71-.77,1.71-1.71,1.71-1.71-.77-1.71-1.71Z"/><path class="cls-3" d="M295.16,293.83c0-.94,.77-1.71,1.71-1.71s1.71,.77,1.71,1.71-.77,1.71-1.71,1.71-1.71-.77-1.71-1.71Z"/><path class="cls-7" d="M337.43,293.83c0-.94,.77-1.71,1.71-1.71s1.71,.77,1.71,1.71-.77,1.71-1.71,1.71-1.71-.77-1.71-1.71Z"/><path class="cls-7" d="M315.81,293.83c0-.94,.77-1.71,1.71-1.71s1.71,.77,1.71,1.71-.77,1.71-1.71,1.71-1.71-.77-1.71-1.71Z"/></g><g><path class="cls-10" d="M298.58,301.16c0,.94-.77,1.71-1.71,1.71s-1.71-.77-1.71-1.71,.77-1.71,1.71-1.71,1.71,.77,1.71,1.71Z"/><path class="cls-10" d="M306.13,301.16c0,.94-.77,1.71-1.71,1.71s-1.71-.77-1.71-1.71,.77-1.71,1.71-1.71,1.71,.77,1.71,1.71Z"/><path class="cls-10" d="M313.68,301.16c0,.94-.77,1.71-1.71,1.71s-1.71-.77-1.71-1.71,.77-1.71,1.71-1.71,1.71,.77,1.71,1.71Z"/><path class="cls-10" d="M321.23,301.16c0,.94-.77,1.71-1.71,1.71s-1.71-.77-1.71-1.71,.77-1.71,1.71-1.71,1.71,.77,1.71,1.71Z"/><path class="cls-10" d="M379.73,301.16c0,.94-.77,1.71-1.71,1.71s-1.71-.77-1.71-1.71,.77-1.71,1.71-1.71,1.71,.77,1.71,1.71Z"/><path class="cls-10" d="M387.43,301.16c0,.94-.77,1.71-1.71,1.71s-1.71-.77-1.71-1.71,.77-1.71,1.71-1.71,1.71,.77,1.71,1.71Z"/><path class="cls-10" d="M328.78,301.16c0,.94-.77,1.71-1.71,1.71s-1.71-.77-1.71-1.71,.77-1.71,1.71-1.71,1.71,.77,1.71,1.71Z"/><path class="cls-10" d="M365.86,301.16c0,.94-.77,1.71-1.71,1.71s-1.71-.77-1.71-1.71,.77-1.71,1.71-1.71,1.71,.77,1.71,1.71Z"/><path class="cls-3" d="M336.33,301.16c0,.94-.77,1.71-1.71,1.71s-1.71-.77-1.71-1.71,.77-1.71,1.71-1.71,1.71,.77,1.71,1.71Z"/><path class="cls-3" d="M343.88,301.16c0,.94-.77,1.71-1.71,1.71s-1.71-.77-1.71-1.71,.77-1.71,1.71-1.71,1.71,.77,1.71,1.71Z"/><path class="cls-3" d="M359.2,301.16c0,.94-.77,1.71-1.71,1.71s-1.71-.77-1.71-1.71,.77-1.71,1.71-1.71,1.71,.77,1.71,1.71Z"/><path class="cls-3" d="M393.7,301.16c0,.94-.77,1.71-1.71,1.71s-1.71-.77-1.71-1.71,.77-1.71,1.71-1.71,1.71,.77,1.71,1.71Z"/><path class="cls-7" d="M351.43,301.16c0,.94-.77,1.71-1.71,1.71s-1.71-.77-1.71-1.71,.77-1.71,1.71-1.71,1.71,.77,1.71,1.71Z"/><path class="cls-7" d="M373.04,301.16c0,.94-.77,1.71-1.71,1.71s-1.71-.77-1.71-1.71,.77-1.71,1.71-1.71,1.71,.77,1.71,1.71Z"/></g></g><rect class="cls-10" x="257.34" y="283.18" width="29.82" height="4.59"/><rect class="cls-10" x="257.34" y="291.08" width="29.82" height="4.59"/><rect class="cls-10" x="257.34" y="299.24" width="29.82" height="4.59"/><rect class="cls-9" x="250.61" y="321.82" width="151.47" height="37.58"/><rect class="cls-10" x="257.34" y="329.56" width="29.82" height="4.59"/><rect class="cls-10" x="257.34" y="337.45" width="29.82" height="4.59"/><rect class="cls-10" x="257.34" y="345.62" width="29.82" height="4.59"/><g><g><path class="cls-10" d="M298.03,331.96c0,.94-.77,1.71-1.71,1.71s-1.71-.77-1.71-1.71,.77-1.71,1.71-1.71,1.71,.77,1.71,1.71Z"/><path class="cls-10" d="M305.58,331.96c0,.94-.77,1.71-1.71,1.71s-1.71-.77-1.71-1.71,.77-1.71,1.71-1.71,1.71,.77,1.71,1.71Z"/><path class="cls-10" d="M313.13,331.96c0,.94-.77,1.71-1.71,1.71s-1.71-.77-1.71-1.71,.77-1.71,1.71-1.71,1.71,.77,1.71,1.71Z"/><path class="cls-10" d="M320.68,331.96c0,.94-.77,1.71-1.71,1.71s-1.71-.77-1.71-1.71,.77-1.71,1.71-1.71,1.71,.77,1.71,1.71Z"/><path class="cls-10" d="M379.18,331.96c0,.94-.77,1.71-1.71,1.71s-1.71-.77-1.71-1.71,.77-1.71,1.71-1.71,1.71,.77,1.71,1.71Z"/><path class="cls-10" d="M386.88,331.96c0,.94-.77,1.71-1.71,1.71s-1.71-.77-1.71-1.71,.77-1.71,1.71-1.71,1.71,.77,1.71,1.71Z"/><path class="cls-10" d="M328.23,331.96c0,.94-.77,1.71-1.71,1.71s-1.71-.77-1.71-1.71,.77-1.71,1.71-1.71,1.71,.77,1.71,1.71Z"/><path class="cls-10" d="M365.31,331.96c0,.94-.77,1.71-1.71,1.71s-1.71-.77-1.71-1.71,.77-1.71,1.71-1.71,1.71,.77,1.71,1.71Z"/><path class="cls-3" d="M335.78,331.96c0,.94-.77,1.71-1.71,1.71s-1.71-.77-1.71-1.71,.77-1.71,1.71-1.71,1.71,.77,1.71,1.71Z"/><path class="cls-3" d="M343.33,331.96c0,.94-.77,1.71-1.71,1.71s-1.71-.77-1.71-1.71,.77-1.71,1.71-1.71,1.71,.77,1.71,1.71Z"/><path class="cls-3" d="M358.65,331.96c0,.94-.77,1.71-1.71,1.71s-1.71-.77-1.71-1.71,.77-1.71,1.71-1.71,1.71,.77,1.71,1.71Z"/><path class="cls-3" d="M393.15,331.96c0,.94-.77,1.71-1.71,1.71s-1.71-.77-1.71-1.71,.77-1.71,1.71-1.71,1.71,.77,1.71,1.71Z"/><path class="cls-7" d="M350.88,331.96c0,.94-.77,1.71-1.71,1.71s-1.71-.77-1.71-1.71,.77-1.71,1.71-1.71,1.71,.77,1.71,1.71Z"/><path class="cls-7" d="M372.5,331.96c0,.94-.77,1.71-1.71,1.71s-1.71-.77-1.71-1.71,.77-1.71,1.71-1.71,1.71,.77,1.71,1.71Z"/></g><g><path class="cls-10" d="M389.73,340.2c0-.94,.77-1.71,1.71-1.71s1.71,.77,1.71,1.71-.77,1.71-1.71,1.71-1.71-.77-1.71-1.71Z"/><path class="cls-10" d="M382.18,340.2c0-.94,.77-1.71,1.71-1.71s1.71,.77,1.71,1.71-.77,1.71-1.71,1.71-1.71-.77-1.71-1.71Z"/><path class="cls-10" d="M374.63,340.2c0-.94,.77-1.71,1.71-1.71s1.71,.77,1.71,1.71-.77,1.71-1.71,1.71-1.71-.77-1.71-1.71Z"/><path class="cls-10" d="M367.08,340.2c0-.94,.77-1.71,1.71-1.71s1.71,.77,1.71,1.71-.77,1.71-1.71,1.71-1.71-.77-1.71-1.71Z"/><path class="cls-10" d="M308.57,340.2c0-.94,.77-1.71,1.71-1.71s1.71,.77,1.71,1.71-.77,1.71-1.71,1.71-1.71-.77-1.71-1.71Z"/><path class="cls-10" d="M300.87,340.2c0-.94,.77-1.71,1.71-1.71s1.71,.77,1.71,1.71-.77,1.71-1.71,1.71-1.71-.77-1.71-1.71Z"/><path class="cls-10" d="M359.53,340.2c0-.94,.77-1.71,1.71-1.71s1.71,.77,1.71,1.71-.77,1.71-1.71,1.71-1.71-.77-1.71-1.71Z"/><path class="cls-10" d="M322.45,340.2c0-.94,.77-1.71,1.71-1.71s1.71,.77,1.71,1.71-.77,1.71-1.71,1.71-1.71-.77-1.71-1.71Z"/><path class="cls-3" d="M351.98,340.2c0-.94,.77-1.71,1.71-1.71s1.71,.77,1.71,1.71-.77,1.71-1.71,1.71-1.71-.77-1.71-1.71Z"/><path class="cls-3" d="M344.43,340.2c0-.94,.77-1.71,1.71-1.71s1.71,.77,1.71,1.71-.77,1.71-1.71,1.71-1.71-.77-1.71-1.71Z"/><path class="cls-3" d="M329.11,340.2c0-.94,.77-1.71,1.71-1.71s1.71,.77,1.71,1.71-.77,1.71-1.71,1.71-1.71-.77-1.71-1.71Z"/><path class="cls-3" d="M294.61,340.2c0-.94,.77-1.71,1.71-1.71s1.71,.77,1.71,1.71-.77,1.71-1.71,1.71-1.71-.77-1.71-1.71Z"/><path class="cls-7" d="M336.88,340.2c0-.94,.77-1.71,1.71-1.71s1.71,.77,1.71,1.71-.77,1.71-1.71,1.71-1.71-.77-1.71-1.71Z"/><path class="cls-7" d="M315.26,340.2c0-.94,.77-1.71,1.71-1.71s1.71,.77,1.71,1.71-.77,1.71-1.71,1.71-1.71-.77-1.71-1.71Z"/></g><g><path class="cls-10" d="M298.03,347.54c0,.94-.77,1.71-1.71,1.71s-1.71-.77-1.71-1.71,.77-1.71,1.71-1.71,1.71,.77,1.71,1.71Z"/><path class="cls-10" d="M305.58,347.54c0,.94-.77,1.71-1.71,1.71s-1.71-.77-1.71-1.71,.77-1.71,1.71-1.71,1.71,.77,1.71,1.71Z"/><path class="cls-10" d="M313.13,347.54c0,.94-.77,1.71-1.71,1.71s-1.71-.77-1.71-1.71,.77-1.71,1.71-1.71,1.71,.77,1.71,1.71Z"/><path class="cls-10" d="M320.68,347.54c0,.94-.77,1.71-1.71,1.71s-1.71-.77-1.71-1.71,.77-1.71,1.71-1.71,1.71,.77,1.71,1.71Z"/><path class="cls-10" d="M379.18,347.54c0,.94-.77,1.71-1.71,1.71s-1.71-.77-1.71-1.71,.77-1.71,1.71-1.71,1.71,.77,1.71,1.71Z"/><path class="cls-10" d="M386.88,347.54c0,.94-.77,1.71-1.71,1.71s-1.71-.77-1.71-1.71,.77-1.71,1.71-1.71,1.71,.77,1.71,1.71Z"/><path class="cls-10" d="M328.23,347.54c0,.94-.77,1.71-1.71,1.71s-1.71-.77-1.71-1.71,.77-1.71,1.71-1.71,1.71,.77,1.71,1.71Z"/><path class="cls-10" d="M365.31,347.54c0,.94-.77,1.71-1.71,1.71s-1.71-.77-1.71-1.71,.77-1.71,1.71-1.71,1.71,.77,1.71,1.71Z"/><path class="cls-3" d="M335.78,347.54c0,.94-.77,1.71-1.71,1.71s-1.71-.77-1.71-1.71,.77-1.71,1.71-1.71,1.71,.77,1.71,1.71Z"/><path class="cls-3" d="M343.33,347.54c0,.94-.77,1.71-1.71,1.71s-1.71-.77-1.71-1.71,.77-1.71,1.71-1.71,1.71,.77,1.71,1.71Z"/><path class="cls-3" d="M358.65,347.54c0,.94-.77,1.71-1.71,1.71s-1.71-.77-1.71-1.71,.77-1.71,1.71-1.71,1.71,.77,1.71,1.71Z"/><path class="cls-3" d="M393.15,347.54c0,.94-.77,1.71-1.71,1.71s-1.71-.77-1.71-1.71,.77-1.71,1.71-1.71,1.71,.77,1.71,1.71Z"/><path class="cls-7" d="M350.88,347.54c0,.94-.77,1.71-1.71,1.71s-1.71-.77-1.71-1.71,.77-1.71,1.71-1.71,1.71,.77,1.71,1.71Z"/><path class="cls-7" d="M372.5,347.54c0,.94-.77,1.71-1.71,1.71s-1.71-.77-1.71-1.71,.77-1.71,1.71-1.71,1.71,.77,1.71,1.71Z"/></g></g><polygon class="cls-10" points="424.85 312.67 402.08 312.73 402.08 275.15 424.85 275.09 424.85 312.67"/><polygon class="cls-10" points="424.85 359.34 402.08 359.4 402.08 321.82 424.85 321.76 424.85 359.34"/></g><g><polygon class="cls-10" points="423.45 406.35 400.68 406.42 400.68 368.84 423.45 368.78 423.45 406.35"/><rect class="cls-9" x="250.31" y="368.84" width="151.47" height="37.58"/><rect class="cls-10" x="257.03" y="376.58" width="29.82" height="4.59"/><rect class="cls-10" x="257.03" y="384.47" width="29.82" height="4.59"/><g><g><path class="cls-10" d="M298.65,379.35c0,.94-.77,1.71-1.71,1.71s-1.71-.77-1.71-1.71,.77-1.71,1.71-1.71,1.71,.77,1.71,1.71Z"/><path class="cls-10" d="M306.2,379.35c0,.94-.77,1.71-1.71,1.71s-1.71-.77-1.71-1.71,.77-1.71,1.71-1.71,1.71,.77,1.71,1.71Z"/><path class="cls-10" d="M313.75,379.35c0,.94-.77,1.71-1.71,1.71s-1.71-.77-1.71-1.71,.77-1.71,1.71-1.71,1.71,.77,1.71,1.71Z"/><path class="cls-10" d="M321.3,379.35c0,.94-.77,1.71-1.71,1.71s-1.71-.77-1.71-1.71,.77-1.71,1.71-1.71,1.71,.77,1.71,1.71Z"/><path class="cls-10" d="M379.8,379.35c0,.94-.77,1.71-1.71,1.71s-1.71-.77-1.71-1.71,.77-1.71,1.71-1.71,1.71,.77,1.71,1.71Z"/><path class="cls-10" d="M387.5,379.35c0,.94-.77,1.71-1.71,1.71s-1.71-.77-1.71-1.71,.77-1.71,1.71-1.71,1.71,.77,1.71,1.71Z"/><path class="cls-10" d="M328.85,379.35c0,.94-.77,1.71-1.71,1.71s-1.71-.77-1.71-1.71,.77-1.71,1.71-1.71,1.71,.77,1.71,1.71Z"/><path class="cls-10" d="M365.92,379.35c0,.94-.77,1.71-1.71,1.71s-1.71-.77-1.71-1.71,.77-1.71,1.71-1.71,1.71,.77,1.71,1.71Z"/><path class="cls-3" d="M336.4,379.35c0,.94-.77,1.71-1.71,1.71s-1.71-.77-1.71-1.71,.77-1.71,1.71-1.71,1.71,.77,1.71,1.71Z"/><path class="cls-3" d="M343.95,379.35c0,.94-.77,1.71-1.71,1.71s-1.71-.77-1.71-1.71,.77-1.71,1.71-1.71,1.71,.77,1.71,1.71Z"/><path class="cls-3" d="M359.26,379.35c0,.94-.77,1.71-1.71,1.71s-1.71-.77-1.71-1.71,.77-1.71,1.71-1.71,1.71,.77,1.71,1.71Z"/><path class="cls-3" d="M393.76,379.35c0,.94-.77,1.71-1.71,1.71s-1.71-.77-1.71-1.71,.77-1.71,1.71-1.71,1.71,.77,1.71,1.71Z"/><path class="cls-7" d="M351.5,379.35c0,.94-.77,1.71-1.71,1.71s-1.71-.77-1.71-1.71,.77-1.71,1.71-1.71,1.71,.77,1.71,1.71Z"/><path class="cls-7" d="M373.11,379.35c0,.94-.77,1.71-1.71,1.71s-1.71-.77-1.71-1.71,.77-1.71,1.71-1.71,1.71,.77,1.71,1.71Z"/></g><g><path class="cls-10" d="M390.34,387.6c0-.94,.77-1.71,1.71-1.71s1.71,.77,1.71,1.71-.77,1.71-1.71,1.71-1.71-.77-1.71-1.71Z"/><path class="cls-10" d="M382.79,387.6c0-.94,.77-1.71,1.71-1.71s1.71,.77,1.71,1.71-.77,1.71-1.71,1.71-1.71-.77-1.71-1.71Z"/><path class="cls-10" d="M375.24,387.6c0-.94,.77-1.71,1.71-1.71s1.71,.77,1.71,1.71-.77,1.71-1.71,1.71-1.71-.77-1.71-1.71Z"/><path class="cls-10" d="M367.69,387.6c0-.94,.77-1.71,1.71-1.71s1.71,.77,1.71,1.71-.77,1.71-1.71,1.71-1.71-.77-1.71-1.71Z"/><path class="cls-10" d="M309.19,387.6c0-.94,.77-1.71,1.71-1.71s1.71,.77,1.71,1.71-.77,1.71-1.71,1.71-1.71-.77-1.71-1.71Z"/><path class="cls-10" d="M301.49,387.6c0-.94,.77-1.71,1.71-1.71s1.71,.77,1.71,1.71-.77,1.71-1.71,1.71-1.71-.77-1.71-1.71Z"/><path class="cls-10" d="M360.14,387.6c0-.94,.77-1.71,1.71-1.71s1.71,.77,1.71,1.71-.77,1.71-1.71,1.71-1.71-.77-1.71-1.71Z"/><path class="cls-10" d="M323.07,387.6c0-.94,.77-1.71,1.71-1.71s1.71,.77,1.71,1.71-.77,1.71-1.71,1.71-1.71-.77-1.71-1.71Z"/><path class="cls-3" d="M352.59,387.6c0-.94,.77-1.71,1.71-1.71s1.71,.77,1.71,1.71-.77,1.71-1.71,1.71-1.71-.77-1.71-1.71Z"/><path class="cls-3" d="M345.04,387.6c0-.94,.77-1.71,1.71-1.71s1.71,.77,1.71,1.71-.77,1.71-1.71,1.71-1.71-.77-1.71-1.71Z"/><path class="cls-3" d="M329.73,387.6c0-.94,.77-1.71,1.71-1.71s1.71,.77,1.71,1.71-.77,1.71-1.71,1.71-1.71-.77-1.71-1.71Z"/><path class="cls-3" d="M295.23,387.6c0-.94,.77-1.71,1.71-1.71s1.71,.77,1.71,1.71-.77,1.71-1.71,1.71-1.71-.77-1.71-1.71Z"/><path class="cls-7" d="M337.49,387.6c0-.94,.77-1.71,1.71-1.71s1.71,.77,1.71,1.71-.77,1.71-1.71,1.71-1.71-.77-1.71-1.71Z"/><path class="cls-7" d="M315.88,387.6c0-.94,.77-1.71,1.71-1.71s1.71,.77,1.71,1.71-.77,1.71-1.71,1.71-1.71-.77-1.71-1.71Z"/></g><g><path class="cls-10" d="M298.65,394.93c0,.94-.77,1.71-1.71,1.71s-1.71-.77-1.71-1.71,.77-1.71,1.71-1.71,1.71,.77,1.71,1.71Z"/><path class="cls-10" d="M306.2,394.93c0,.94-.77,1.71-1.71,1.71s-1.71-.77-1.71-1.71,.77-1.71,1.71-1.71,1.71,.77,1.71,1.71Z"/><path class="cls-10" d="M313.75,394.93c0,.94-.77,1.71-1.71,1.71s-1.71-.77-1.71-1.71,.77-1.71,1.71-1.71,1.71,.77,1.71,1.71Z"/><path class="cls-10" d="M321.3,394.93c0,.94-.77,1.71-1.71,1.71s-1.71-.77-1.71-1.71,.77-1.71,1.71-1.71,1.71,.77,1.71,1.71Z"/><path class="cls-10" d="M379.8,394.93c0,.94-.77,1.71-1.71,1.71s-1.71-.77-1.71-1.71,.77-1.71,1.71-1.71,1.71,.77,1.71,1.71Z"/><path class="cls-10" d="M387.5,394.93c0,.94-.77,1.71-1.71,1.71s-1.71-.77-1.71-1.71,.77-1.71,1.71-1.71,1.71,.77,1.71,1.71Z"/><path class="cls-10" d="M328.85,394.93c0,.94-.77,1.71-1.71,1.71s-1.71-.77-1.71-1.71,.77-1.71,1.71-1.71,1.71,.77,1.71,1.71Z"/><path class="cls-10" d="M365.92,394.93c0,.94-.77,1.71-1.71,1.71s-1.71-.77-1.71-1.71,.77-1.71,1.71-1.71,1.71,.77,1.71,1.71Z"/><path class="cls-3" d="M336.4,394.93c0,.94-.77,1.71-1.71,1.71s-1.71-.77-1.71-1.71,.77-1.71,1.71-1.71,1.71,.77,1.71,1.71Z"/><path class="cls-3" d="M343.95,394.93c0,.94-.77,1.71-1.71,1.71s-1.71-.77-1.71-1.71,.77-1.71,1.71-1.71,1.71,.77,1.71,1.71Z"/><path class="cls-3" d="M359.26,394.93c0,.94-.77,1.71-1.71,1.71s-1.71-.77-1.71-1.71,.77-1.71,1.71-1.71,1.71,.77,1.71,1.71Z"/><path class="cls-3" d="M393.76,394.93c0,.94-.77,1.71-1.71,1.71s-1.71-.77-1.71-1.71,.77-1.71,1.71-1.71,1.71,.77,1.71,1.71Z"/><path class="cls-7" d="M351.5,394.93c0,.94-.77,1.71-1.71,1.71s-1.71-.77-1.71-1.71,.77-1.71,1.71-1.71,1.71,.77,1.71,1.71Z"/><path class="cls-7" d="M373.11,394.93c0,.94-.77,1.71-1.71,1.71s-1.71-.77-1.71-1.71,.77-1.71,1.71-1.71,1.71,.77,1.71,1.71Z"/></g></g></g></g><g><rect class="cls-1" x="430.16" y="63.44" width="111.96" height="342.97"/><polygon class="cls-8" points="630.45 406.42 542.12 406.42 541.96 63.44 630.45 63.44 630.45 406.42"/><g><rect class="cls-10" x="436.36" y="118.33" width="94.97" height="26.74"/><rect class="cls-9" x="439.01" y="121.7" width="5.32" height="20.46"/><path class="cls-4" d="M450.59,126c0,.93-.76,1.69-1.69,1.69s-1.69-.76-1.69-1.69,.76-1.69,1.69-1.69,1.69,.76,1.69,1.69Z"/><path class="cls-4" d="M450.59,133.23c0,.93-.76,1.69-1.69,1.69s-1.69-.76-1.69-1.69,.76-1.69,1.69-1.69,1.69,.76,1.69,1.69Z"/><rect class="cls-9" x="457.35" y="124.31" width="5.23" height="15.72"/><rect class="cls-9" x="464.9" y="124.31" width="5.23" height="15.72"/><rect class="cls-9" x="472.45" y="124.31" width="5.23" height="15.72"/><rect class="cls-9" x="479.99" y="124.31" width="5.23" height="15.72"/><rect class="cls-9" x="487.54" y="124.31" width="5.23" height="15.72"/><rect class="cls-9" x="495.09" y="124.31" width="5.23" height="15.72"/><rect class="cls-9" x="502.64" y="124.31" width="5.23" height="15.72"/><rect class="cls-9" x="510.19" y="124.31" width="5.23" height="15.72"/><rect class="cls-9" x="517.74" y="124.31" width="5.23" height="15.72"/><rect class="cls-9" x="525.29" y="124.31" width="5.23" height="15.72"/></g><g><rect class="cls-10" x="436.36" y="156.75" width="94.97" height="26.74"/><rect class="cls-9" x="439.01" y="160.11" width="5.32" height="20.46"/><path class="cls-4" d="M450.59,164.41c0,.93-.76,1.69-1.69,1.69s-1.69-.76-1.69-1.69,.76-1.69,1.69-1.69,1.69,.76,1.69,1.69Z"/><path class="cls-4" d="M450.59,171.64c0,.93-.76,1.69-1.69,1.69s-1.69-.76-1.69-1.69,.76-1.69,1.69-1.69,1.69,.76,1.69,1.69Z"/><rect class="cls-9" x="457.35" y="162.72" width="5.23" height="15.72"/><rect class="cls-9" x="464.9" y="162.72" width="5.23" height="15.72"/><rect class="cls-9" x="472.45" y="162.72" width="5.23" height="15.72"/><rect class="cls-9" x="479.99" y="162.72" width="5.23" height="15.72"/><rect class="cls-9" x="487.54" y="162.72" width="5.23" height="15.72"/><rect class="cls-9" x="495.09" y="162.72" width="5.23" height="15.72"/><rect class="cls-9" x="502.64" y="162.72" width="5.23" height="15.72"/><rect class="cls-9" x="510.19" y="162.72" width="5.23" height="15.72"/><rect class="cls-9" x="517.74" y="162.72" width="5.23" height="15.72"/><rect class="cls-9" x="525.29" y="162.72" width="5.23" height="15.72"/></g><g><rect class="cls-10" x="436.36" y="195.47" width="94.97" height="26.74"/><rect class="cls-9" x="439.01" y="198.83" width="5.32" height="20.46"/><path class="cls-4" d="M450.59,203.13c0,.93-.76,1.69-1.69,1.69s-1.69-.76-1.69-1.69,.76-1.69,1.69-1.69,1.69,.76,1.69,1.69Z"/><path class="cls-4" d="M450.59,210.36c0,.93-.76,1.69-1.69,1.69s-1.69-.76-1.69-1.69,.76-1.69,1.69-1.69,1.69,.76,1.69,1.69Z"/><rect class="cls-9" x="457.35" y="201.44" width="5.23" height="15.72"/><rect class="cls-9" x="464.9" y="201.44" width="5.23" height="15.72"/><rect class="cls-9" x="472.45" y="201.44" width="5.23" height="15.72"/><rect class="cls-9" x="479.99" y="201.44" width="5.23" height="15.72"/><rect class="cls-9" x="487.54" y="201.44" width="5.23" height="15.72"/><rect class="cls-9" x="495.09" y="201.44" width="5.23" height="15.72"/><rect class="cls-9" x="502.64" y="201.44" width="5.23" height="15.72"/><rect class="cls-9" x="510.19" y="201.44" width="5.23" height="15.72"/><rect class="cls-9" x="517.74" y="201.44" width="5.23" height="15.72"/><rect class="cls-9" x="525.29" y="201.44" width="5.23" height="15.72"/></g><g><rect class="cls-10" x="436.36" y="237.29" width="94.97" height="26.74"/><rect class="cls-9" x="439.01" y="240.66" width="5.32" height="20.46"/><path class="cls-4" d="M450.59,244.96c0,.93-.76,1.69-1.69,1.69s-1.69-.76-1.69-1.69,.76-1.69,1.69-1.69,1.69,.76,1.69,1.69Z"/><path class="cls-4" d="M450.59,252.19c0,.93-.76,1.69-1.69,1.69s-1.69-.76-1.69-1.69,.76-1.69,1.69-1.69,1.69,.76,1.69,1.69Z"/><rect class="cls-9" x="457.35" y="243.27" width="5.23" height="15.72"/><rect class="cls-9" x="464.9" y="243.27" width="5.23" height="15.72"/><rect class="cls-9" x="472.45" y="243.27" width="5.23" height="15.72"/><rect class="cls-9" x="479.99" y="243.27" width="5.23" height="15.72"/><rect class="cls-9" x="487.54" y="243.27" width="5.23" height="15.72"/><rect class="cls-9" x="495.09" y="243.27" width="5.23" height="15.72"/><rect class="cls-9" x="502.64" y="243.27" width="5.23" height="15.72"/><rect class="cls-9" x="510.19" y="243.27" width="5.23" height="15.72"/><rect class="cls-9" x="517.74" y="243.27" width="5.23" height="15.72"/><rect class="cls-9" x="525.29" y="243.27" width="5.23" height="15.72"/></g><g><rect class="cls-10" x="436.36" y="279.53" width="94.97" height="26.74"/><rect class="cls-9" x="439.01" y="282.9" width="5.32" height="20.46"/><path class="cls-4" d="M450.59,287.2c0,.93-.76,1.69-1.69,1.69s-1.69-.76-1.69-1.69,.76-1.69,1.69-1.69,1.69,.76,1.69,1.69Z"/><path class="cls-4" d="M450.59,294.43c0,.93-.76,1.69-1.69,1.69s-1.69-.76-1.69-1.69,.76-1.69,1.69-1.69,1.69,.76,1.69,1.69Z"/><rect class="cls-9" x="457.35" y="285.51" width="5.23" height="15.72"/><rect class="cls-9" x="464.9" y="285.51" width="5.23" height="15.72"/><rect class="cls-9" x="472.45" y="285.51" width="5.23" height="15.72"/><rect class="cls-9" x="479.99" y="285.51" width="5.23" height="15.72"/><rect class="cls-9" x="487.54" y="285.51" width="5.23" height="15.72"/><rect class="cls-9" x="495.09" y="285.51" width="5.23" height="15.72"/><rect class="cls-9" x="502.64" y="285.51" width="5.23" height="15.72"/><rect class="cls-9" x="510.19" y="285.51" width="5.23" height="15.72"/><rect class="cls-9" x="517.74" y="285.51" width="5.23" height="15.72"/><rect class="cls-9" x="525.29" y="285.51" width="5.23" height="15.72"/></g><g><rect class="cls-10" x="436.36" y="363.6" width="94.97" height="26.74"/><rect class="cls-9" x="439.01" y="366.96" width="5.32" height="20.46"/><path class="cls-4" d="M450.59,371.27c0,.93-.76,1.69-1.69,1.69s-1.69-.76-1.69-1.69,.76-1.69,1.69-1.69,1.69,.76,1.69,1.69Z"/><path class="cls-4" d="M450.59,378.5c0,.93-.76,1.69-1.69,1.69s-1.69-.76-1.69-1.69,.76-1.69,1.69-1.69,1.69,.76,1.69,1.69Z"/><rect class="cls-9" x="457.35" y="369.58" width="5.23" height="15.72"/><rect class="cls-9" x="464.9" y="369.58" width="5.23" height="15.72"/><rect class="cls-9" x="472.45" y="369.58" width="5.23" height="15.72"/><rect class="cls-9" x="479.99" y="369.58" width="5.23" height="15.72"/><rect class="cls-9" x="487.54" y="369.58" width="5.23" height="15.72"/><rect class="cls-9" x="495.09" y="369.58" width="5.23" height="15.72"/><rect class="cls-9" x="502.64" y="369.58" width="5.23" height="15.72"/><rect class="cls-9" x="510.19" y="369.58" width="5.23" height="15.72"/><rect class="cls-9" x="517.74" y="369.58" width="5.23" height="15.72"/><rect class="cls-9" x="525.29" y="369.58" width="5.23" height="15.72"/></g><g><rect class="cls-10" x="436.36" y="321.6" width="94.97" height="26.74"/><rect class="cls-9" x="439.01" y="324.97" width="5.32" height="20.46"/><path class="cls-4" d="M450.59,329.27c0,.93-.76,1.69-1.69,1.69s-1.69-.76-1.69-1.69,.76-1.69,1.69-1.69,1.69,.76,1.69,1.69Z"/><path class="cls-4" d="M450.59,336.5c0,.93-.76,1.69-1.69,1.69s-1.69-.76-1.69-1.69,.76-1.69,1.69-1.69,1.69,.76,1.69,1.69Z"/><rect class="cls-9" x="457.35" y="327.58" width="5.23" height="15.72"/><rect class="cls-9" x="464.9" y="327.58" width="5.23" height="15.72"/><rect class="cls-9" x="472.45" y="327.58" width="5.23" height="15.72"/><rect class="cls-9" x="479.99" y="327.58" width="5.23" height="15.72"/><rect class="cls-9" x="487.54" y="327.58" width="5.23" height="15.72"/><rect class="cls-9" x="495.09" y="327.58" width="5.23" height="15.72"/><rect class="cls-9" x="502.64" y="327.58" width="5.23" height="15.72"/><rect class="cls-9" x="510.19" y="327.58" width="5.23" height="15.72"/><rect class="cls-9" x="517.74" y="327.58" width="5.23" height="15.72"/><rect class="cls-9" x="525.29" y="327.58" width="5.23" height="15.72"/></g><path class="cls-10" d="M495.09,118.33s-.06-.28-.1-.83c-.04-.54-.07-1.34-.09-2.38-.03-1.03-.04-2.29-.11-3.75-.09-1.45-.18-3.13-.65-4.88-.5-1.74-1.29-3.61-2.54-5.35-1.23-1.74-2.98-3.29-5.21-4.19-2.21-.92-4.75-1.26-7.38-1.5-2.64-.23-5.38-.47-8.18-.71-11.21-.97-21.38-1.59-28.75-1.73-3.68-.08-6.67-.05-8.73-.04-.98,.01-1.77,.02-2.37,.03-.54,0-.83,0-.83-.03s.28-.05,.82-.09c.6-.04,1.39-.08,2.37-.14,2.06-.08,5.05-.17,8.74-.15,7.38,.02,17.57,.58,28.79,1.55,2.8,.25,5.54,.49,8.18,.72,2.64,.25,5.24,.6,7.54,1.58,2.32,.95,4.15,2.6,5.4,4.41,1.27,1.81,2.05,3.73,2.54,5.53,.46,1.83,.52,3.51,.57,4.98,.04,1.47,.02,2.73,.01,3.76,0,.98-.01,1.77-.02,2.37,0,.54,0,.83-.03,.83Z"/><path class="cls-10" d="M466.28,118.33s-.04-.27-.06-.78c0-.57-.01-1.31-.02-2.24,0-.97,0-2.16-.11-3.52-.13-1.35-.34-2.93-1.17-4.41-.83-1.47-2.45-2.56-4.29-3.3-1.86-.73-4.05-1.02-6.26-.64-1.1,.19-2.21,.54-3.23,1.1-1.01,.56-1.96,1.34-2.51,2.38-.58,1.02-.6,2.31,0,3.36,.59,1.05,1.65,1.87,2.85,2.14,1.2,.29,2.47-.13,3.34-.96,.88-.83,1.41-2,1.5-3.17,.12-1.18-.32-2.3-1-3.25-.66-.94-1.54-1.71-2.51-2.22-.96-.54-2.06-.63-3.14-.81-1.07-.16-2.11-.3-3.12-.41-2.02-.23-3.91-.36-5.64-.43-3.46-.13-6.27-.08-8.21-.08-.92,0-1.66,0-2.23,0-.51,0-.78-.02-.78-.04,0-.02,.27-.05,.78-.08,.57-.03,1.31-.07,2.23-.11,1.94-.07,4.75-.19,8.23-.11,1.74,.04,3.64,.15,5.68,.36,1.02,.1,2.07,.23,3.15,.38,.54,.09,1.08,.15,1.65,.26,.58,.11,1.14,.31,1.67,.58,1.06,.54,2.01,1.37,2.73,2.38,.72,.99,1.24,2.29,1.11,3.62-.1,1.32-.68,2.62-1.67,3.56-.97,.96-2.48,1.46-3.88,1.12-1.38-.32-2.56-1.24-3.24-2.44-.7-1.2-.68-2.78,0-3.93,.64-1.18,1.68-2.01,2.76-2.6,1.09-.59,2.26-.95,3.41-1.14,2.32-.38,4.61-.06,6.53,.72,1.9,.79,3.6,1.96,4.48,3.56,.86,1.59,1.03,3.22,1.13,4.59,.07,1.39,.04,2.58,0,3.55-.04,.92-.07,1.66-.09,2.23-.02,.51-.04,.78-.07,.78Z"/><path class="cls-10" d="M502.84,118.33s-.09-.3-.19-.88c-.1-.58-.26-1.44-.5-2.54-.48-2.19-1.23-5.37-2.8-9.06-1.55-3.66-4.02-7.91-8.26-11.1-2.07-1.62-4.74-2.5-7.58-2.89-2.84-.41-5.84-.39-8.91-.48-12.27-.23-23.4-.18-31.45-.5-4.02-.14-7.28-.33-9.52-.49-1.08-.09-1.94-.16-2.58-.21-.59-.06-.9-.1-.9-.12,0-.02,.31-.02,.91,0,.65,.03,1.51,.06,2.59,.1,2.25,.09,5.5,.21,9.52,.29,8.04,.2,19.16,.09,31.45,.32,3.06,.09,6.08,.07,8.98,.5,2.88,.39,5.69,1.33,7.83,3.03,2.12,1.66,3.9,3.54,5.23,5.53,1.34,1.98,2.33,3.98,3.1,5.85,1.53,3.75,2.22,6.97,2.63,9.18,.2,1.11,.33,1.98,.39,2.57,.07,.59,.09,.9,.07,.9Z"/><rect class="cls-10" x="437.66" y="67.71" width="92.36" height="13.41"/><rect class="cls-9" x="457.98" y="74.41" width="50.29" height="6.7"/><g><path class="cls-10" d="M567.71,345.79c0,.06-1.02,.17-2.79,.68-1.76,.53-4.28,1.52-6.98,3.42-1.34,.95-2.71,2.14-3.92,3.64-.62,.74-1.14,1.58-1.61,2.48-.42,.91-.75,1.93-1.01,2.98-1.05,4.24-.74,9.09-.53,14.14,.21,5.05-.12,10.08-2.12,14.12-.95,2.02-2.29,3.73-3.77,5.04-1.49,1.31-3.09,2.26-4.63,2.94-1.54,.68-3.01,1.08-4.33,1.29-1.32,.18-2.47,.22-3.4,.14-.93-.08-1.65-.2-2.12-.33-.48-.12-.72-.2-.72-.22,.02-.07,1.01,.24,2.85,.32,.92,.04,2.05-.03,3.34-.24,1.28-.25,2.72-.66,4.21-1.35,1.49-.69,3.03-1.64,4.47-2.92,1.42-1.29,2.69-2.94,3.6-4.91,1.9-3.92,2.22-8.84,2.01-13.86-.21-5.03-.52-9.95,.59-14.29,.27-1.08,.61-2.11,1.07-3.08,.49-.94,1.05-1.81,1.7-2.57,1.26-1.53,2.68-2.73,4.06-3.67,2.78-1.89,5.36-2.83,7.16-3.3,.91-.22,1.62-.36,2.11-.4,.49-.06,.74-.08,.75-.05Z"/><rect class="cls-10" x="525.13" y="391.96" width="7.58" height="9.22"/><g><rect class="cls-9" x="567.71" y="322.49" width="42.52" height="46.59"/><circle class="cls-10" cx="588.97" cy="345.97" r="14"/><circle class="cls-9" cx="588.97" cy="345.97" r="7"/><circle class="cls-10" cx="573.46" cy="329.72" r="1.3"/><path class="cls-10" d="M605.02,329.72c0,.72-.58,1.3-1.3,1.3s-1.3-.58-1.3-1.3,.58-1.3,1.3-1.3,1.3,.58,1.3,1.3Z"/><path class="cls-10" d="M605.3,364.12c0,.72-.58,1.3-1.3,1.3s-1.3-.58-1.3-1.3,.58-1.3,1.3-1.3,1.3,.58,1.3,1.3Z"/><path class="cls-10" d="M574.76,364.66c0,.72-.58,1.3-1.3,1.3s-1.3-.58-1.3-1.3,.58-1.3,1.3-1.3,1.3,.58,1.3,1.3Z"/><rect class="cls-10" x="610.23" y="322.49" width="3.43" height="46.59"/></g></g></g></g><g id="Speech_Bubble"><g><path class="cls-10" d="M96.63,202.6c-1.22-.3-7.12-1.75-18.54-4.56l.14-.02c-4.08,2.6-9.6,4.7-16,4.8-3.18-.01-6.55-.39-9.92-1.45-3.36-1.05-6.66-2.78-9.66-5.12-6.01-4.65-10.68-12.09-11.69-20.66-.52-4.26-.17-8.73,1.15-13.02,1.35-4.27,3.68-8.32,6.81-11.73,1.59-1.8,3.46-3.3,5.37-4.68,1-.62,1.99-1.26,3.02-1.81l1.58-.76,.79-.38,.82-.3c4.32-1.68,8.92-2.32,13.33-2.03,4.42,.28,8.65,1.52,12.35,3.47,3.71,1.94,6.88,4.58,9.38,7.58,2.5,3,4.32,6.35,5.48,9.73,1.16,3.39,1.68,6.79,1.71,10.01,.04,6.46-1.98,12.01-4.44,16.06v-.17c5.16,9.3,7.76,14,8.34,15.04-.59-1.03-3.29-5.67-8.62-14.87l-.05-.08,.05-.08c2.4-4.03,4.35-9.51,4.28-15.89-.05-3.17-.58-6.52-1.73-9.85-1.15-3.32-2.95-6.61-5.42-9.55-2.46-2.94-5.59-5.52-9.23-7.42-3.64-1.9-7.79-3.11-12.12-3.38-4.33-.28-8.84,.36-13.07,2l-.8,.29-.77,.37-1.55,.74c-1.01,.53-1.98,1.17-2.96,1.77-1.87,1.36-3.71,2.82-5.26,4.59-3.07,3.34-5.36,7.31-6.68,11.5-1.3,4.2-1.64,8.59-1.14,12.76,.98,8.4,5.55,15.72,11.43,20.31,2.94,2.31,6.18,4.03,9.48,5.07,3.3,1.05,6.62,1.44,9.76,1.47,6.31-.07,11.77-2.1,15.82-4.63l.06-.04,.07,.02c11.36,3.01,17.23,4.57,18.45,4.89Z"/><path class="cls-7" d="M59.18,158.07l.98,15.49c.08,1.27,1.09,2.27,2.36,2.35h0c1.34,.08,2.5-.9,2.65-2.23l1.72-15.56c.13-1.18-.8-2.2-1.99-2.19l-3.78,.05c-1.13,.02-2.01,.97-1.94,2.1Z"/><path class="cls-7" d="M66.62,184.61c-.66,1.98-2.8,3.05-4.78,2.4-1.98-.66-3.05-2.8-2.4-4.78s2.8-3.05,4.78-2.4c1.98,.66,3.05,2.8,2.4,4.78Z"/></g></g><g id="Device"><g><g><path class="cls-10" d="M313.79,156.92c-.07,.05-.93-1.08-2.4-2.85-1.47-1.77-3.57-4.15-5.9-6.77-2.33-2.62-4.4-5.05-5.8-6.89-.7-.92-1.25-1.67-1.6-2.21-.36-.54-.54-.84-.51-.86,.07-.05,.93,1.08,2.4,2.85,1.47,1.77,3.57,4.15,5.9,6.77,2.33,2.62,4.4,5.05,5.8,6.89,.7,.92,1.25,1.67,1.6,2.21,.36,.54,.54,.84,.51,.86Z"/><path class="cls-10" d="M332.94,146.47c-.14,.05-4.33-12.03-9.36-26.97-5.03-14.94-9-27.09-8.87-27.14,.14-.05,4.33,12.03,9.36,26.97,5.03,14.94,9,27.09,8.86,27.13Z"/><path class="cls-10" d="M349.53,149.61c-.14-.04,1.91-6.72,4.56-14.9,2.66-8.19,4.92-14.79,5.06-14.74,.14,.04-1.91,6.72-4.56,14.91-2.66,8.19-4.92,14.79-5.06,14.74Z"/><path class="cls-10" d="M377.63,148.77c.09,.12-2.46,2.08-5.49,4.63-3.03,2.55-5.4,4.72-5.5,4.62-.05-.05,.48-.66,1.4-1.58,.92-.92,2.24-2.15,3.76-3.43,1.52-1.28,2.96-2.37,4.02-3.12,1.07-.75,1.76-1.17,1.8-1.11Z"/><path class="cls-10" d="M362.51,108.59c.14,.05,.01,.79-.28,1.66-.29,.87-.64,1.54-.77,1.5-.14-.05-.01-.79,.28-1.66,.29-.87,.64-1.54,.77-1.5Z"/><path class="cls-10" d="M292.72,132.03c-.12,.08-.51-.26-.87-.77-.36-.51-.56-.99-.45-1.07,.12-.08,.51,.26,.87,.77,.36,.51,.56,.99,.45,1.07Z"/></g><g><g><g><g><path class="cls-10" d="M399.9,164h-125.8c-2.17,0-3.93,1.76-3.93,3.93v88.86c0,2.17,1.76,3.93,3.93,3.93h48.28s3.07,9.5-6.45,14.41h45.15s-10.75-3.69-7.99-14.41h46.81c2.17,0,3.93-1.76,3.93-3.93v-88.86c0-2.17-1.76-3.93-3.93-3.93Z"/><path class="cls-9" d="M338.68,251.37c1.71,2.45-.97,5.12-3.41,3.41-.08-.06-.15-.13-.21-.21-1.71-2.45,.97-5.12,3.41-3.41,.08,.06,.15,.13,.21,.21Z"/></g><path class="cls-4" d="M275.19,165.63h123.63c1.57,0,2.85,1.28,2.85,2.85v75.98h-129.32v-75.98c0-1.57,1.28-2.85,2.85-2.85Z"/></g><path class="cls-1" d="M275.32,165.63h123.9c1.35,0,2.45,1.1,2.45,2.45v4.1h-129.32v-3.57c0-1.64,1.33-2.98,2.98-2.98Z"/><g><path class="cls-8" d="M277.36,169.05c0,.5-.41,.91-.91,.91s-.91-.41-.91-.91,.41-.91,.91-.91,.91,.41,.91,.91Z"/><path class="cls-8" d="M280.07,169.05c0,.5-.41,.91-.91,.91s-.91-.41-.91-.91,.41-.91,.91-.91,.91,.41,.91,.91Z"/><path class="cls-8" d="M282.65,169.05c0,.5-.41,.91-.91,.91s-.91-.41-.91-.91,.41-.91,.91-.91,.91,.41,.91,.91Z"/></g></g><path class="cls-9" d="M377.41,260.73s-17.9,.08-39.98,.08-39.98-.03-39.98-.08,17.9-.08,39.98-.08,39.98,.03,39.98,.08Z"/></g><g><g><path class="cls-7" d="M324.76,201.15c0,3.98-2.92,7.45-9.34,7.45-3.11,0-6.39-.87-8.57-2.41l2.05-3.98c1.7,1.28,4.04,2.02,6.39,2.02,2.6,0,4.21-1.09,4.21-2.92s-1.16-2.92-5.23-2.92h-5.75l1.16-12.65h13.71v4.17h-9.37l-.35,4.27h1.83c6.65,0,9.28,2.99,9.28,6.97Z"/><path class="cls-7" d="M326.87,196.97c0-7.42,4.11-11.62,9.63-11.62s9.63,4.21,9.63,11.62-4.08,11.62-9.63,11.62-9.63-4.21-9.63-11.62Zm14.03,0c0-5.1-1.8-7.22-4.4-7.22s-4.37,2.12-4.37,7.22,1.8,7.22,4.37,7.22,4.4-2.12,4.4-7.22Z"/><path class="cls-7" d="M348.67,196.97c0-7.42,4.11-11.62,9.63-11.62s9.63,4.21,9.63,11.62-4.08,11.62-9.63,11.62-9.63-4.21-9.63-11.62Zm14.03,0c0-5.1-1.8-7.22-4.4-7.22s-4.37,2.12-4.37,7.22,1.8,7.22,4.37,7.22,4.4-2.12,4.4-7.22Z"/></g><g><path class="cls-10" d="M291.51,214.06h.95v6.64h-.95v-6.64Z"/><path class="cls-10" d="M300.16,214.06v6.64h-.78l-3.99-4.95v4.95h-.95v-6.64h.78l3.99,4.95v-4.95h.95Z"/><path class="cls-10" d="M303.47,214.89h-2.28v-.83h5.5v.83h-2.28v5.82h-.94v-5.82Z"/><path class="cls-10" d="M312.54,219.88v.83h-4.82v-6.64h4.69v.83h-3.74v2.04h3.33v.81h-3.33v2.14h3.87Z"/><path class="cls-10" d="M318.52,220.7l-1.43-2.04c-.13,0-.28,.02-.42,.02h-1.64v2.02h-.95v-6.64h2.59c1.73,0,2.77,.87,2.77,2.32,0,1.02-.53,1.77-1.46,2.1l1.58,2.23h-1.03Zm-.03-4.33c0-.95-.64-1.49-1.85-1.49h-1.61v2.99h1.61c1.21,0,1.85-.55,1.85-1.5Z"/><path class="cls-10" d="M326.69,214.06v6.64h-.78l-3.99-4.95v4.95h-.95v-6.64h.78l3.99,4.95v-4.95h.95Z"/><path class="cls-10" d="M332.91,219.04h-3.53l-.73,1.66h-.98l3.01-6.64h.94l3.02,6.64h-1l-.73-1.66Zm-.33-.76l-1.43-3.26-1.43,3.26h2.87Z"/><path class="cls-10" d="M335.62,214.06h.95v5.82h3.6v.83h-4.55v-6.64Z"/><path class="cls-10" d="M343.19,219.95l.35-.74c.49,.45,1.34,.77,2.19,.77,1.15,0,1.64-.45,1.64-1.02,0-1.62-4.02-.6-4.02-3.07,0-1.02,.8-1.9,2.54-1.9,.78,0,1.59,.21,2.14,.59l-.31,.76c-.58-.37-1.23-.54-1.82-.54-1.13,0-1.61,.47-1.61,1.05,0,1.62,4.02,.61,4.02,3.05,0,1.02-.82,1.89-2.57,1.89-1.02,0-2.01-.34-2.54-.84Z"/><path class="cls-10" d="M354.52,219.88v.83h-4.82v-6.64h4.69v.83h-3.74v2.04h3.33v.81h-3.33v2.14h3.87Z"/><path class="cls-10" d="M360.49,220.7l-1.43-2.04c-.13,0-.28,.02-.42,.02h-1.64v2.02h-.95v-6.64h2.59c1.73,0,2.77,.87,2.77,2.32,0,1.02-.53,1.77-1.46,2.1l1.58,2.23h-1.03Zm-.03-4.33c0-.95-.64-1.49-1.85-1.49h-1.61v2.99h1.61c1.21,0,1.85-.55,1.85-1.5Z"/><path class="cls-10" d="M368.71,214.06l-2.91,6.64h-.94l-2.92-6.64h1.03l2.39,5.46,2.41-5.46h.95Z"/><path class="cls-10" d="M374.38,219.88v.83h-4.82v-6.64h4.69v.83h-3.74v2.04h3.33v.81h-3.33v2.14h3.87Z"/><path class="cls-10" d="M380.35,220.7l-1.43-2.04c-.13,0-.28,.02-.42,.02h-1.64v2.02h-.95v-6.64h2.59c1.73,0,2.77,.87,2.77,2.32,0,1.02-.53,1.77-1.46,2.1l1.58,2.23h-1.03Zm-.03-4.33c0-.95-.64-1.49-1.85-1.49h-1.61v2.99h1.61c1.21,0,1.85-.55,1.85-1.5Z"/></g><g><path class="cls-10" d="M326.12,231.33v1.31h-5.48v-7.07h5.34v1.31h-3.72v1.54h3.28v1.27h-3.28v1.64h3.85Z"/><path class="cls-10" d="M331.93,232.65l-1.36-1.97h-1.51v1.97h-1.64v-7.07h3.06c1.89,0,3.07,.98,3.07,2.57,0,1.06-.54,1.84-1.45,2.23l1.59,2.27h-1.76Zm-1.54-5.74h-1.33v2.46h1.33c1,0,1.51-.46,1.51-1.23s-.51-1.23-1.51-1.23Z"/><path class="cls-10" d="M339.35,232.65l-1.36-1.97h-1.51v1.97h-1.64v-7.07h3.06c1.89,0,3.07,.98,3.07,2.57,0,1.06-.54,1.84-1.45,2.23l1.59,2.27h-1.76Zm-1.54-5.74h-1.33v2.46h1.33c1,0,1.51-.46,1.51-1.23s-.5-1.23-1.51-1.23Z"/><path class="cls-10" d="M341.82,229.11c0-2.1,1.64-3.66,3.87-3.66s3.87,1.55,3.87,3.66-1.65,3.66-3.87,3.66-3.87-1.56-3.87-3.66Zm6.08,0c0-1.34-.95-2.26-2.21-2.26s-2.21,.92-2.21,2.26,.95,2.26,2.21,2.26,2.21-.92,2.21-2.26Z"/><path class="cls-10" d="M355.3,232.65l-1.36-1.97h-1.5v1.97h-1.64v-7.07h3.06c1.89,0,3.07,.98,3.07,2.57,0,1.06-.54,1.84-1.45,2.23l1.59,2.27h-1.76Zm-1.54-5.74h-1.33v2.46h1.33c1,0,1.5-.46,1.5-1.23s-.5-1.23-1.5-1.23Z"/></g></g><g><path class="cls-7" d="M285.69,206.3c-.86,0-1.63-.46-2.06-1.21-.43-.75-.42-1.65,.01-2.39l6.95-11.91c.44-.75,1.21-1.19,2.08-1.19h0c.86,0,1.63,.46,2.06,1.21l6.84,11.98c.43,.75,.43,1.65-.01,2.39-.44,.75-1.21,1.19-2.08,1.19l-13.79-.06h0Zm6.98-15.99h0c-.61,0-1.15,.31-1.46,.83l-6.95,11.91c-.31,.52-.31,1.15,0,1.68,.3,.53,.84,.84,1.44,.85h0l13.79,.06c.61,0,1.15-.31,1.46-.83s.31-1.15,0-1.68l-6.84-11.98c-.3-.53-.84-.84-1.44-.85Z"/><path class="cls-7" d="M291.63,202.47c0-.49,.39-.88,.93-.88,.53,0,.9,.39,.9,.88,0,.49-.38,.89-.9,.89-.54,0-.92-.4-.92-.89Zm.08-7.19h1.69l-.29,5.35h-1.13l-.27-5.35Z"/></g><g><path class="cls-7" d="M373.72,206.3c-.86,0-1.63-.46-2.06-1.21-.43-.75-.43-1.65,.01-2.39l6.95-11.91c.44-.75,1.21-1.19,2.08-1.19h0c.86,0,1.63,.46,2.06,1.21l6.84,11.98c.43,.75,.43,1.65-.01,2.39-.44,.75-1.21,1.19-2.08,1.19l-13.79-.06h0Zm6.98-15.99h0c-.61,0-1.15,.31-1.46,.83l-6.95,11.91c-.31,.52-.31,1.15,0,1.68,.3,.53,.84,.84,1.44,.85h0l13.79,.06c.61,0,1.15-.31,1.46-.83,.31-.52,.31-1.15,0-1.68l-6.84-11.98c-.3-.53-.84-.84-1.44-.85Z"/><path class="cls-7" d="M379.66,202.47c0-.49,.39-.88,.93-.88,.53,0,.9,.39,.9,.88,0,.49-.38,.89-.9,.89-.54,0-.92-.4-.92-.89Zm.08-7.19h1.69l-.29,5.35h-1.13l-.27-5.35Z"/></g></g></g><g id="Plant"><g><polygon class="cls-7" points="639.4 367.22 645.3 406.01 679.59 406.01 687.55 367.78 639.4 367.22"/><g><path class="cls-5" d="M682.75,392.08c0,.11-8.79,.2-19.62,.2s-19.62-.09-19.62-.2,8.78-.2,19.62-.2,19.62,.09,19.62,.2Z"/><path class="cls-5" d="M682.89,390.17c0,.11-8.85,.2-19.76,.2s-19.76-.09-19.76-.2,8.84-.2,19.76-.2,19.76,.09,19.76,.2Z"/><path class="cls-5" d="M682.82,388.01c0,.11-8.85,.2-19.76,.2s-19.76-.09-19.76-.2,8.84-.2,19.76-.2,19.76,.09,19.76,.2Z"/><path class="cls-5" d="M649.24,403.79c-.11,.02-.58-2.17-1.05-4.88-.47-2.72-.76-4.93-.66-4.95s.58,2.17,1.05,4.88c.47,2.72,.76,4.93,.66,4.95Z"/><path class="cls-5" d="M651.57,403.38c-.11,0-.24-2.13-.43-4.76-.18-2.63-.34-4.77-.22-4.78,.11-.01,.45,2.11,.63,4.75,.18,2.64,.13,4.79,.02,4.79Z"/><path class="cls-5" d="M655.82,403.38c-.11,.02-.57-2.16-.89-4.89-.32-2.73-.37-4.95-.26-4.96,.11,0,.34,2.2,.66,4.91,.32,2.71,.6,4.91,.49,4.93Z"/><path class="cls-5" d="M658.81,403.58c-.11,0-.39-2.21-.48-4.96-.09-2.76,.04-4.99,.15-4.99,.11,0,.16,2.23,.25,4.97,.09,2.74,.19,4.97,.07,4.98Z"/><path class="cls-5" d="M664.09,403.38c-.11,0-.27-2.11-.36-4.71-.09-2.61-.07-4.72,.04-4.73s.27,2.11,.36,4.71c.09,2.61,.07,4.72-.04,4.73Z"/><path class="cls-5" d="M667.95,403.58c-.11,0-.18-2.18-.16-4.87,.02-2.69,.13-4.87,.24-4.87,.11,0,.18,2.18,.16,4.87-.02,2.69-.13,4.87-.24,4.87Z"/><path class="cls-5" d="M671.57,403.07c-.11-.01,.02-2.29,.29-5.09,.27-2.8,.58-5.07,.69-5.06,.11,.01-.02,2.29-.29,5.09-.27,2.8-.58,5.07-.69,5.06Z"/><path class="cls-5" d="M676.23,402.56c-.11-.01,.06-1.97,.58-4.33,.51-2.36,1.17-4.21,1.27-4.18,.11,.03-.37,1.92-.88,4.27-.51,2.34-.86,4.26-.97,4.25Z"/></g><g><path class="cls-9" d="M672.93,290.68s0,.07-.04,.19c-.04,.15-.1,.33-.16,.55-.16,.51-.38,1.21-.65,2.09-.29,.91-.64,2.02-1.01,3.32-.37,1.3-.83,2.77-1.24,4.42-.44,1.64-.91,3.45-1.34,5.4-.48,1.94-.88,4.04-1.32,6.25-.82,4.42-1.57,9.31-2.1,14.47-.5,5.17-.73,10.11-.8,14.61,0,2.25-.02,4.39,.06,6.39,.03,2,.14,3.86,.24,5.56,.07,1.7,.23,3.23,.34,4.58,.1,1.35,.22,2.51,.33,3.45,.1,.92,.17,1.65,.23,2.18,.02,.23,.04,.42,.05,.57,0,.13,0,.19,0,.2,0,0-.02-.06-.04-.19-.02-.15-.05-.34-.09-.56-.07-.53-.17-1.25-.3-2.17-.13-.94-.28-2.1-.4-3.45-.13-1.35-.31-2.88-.4-4.58-.12-1.7-.24-3.56-.29-5.57-.1-2-.09-4.14-.1-6.4,.05-4.51,.27-9.46,.77-14.64,.53-5.18,1.29-10.08,2.14-14.5,.46-2.21,.87-4.31,1.36-6.25,.44-1.95,.93-3.76,1.39-5.4,.43-1.65,.91-3.12,1.3-4.41,.38-1.3,.76-2.4,1.07-3.3,.31-.88,.55-1.57,.72-2.07l.2-.54c.05-.12,.07-.18,.08-.18Z"/><path class="cls-9" d="M666.74,314.7c.93-2.77,2.85-5.2,5.33-6.73,.85-.53,1.92-.95,2.82-.52,1.2,.58,1.29,2.26,.94,3.54-.6,2.15-2.01,4.07-3.88,5.29-1.87,1.22-3.61,1.79-5.82,1.47"/><path class="cls-9" d="M664.66,330.92c.89-3.35,3.56-8.11,6.33-10.18,.44-.33,.91-.64,1.44-.77s1.14-.05,1.54,.33c.57,.54,.51,1.46,.34,2.22-1.06,4.88-5.13,8.98-10,10.07"/><path class="cls-9" d="M664.08,345.19c1.36-3.18,3.59-5.98,6.39-8.03,.65-.48,1.43-.94,2.23-.79,1.21,.22,1.76,1.7,1.65,2.93-.22,2.52-2.15,4.55-4.14,6.12-2.14,1.69-5.91,3.04-5.91,3.04"/><path class="cls-9" d="M664.41,355.45c1.4-2.39,3.15-4.63,5.43-6.19,.5-.34,1.03-.65,1.63-.73,.6-.08,1.26,.11,1.6,.61,.54,.8,.03,1.88-.56,2.65-2.02,2.67-4.56,4.69-7.75,5.69"/><path class="cls-9" d="M664.14,351.29c-2.34-2.87-4.94-5.52-7.77-7.91-.44-.37-1-.76-1.55-.59-.43,.14-.68,.6-.71,1.04s.12,.88,.3,1.3c1.7,4.1,5.7,7.32,10,8.42"/><path class="cls-9" d="M664.38,337.93c-2.03-2.48-4.07-4.96-6.1-7.44-.58-.71-1.18-1.43-1.98-1.88-.8-.45-1.85-.56-2.6-.03-.75,.53-1,1.56-.84,2.46s.67,1.69,1.19,2.45c1.24,1.79,2.66,3.49,4.45,4.72,1.79,1.23,3.42,2.03,5.57,1.72"/><path class="cls-9" d="M665.23,322.9c-1.18-3.54-3.33-6.76-6.14-9.22-.47-.41-.99-.81-1.6-.93-1.22-.24-2.4,.78-2.8,1.97-.45,1.33-.14,2.83,.56,4.04s1.76,2.18,2.87,3.03c2.05,1.57,4.35,2.81,6.79,3.67"/><path class="cls-9" d="M667.67,309.49c-.59-4.31-2.84-7.9-5.44-11.39-.55-.74-1.31-1.52-2.22-1.38-.58,.09-1.05,.56-1.27,1.09-.23,.54-.26,1.14-.24,1.72,.14,5.21,3.73,10.16,8.65,11.9"/><path class="cls-9" d="M669.38,302.64c-.21-2.22-.43-4.45-.22-6.67s.86-4.45,2.21-6.21c.58-.76,1.32-1.44,2.22-1.77,.9-.33,1.98-.25,2.72,.36,.68,.57,.97,1.51,.93,2.39-.03,.89-.35,1.74-.69,2.56-1.63,3.91-4.34,8.24-7.17,9.34"/></g><g><path class="cls-10" d="M642.79,307.78s.03,.19,.03,.55c0,.4,.01,.92,.02,1.57,0,.68,0,1.51,.04,2.48,.03,.96,.04,2.06,.12,3.28,.11,2.43,.34,5.31,.71,8.5,.39,3.19,.94,6.67,1.69,10.3,.77,3.62,1.67,7.04,2.59,10.11,.94,3.07,1.89,5.8,2.77,8.07,.41,1.14,.85,2.15,1.21,3.05,.35,.9,.68,1.66,.96,2.28,.25,.6,.46,1.07,.61,1.44,.14,.33,.2,.51,.19,.51-.01,0-.1-.16-.26-.48-.17-.36-.4-.83-.68-1.41-.3-.61-.65-1.37-1.02-2.26-.38-.89-.83-1.89-1.27-3.03-.91-2.26-1.89-4.99-2.85-8.06-.94-3.08-1.86-6.5-2.63-10.14-.75-3.64-1.29-7.14-1.66-10.34-.35-3.2-.56-6.1-.63-8.53-.06-1.22-.05-2.32-.06-3.28-.01-.97,0-1.8,.03-2.48,.02-.65,.04-1.17,.06-1.57,.02-.36,.03-.55,.05-.55Z"/><path class="cls-10" d="M643.75,325.47c.03-2.09,.82-4.15,2.18-5.73,.47-.54,1.1-1.06,1.81-.96,.94,.14,1.37,1.26,1.4,2.21,.05,1.6-.49,3.2-1.5,4.44-1.01,1.23-2.07,2-3.65,2.25"/><path class="cls-10" d="M645.82,336.96c-.12-2.47,.68-6.28,2.12-8.29,.23-.32,.48-.63,.82-.83,.33-.2,.77-.28,1.12-.1,.5,.25,.66,.88,.71,1.44,.33,3.55-1.56,7.22-4.64,9.01"/><path class="cls-10" d="M648.5,346.8c.24-2.46,1.16-4.85,2.62-6.84,.34-.47,.77-.95,1.35-1.02,.87-.11,1.56,.78,1.76,1.64,.39,1.77-.48,3.56-1.5,5.06-1.1,1.61-3.37,3.34-3.37,3.34"/><path class="cls-10" d="M650.93,353.72c.44-1.93,1.15-3.83,2.37-5.38,.27-.34,.57-.66,.95-.85,.39-.18,.88-.2,1.22,.07,.54,.43,.42,1.28,.19,1.93-.8,2.25-2.1,4.17-4.05,5.54"/><path class="cls-10" d="M649.85,350.94c-2.21-1.45-4.56-2.69-6.99-3.72-.38-.16-.84-.31-1.18-.07-.26,.19-.34,.55-.26,.86,.08,.31,.27,.57,.48,.82,2.04,2.43,5.46,3.76,8.62,3.58"/><path class="cls-10" d="M647.14,341.79c-1.92-1.25-3.84-2.5-5.76-3.75-.55-.36-1.11-.72-1.75-.85-.64-.13-1.38,.02-1.78,.54-.4,.52-.35,1.28-.04,1.85,.31,.58,.82,1.01,1.34,1.41,1.23,.95,2.56,1.81,4.05,2.26s2.77,.65,4.16-.03"/><path class="cls-10" d="M644.49,331.37c-1.57-2.16-3.72-3.89-6.17-4.96-.41-.18-.85-.34-1.29-.29-.88,.1-1.47,1.05-1.48,1.94-.02,1,.51,1.95,1.25,2.63,.74,.68,1.67,1.11,2.61,1.45,1.73,.63,3.57,.98,5.41,1.03"/><path class="cls-10" d="M643.26,321.72c-1.33-2.81-3.63-4.77-6.15-6.59-.53-.38-1.22-.75-1.81-.46-.37,.18-.59,.6-.63,1.02-.04,.42,.07,.83,.21,1.23,1.21,3.52,4.73,6.12,8.45,6.24"/><path class="cls-10" d="M642.95,316.69c-.62-1.46-1.25-2.94-1.59-4.49-.34-1.55-.37-3.21,.17-4.71,.23-.64,.59-1.26,1.13-1.68,.54-.42,1.3-.6,1.93-.34,.59,.24,.98,.82,1.15,1.43,.17,.61,.14,1.26,.08,1.89-.26,3.01-1.18,6.55-2.87,7.9"/></g><g><path class="cls-9" d="M686.14,307.41s.03,.19,.05,.55c.01,.4,.03,.92,.06,1.57,.03,.68,.04,1.51,.03,2.48-.01,.97,0,2.07-.06,3.28-.07,2.43-.28,5.33-.63,8.53-.38,3.2-.91,6.7-1.66,10.34-.77,3.64-1.69,7.06-2.63,10.14-.97,3.07-1.94,5.81-2.85,8.06-.43,1.14-.89,2.14-1.27,3.03-.37,.89-.73,1.65-1.02,2.26-.28,.58-.51,1.05-.68,1.41-.16,.32-.25,.49-.26,.48-.01,0,.05-.18,.19-.51,.16-.37,.36-.84,.61-1.44,.27-.62,.6-1.38,.96-2.28,.36-.9,.79-1.9,1.21-3.05,.88-2.26,1.82-5,2.77-8.07,.92-3.08,1.82-6.49,2.59-10.11,.75-3.63,1.29-7.12,1.69-10.3,.37-3.19,.6-6.07,.71-8.5,.08-1.21,.09-2.31,.12-3.28,.04-.96,.04-1.8,.04-2.48,0-.65,.01-1.17,.02-1.57,0-.36,.02-.55,.03-.55Z"/><path class="cls-9" d="M685.19,325.09c-.03-2.09-.82-4.15-2.18-5.73-.47-.54-1.1-1.06-1.81-.96-.94,.14-1.37,1.26-1.4,2.21-.05,1.59,.49,3.2,1.5,4.44,1.01,1.23,2.07,2,3.65,2.25"/><path class="cls-9" d="M683.12,336.58c.12-2.47-.68-6.28-2.12-8.29-.23-.32-.48-.63-.81-.83-.33-.2-.77-.28-1.12-.1-.5,.25-.66,.88-.71,1.44-.33,3.55,1.56,7.22,4.64,9.01"/><path class="cls-9" d="M680.43,346.43c-.24-2.46-1.16-4.85-2.62-6.84-.34-.47-.77-.95-1.35-1.02-.87-.11-1.56,.78-1.76,1.64-.39,1.77,.48,3.56,1.5,5.06,1.1,1.61,3.37,3.34,3.37,3.34"/><path class="cls-9" d="M678.01,353.34c-.44-1.93-1.15-3.83-2.37-5.38-.27-.34-.56-.66-.95-.85-.39-.18-.88-.2-1.22,.07-.54,.43-.42,1.28-.19,1.93,.8,2.25,2.1,4.17,4.05,5.54"/><path class="cls-9" d="M679.09,350.56c2.21-1.45,4.56-2.69,6.99-3.72,.38-.16,.84-.31,1.18-.07,.26,.19,.34,.55,.26,.86-.08,.31-.27,.57-.48,.82-2.04,2.43-5.46,3.76-8.62,3.58"/><path class="cls-9" d="M681.79,341.42c1.92-1.25,3.84-2.5,5.76-3.75,.55-.36,1.11-.72,1.75-.85,.64-.13,1.38,.02,1.78,.54,.4,.52,.35,1.28,.04,1.85-.31,.58-.82,1.01-1.34,1.41-1.23,.95-2.56,1.81-4.05,2.26-1.49,.45-2.77,.65-4.16-.03"/><path class="cls-9" d="M684.45,331c1.57-2.16,3.72-3.89,6.17-4.96,.41-.18,.85-.34,1.29-.29,.88,.1,1.47,1.05,1.48,1.94,.02,1-.51,1.95-1.25,2.63-.74,.68-1.67,1.11-2.61,1.45-1.73,.63-3.57,.98-5.41,1.03"/><path class="cls-9" d="M685.68,321.35c1.33-2.81,3.63-4.77,6.15-6.59,.53-.38,1.22-.75,1.81-.46,.37,.18,.59,.6,.63,1.02,.04,.42-.07,.83-.21,1.23-1.21,3.52-4.73,6.12-8.45,6.24"/><path class="cls-9" d="M685.99,316.32c.62-1.46,1.25-2.94,1.59-4.49,.34-1.55,.37-3.21-.17-4.71-.23-.64-.59-1.26-1.13-1.68-.54-.42-1.3-.6-1.93-.34-.59,.24-.98,.82-1.15,1.43-.17,.61-.14,1.26-.08,1.89,.26,3.01,1.18,6.55,2.87,7.9"/></g><path class="cls-7" d="M635.46,359.54v7.26c0,1.58,1.28,2.86,2.86,2.86h49.66c1.58,0,2.86-1.28,2.86-2.86v-7.26h-55.37Z"/><g class="cls-12"><polygon points="639.77 369.65 640.18 371.96 686 375.23 687.16 369.65 639.77 369.65"/></g></g></g><g id="Screen"><path class="cls-10" d="M716.25,406.42c0,.14-152.8,.26-341.24,.26s-341.27-.12-341.27-.26,152.76-.26,341.27-.26,341.24,.12,341.24,.26Z"/></g><g id="Character_2"><g><g><g><g><g><g><g><path class="cls-6" d="M144.06,196.01h1.16c11.66,.03,21.34,8.76,22.25,20.07,.85,10.52,1.65,22.16,1.57,27.81-.17,11.69-12.18,13.48-12.18,13.48l.44,10.39c.26,7.75-5.71,14.3-13.45,14.76h0c-7.94,.47-14.73-5.64-15.11-13.59l-2.49-49.38c-1.05-12.14,5.33-22.85,17.82-23.53Z"/><path class="cls-2" d="M156.95,257.35s-7.67,.43-15.72-4.51c0,0,3.68,8.42,15.66,7.39l.06-2.88Z"/></g><g><g><g><path class="cls-10" d="M164.93,224.6c.03,.88-.71,1.63-1.66,1.68-.94,.05-1.73-.63-1.76-1.51-.03-.88,.71-1.63,1.65-1.68,.94-.05,1.74,.63,1.77,1.51Z"/><path class="cls-10" d="M164.88,221.8c-.21,.22-1.51-.72-3.35-.72-1.84-.02-3.2,.9-3.4,.68-.1-.1,.12-.49,.71-.91,.58-.41,1.57-.82,2.72-.81,1.15,0,2.11,.42,2.67,.84,.57,.42,.76,.82,.65,.92Z"/></g><g><path class="cls-10" d="M147.96,224.6c.03,.88-.71,1.63-1.66,1.68-.94,.05-1.73-.63-1.76-1.51-.03-.88,.71-1.63,1.65-1.68,.94-.05,1.74,.63,1.77,1.51Z"/><path class="cls-10" d="M147.66,222.09c-.21,.22-1.51-.72-3.35-.72-1.84-.02-3.2,.9-3.4,.68-.1-.1,.12-.49,.71-.91,.58-.42,1.57-.82,2.72-.81,1.15,0,2.11,.42,2.67,.85,.56,.42,.76,.82,.65,.92Z"/></g><path class="cls-10" d="M153.41,235.43c0-.1,1.14-.29,3-.52,.47-.05,.92-.14,1-.45,.11-.33-.08-.83-.31-1.36-.44-1.11-.9-2.27-1.39-3.5-1.92-4.98-3.32-9.07-3.11-9.14,.21-.07,1.93,3.9,3.86,8.88,.46,1.23,.91,2.4,1.33,3.52,.18,.52,.48,1.11,.24,1.8-.13,.34-.47,.59-.78,.67-.3,.09-.57,.09-.8,.11-1.87,.09-3.03,.1-3.04,0Z"/></g><path class="cls-10" d="M137.98,217.12c0-.52,1.79-.98,3.71-2.01,1.94-.99,3.34-2.21,3.77-1.9,.2,.15,.08,.69-.4,1.39-.48,.7-1.35,1.52-2.51,2.13-1.16,.6-2.34,.85-3.19,.85-.85,0-1.37-.21-1.38-.45Z"/><path class="cls-10" d="M159.79,215.53c.46-.25,1.46,.65,2.85,1.27,1.37,.67,2.7,.87,2.8,1.38,.04,.24-.31,.54-.98,.67-.66,.13-1.64,.05-2.6-.39-.95-.45-1.64-1.15-1.96-1.74-.33-.6-.33-1.06-.11-1.18Z"/></g></g><g><path class="cls-6" d="M128.04,228.2c-.2-.09-8.24-2.39-8,5.6,.25,7.99,8.43,6.1,8.44,5.87,0-.23-.44-11.47-.44-11.47Z"/><path class="cls-2" d="M126.6,236.72s-.14,.1-.38,.22c-.23,.11-.64,.2-1.07,.05-.88-.28-1.65-1.6-1.73-3.04-.04-.73,.09-1.42,.34-2,.23-.59,.61-1.01,1.04-1.1,.43-.11,.75,.14,.86,.36,.12,.22,.07,.38,.11,.39,.02,.02,.17-.14,.1-.47-.04-.16-.14-.34-.34-.49-.2-.15-.49-.22-.8-.18-.63,.06-1.18,.64-1.46,1.28-.31,.64-.48,1.43-.43,2.24,.1,1.61,.99,3.09,2.19,3.39,.58,.13,1.06-.05,1.3-.25,.25-.2,.29-.38,.26-.4Z"/></g><path class="cls-10" d="M133.42,204.45l34.22,.73c-1.06-2.3-2.96-4.14-5.03-5.66-4.45-3.28-9.91-5.34-15.5-5.43-5.58-.09-16.94,6.52-20.98,10.27-3.24,3-3.21,5.59-3.21,5.59-.51,4.32,1.97,9.23,2.96,13.47,.51,2.19,1.49,8.81,1.49,8.81h0c1.89,0,2.59-1.47,2.3-3.28l-.35-7.12s6.41-4.44,3.37-12.56c-.49-.65-1.53-3.61,.73-4.82Z"/></g><path class="cls-2" d="M140.6,229.72c-.11,.02-.22-.06-.24-.17-.02-.12,.05-.23,.16-.25,.11-.02,.22,.06,.24,.17,.02,.12-.05,.23-.16,.25Z"/><path class="cls-2" d="M144.13,228.95c-.11,.02-.22-.07-.25-.21-.03-.13,.04-.26,.15-.28,.11-.02,.22,.07,.25,.21,.03,.13-.04,.26-.15,.28Z"/><path class="cls-2" d="M146.5,228.89c-.11,.01-.22-.12-.24-.3-.02-.18,.05-.33,.16-.35,.11-.01,.22,.12,.24,.3,.02,.18-.05,.33-.16,.35Z"/><path class="cls-2" d="M142.33,231.88c-.11,0-.2-.06-.2-.13,0-.07,.09-.13,.2-.13,.11,0,.2,.06,.2,.13s-.09,.13-.2,.13Z"/><path class="cls-2" d="M145.56,231.15c-.11,0-.21-.08-.22-.21-.01-.12,.07-.23,.18-.24s.21,.08,.22,.21c.01,.12-.07,.23-.18,.24Z"/><path class="cls-2" d="M162.39,229.23c-.11,.02-.22-.06-.24-.18-.02-.12,.04-.24,.15-.26,.11-.02,.22,.06,.24,.18,.02,.12-.04,.24-.16,.26Z"/><path class="cls-2" d="M164.79,229.02c-.11,.01-.21-.09-.23-.23-.01-.14,.07-.26,.18-.27,.11-.01,.21,.09,.23,.23,.01,.14-.07,.26-.18,.27Z"/><path class="cls-2" d="M160.27,229.28c-.11,.02-.22-.04-.23-.13s.05-.19,.16-.21c.11-.02,.22,.04,.23,.13,.02,.09-.05,.19-.16,.21Z"/><path class="cls-2" d="M162.04,231.63c-.1,.04-.23-.01-.28-.13-.05-.12-.01-.25,.09-.29,.1-.04,.23,.01,.28,.13,.05,.12,.01,.25-.09,.29Z"/><path class="cls-2" d="M164.09,231.23c-.11-.03-.18-.12-.15-.21,.03-.09,.13-.14,.24-.11,.11,.03,.18,.12,.15,.21-.02,.09-.13,.14-.24,.11Z"/></g><path class="cls-10" d="M125.9,204.82c-.87-2.92,0-6.17,1.92-8.56,1.92-2.39,5.07-3.81,8.19-3.68,1.6,.06,3.19,.5,4.78,.34,2.96-.32,5.24-2.63,7.99-3.75,4.28-1.75,9.72-.16,12.3,3.59,1.04,1.51,1.72,3.38,3.32,4.34,1.38,.82,3.12,.76,4.67,1.21,3.13,.92,5.28,4.16,5.12,7.34s-2.45,6.1-5.46,7.34c-3.01,1.25-6.6,.9-9.46-.65-2.58-1.4-4.89-3.79-7.85-3.7-3.06,.09-5.73,2.9-8.73,2.31-1.57-.31-2.79-1.49-3.94-2.57-1.15-1.09-2.48-2.19-4.08-2.29-1.6-.09-2.44,2.05-1.86,3.51l-6.9-4.78"/><path class="cls-9" d="M166.97,200.95s-.01,.04-.05,.12c-.04,.07-.1,.19-.2,.32-.19,.28-.49,.67-.98,1.08-.48,.42-1.16,.85-2.03,1.15-.87,.29-1.96,.42-3.11,.18-1.14-.23-2.34-.81-3.27-1.81-.94-1-1.49-2.34-2.36-3.51-.43-.59-.98-1.12-1.66-1.46-.68-.34-1.47-.5-2.27-.49-.8,.02-1.61,.23-2.33,.61-.72,.39-1.32,.98-1.72,1.72-.41,.73-.71,1.54-1.21,2.25-.48,.72-1.31,1.26-2.19,1.3-.88,.05-1.7-.27-2.39-.67-.7-.4-1.29-.94-1.82-1.46-1.06-1.04-2.1-2.07-3.39-2.35-1.28-.3-2.54,.16-3.44,.79-.92,.64-1.51,1.49-1.89,2.28-.38,.8-.58,1.53-.71,2.14-.13,.61-.19,1.09-.23,1.41-.04,.33-.06,.5-.07,.5,0,0,0-.04,0-.13,0-.08,0-.21,.01-.37,.02-.33,.06-.81,.17-1.43,.11-.62,.29-1.37,.66-2.19,.37-.81,.97-1.71,1.92-2.39,.93-.66,2.25-1.17,3.64-.86,1.4,.3,2.49,1.38,3.55,2.4,.54,.52,1.09,1.03,1.76,1.41,.66,.38,1.43,.67,2.21,.62,.78-.04,1.49-.49,1.94-1.17,.46-.66,.76-1.46,1.19-2.22,.42-.77,1.08-1.43,1.85-1.84,.77-.41,1.63-.63,2.48-.65,.85-.01,1.69,.16,2.42,.53,.73,.37,1.31,.95,1.76,1.56,.89,1.23,1.43,2.55,2.32,3.51,.88,.96,2.03,1.53,3.12,1.77,1.1,.24,2.15,.14,3-.13,.85-.27,1.52-.68,2.01-1.07,.98-.8,1.28-1.46,1.32-1.43Z"/><path class="cls-9" d="M173.17,201.07s.1,.22,.14,.64c.04,.42,.03,1.05-.17,1.79-.21,.73-.61,1.58-1.28,2.35-.67,.78-1.61,1.45-2.71,1.92-2.21,.94-4.46,.86-5.97,.66-.77-.11-1.38-.24-1.79-.35-.42-.11-.64-.19-.64-.21,.01-.05,.94,.17,2.46,.33,1.5,.14,3.68,.18,5.81-.73,1.05-.45,1.96-1.09,2.61-1.82,.65-.73,1.06-1.52,1.29-2.22,.45-1.42,.18-2.36,.26-2.36Z"/></g><g><path class="cls-2" d="M151.9,238.27c-.54-.33-1.95-1.2-2.57-1.34-.62-.15-1.32-.07-1.8,.35-.41,.36-.59,.91-.65,1.45-.08,.66,0,1.36,.39,1.9,.43,.59,1.14,.89,1.83,1.13,.57,.2,1.2,.38,1.77,.18,.58-.2,.99-.78,1.1-1.38s.15-1.7-.07-2.28"/><path class="cls-10" d="M149.61,241.83c0,.05-.66,.1-1.6-.39-.46-.25-.97-.68-1.28-1.34-.32-.63-.37-1.56,.11-2.29,.23-.36,.57-.65,.96-.8,.39-.15,.79-.15,1.14-.09,.71,.12,1.25,.45,1.67,.7,.84,.53,1.4,.72,1.39,.79,0,.08-.67,0-1.56-.46-.45-.21-.97-.47-1.57-.55-.6-.09-1.24,.11-1.6,.69-.37,.56-.35,1.26-.11,1.81,.23,.56,.64,.96,1.03,1.22,.8,.52,1.43,.62,1.41,.7Z"/></g></g><g><path class="cls-10" d="M135.84,218.45c-.15-.01-.19-.87-.19-1.92,0-1.05,.04-1.91,.18-1.92,.14-.01,.34,.84,.34,1.92,0,1.07-.18,1.93-.33,1.92Z"/><path class="cls-10" d="M134.69,218.92c-.14,0-.27-1.07-.29-2.39-.02-1.32,.09-2.39,.23-2.39,.14,0,.27,1.07,.29,2.39,.02,1.32-.09,2.39-.23,2.39Z"/></g><g><path class="cls-7" d="M77.94,408.34c-.86,.33-1.61,.89-2.18,1.62l-1.48,1.91c-1.06,1.37-1.35,3.18-.77,4.81h0c.74,2.05,2.7,3.39,4.87,3.34l44.29-1-4.45-17.79-1.92-5.15h0"/><path class="cls-4" d="M96.54,419.67c.14-.05-.25-1.33-.09-2.92,.14-1.6,.77-2.78,.64-2.85-.1-.08-.97,1.08-1.13,2.81-.17,1.73,.47,3.03,.58,2.97Z"/><path class="cls-10" d="M100.16,418.7c.15-.02,.05-1.17,.58-2.44,.51-1.28,1.38-2.04,1.29-2.15-.06-.12-1.18,.54-1.74,1.96-.58,1.41-.24,2.67-.12,2.62Z"/><path class="cls-4" d="M91.44,419.91c.14-.04-.18-1.44,0-3.17,.17-1.73,.77-3.04,.63-3.1-.1-.07-.94,1.21-1.13,3.05-.2,1.84,.37,3.27,.48,3.22Z"/><path class="cls-4" d="M86.95,419.81c.14-.06-.48-1.39-.27-3.1,.18-1.72,1.08-2.88,.96-2.97-.05-.04-.34,.19-.67,.7-.33,.5-.67,1.29-.77,2.21-.1,.92,.05,1.77,.26,2.33,.21,.57,.45,.86,.5,.83Z"/><g><path class="cls-10" d="M116.31,399.68v.48s.65-.67,0-.48Z"/><path class="cls-10" d="M116.07,399.76l-.07,.03,.07-.03Z"/><path class="cls-10" d="M116,399.79l-.27,.11,.27-.11Z"/><path class="cls-10" d="M100.37,400.5l-21.67,7.06c-1.05,.37-2.45,1.02-3.28,1.76-1.81,1.62-3.3,4.26-2.4,6.76,1.18,3.27,3.17,3.49,3.17,3.49,0,0-2.42-2.98-1.72-5.25,.7-2.27,3.32-4.37,6.51-5.59l35.08-8.97c.1-.04,.17-.06,.24-.08v-3.59l-15.94,4.42Z"/><path class="cls-10" d="M115.72,399.9c-.18,.07-.12,.05,0,0h0Z"/></g><path class="cls-4" d="M82.42,420.24c-.16-.05,1.15-2.49,.91-5.75-.18-3.26-1.8-5.51-1.65-5.58,.05-.04,.52,.46,1.03,1.43,.52,.96,1.02,2.43,1.14,4.12,.11,1.68-.2,3.2-.59,4.23-.39,1.03-.79,1.58-.84,1.55Z"/><path class="cls-4" d="M116.07,406.24c0,.13-1.91-.1-3.68-1.56-1.78-1.45-2.38-3.28-2.25-3.31,.14-.07,.91,1.55,2.58,2.9,1.65,1.38,3.4,1.81,3.35,1.97Z"/></g><g><path class="cls-10" d="M162.25,195.99c.17-1.38,1-2.67,2.18-3.4,.12,.67,.25,1.33,.37,2,1.04-1.57,2.86-2.58,4.74-2.63-.48,.86-.97,1.71-1.45,2.57,1-.38,2.09-.52,3.15-.42-.5,1.12-1.57,1.85-2.53,2.6-.97,.75-1.94,1.68-2.1,2.89"/><g><path class="cls-6" d="M222.49,264.28l-44.42,36.59c-.76-.64-14.27-27.24-14.27-27.24l38.81-23.09-33.35-29.87,8.62-6.53,42.22,23.56c4.82,2.69,7.93,7.65,8.26,13.16h0c.3,5.15-1.87,10.14-5.86,13.42Z"/><g><g><path class="cls-6" d="M171.52,222.47l6.86-7.86h0l-8.92-8.27-2.34-5.88c.53-3.85-3.13-4.32-3.13-4.32l-7.23-.47s-3.41-.19-3.09,1.97c.09,.64,.7,.81,.7,.81l-.7,1.23c-.07,1.97,2.46,2.18,2.46,2.18l6.03,.56,1.2,3.16s-7.23-3.3-8.43-2.04c-1.19,1.26,12.19,8.08,12.19,8.08l.54,8.68,1.41,.54,2.46,1.63Z"/><path class="cls-2" d="M167.11,200.62c-.08,.04-.31-.73-1.3-1.38-.49-.32-1.13-.59-1.9-.7-.77-.13-1.64-.12-2.56-.1-3.71,.09-6.73,.04-6.73-.1,0-.14,3-.33,6.72-.42,.93-.02,1.84-.02,2.66,.15,.82,.15,1.53,.49,2.03,.88,1.03,.8,1.14,1.69,1.09,1.68Z"/><path class="cls-2" d="M169.16,209.16c-.07,.04-.29-.31-.75-.74-.45-.44-1.17-.95-2.04-1.41-1.74-.9-3.28-1.48-3.22-1.64,.04-.11,1.64,.24,3.46,1.18,.9,.48,1.65,1.07,2.07,1.62,.42,.54,.53,.97,.47,.99Z"/></g><path class="cls-2" d="M173.98,224.9s-.58-.36-1.45-1.08c-.87-.72-2.07-1.75-3.44-2.96l.26,.05c-.79,.28-1.63-.2-2.03-.88-.33-.58-.39-1.2-.4-1.76,0-.56,.02-1.08,.03-1.58,.03-.95,.07-1.84,.1-2.66,.07-1.51,.15-2.45,.22-2.45,.07,0,.12,.94,.15,2.46,0,.82,0,1.71,.01,2.66,.04,.99-.16,2.16,.33,3.07,.3,.52,.94,.85,1.4,.67l.14-.05,.11,.1c1.35,1.23,2.51,2.31,3.32,3.1s1.28,1.28,1.24,1.32Z"/></g><path class="cls-2" d="M210.31,258.03c-.11,.11-1.85-1.58-3.99-3.64-2.13-2.08-4.02-3.54-3.96-3.65,.08-.14,2.17,1.17,4.32,3.27,2.16,2.07,3.73,3.92,3.63,4.01Z"/></g><path class="cls-10" d="M155.99,202.1c.58-.62,1.23-1.2,2.02-1.5,.79-.3,1.76-.26,2.41,.28,.5,.41,.76,1.04,1.27,1.44,.65,.52,1.59,.54,2.36,.25,.78-.29,1.42-.85,2.01-1.43,.18-.17,.44-.36,.65-.24,.13,.08,.18,.25,.2,.4,.1,.71-.06,1.46-.45,2.06,.34,.09,.72,.05,1.03-.13,.37,.87-.3,1.91-1.18,2.26-.88,.35-1.87,.2-2.8,.01-2.15-.44-4.29-1.1-6.09-2.36"/></g><g><g><path class="cls-7" d="M81.1,284.88c-.7-12.25,5.14-24.11,14.96-31.46,1.52,12.22-4.37,25.06-14.62,31.88"/><g class="cls-11"><path d="M81.1,284.88c-.7-12.25,5.14-24.11,14.96-31.46,1.52,12.22-4.37,25.06-14.62,31.88"/></g></g><g><path class="cls-6" d="M116.38,272.53l-25.09-22.34,30.43-30.64-11.86-8.67s-35.88,27.09-43.1,34.71c-3.37,3.55-4.59,12.82-.47,17.02,10.66,10.87,32.14,30.41,32.14,30.41l17.95-20.48Z"/><g><path class="cls-6" d="M148.6,205.21c-3.16-.51-10.52-1.7-10.52-1.7l6.09-3.07,2.94-.1s-.56-3.09-3.85-3.3c-3.29-.21-3.83,.45-3.83,.45,0,0-1.61-3.44-2.47-3.65-.86-.22-2.8-.77-3.87-.62-1.08,.15-2.79,1.74-2.79,1.74,0,0-3.88-2.09-4.82-.78-.94,1.31-2.16,5.33-2.16,5.33l-5.38,5.22-.91,.55-15.85,12.36,11.31,11.37,13.71-14.05,2.23,.67s1.81,.41,3.25-.98c.74-.71,1.12-.89,2.29-2.39,.51-.66,1.53-2.4,1.73-2.59,.9-.85,1.77-1.23,1.77-1.23,0,0,11.14-.15,11.95-.67,.81-.52,1.91-2.12-.8-2.56Z"/><path class="cls-2" d="M134.16,199.84c-.06-.12,1.19-.89,2.85-1.65,1.66-.77,3.14-1.07,3.17-.92,.03,.13-1.32,.64-2.96,1.4-1.63,.75-3,1.31-3.07,1.18Z"/><path class="cls-2" d="M136.58,196.62c.14,.04,.09,.62-.1,1.3-.2,.68-.47,1.2-.6,1.16-.14-.04-.09-.62,.1-1.3,.2-.68,.47-1.2,.6-1.16Z"/><path class="cls-2" d="M127.01,198.96c-.11-.09,.63-1.15,1.66-2.35,1.02-1.21,1.94-2.11,2.05-2.01,.11,.09-.63,1.15-1.66,2.35-1.02,1.21-1.94,2.11-2.05,2.01Z"/><path class="cls-2" d="M150.34,206.06s.02,.1,.01,.27c-.02,.18-.04,.44-.16,.77-.11,.32-.42,.73-.92,.88-.47,.16-1.02,.23-1.61,.29-1.18,.1-2.61,.18-4.17,.2-1.57,.03-3.29,.02-5.07,.19-.88,.09-1.72,.28-2.35,.76-.63,.48-1.05,1.18-1.45,1.85-.77,1.37-1.69,2.54-2.67,3.26-.98,.74-1.95,1.04-2.62,1.11-.68,.08-1.05-.01-1.04-.04,0-.04,.37-.02,1.01-.16,.63-.14,1.54-.47,2.43-1.2,.91-.73,1.74-1.84,2.48-3.21,.39-.68,.82-1.44,1.55-2.01,.74-.57,1.69-.79,2.6-.88,1.83-.17,3.55-.15,5.12-.15,1.57,.01,2.97-.04,4.15-.09,.59-.03,1.12-.07,1.54-.2,.43-.11,.69-.4,.82-.68,.26-.58,.28-.97,.33-.96Z"/></g><path class="cls-2" d="M92.77,248.21c.05,.05-.47,.68-1.37,1.66-.89,.98-2.16,2.3-3.57,3.75-1.42,1.44-2.72,2.73-3.68,3.64-.96,.91-1.58,1.45-1.63,1.4-.05-.05,.48-.68,1.37-1.66,.89-.98,2.15-2.3,3.57-3.74,1.41-1.44,2.71-2.72,3.68-3.63,.96-.91,1.58-1.45,1.63-1.4Z"/><path class="cls-10" d="M136.47,198.55c-1.34-.99-2.31-2.47-2.68-4.1,.47,.32,.93,.65,1.4,.97-.79-1.94-.66-4.23,.33-6.08,.8,1.32,1.6,2.64,2.4,3.95,.13-.9,.72-1.72,1.52-2.13-.13,2.08,.25,4.2,1.1,6.11"/><path class="cls-10" d="M129.4,196.06c-1.06-1.02-1.92-2.24-2.51-3.59,.22-.11,.46,.06,.66,.19,.2,.14,.5,.25,.66,.06,.14-.16,.05-.4-.02-.6-.38-1-.29-2.17,.25-3.1,.92,1.72,1.85,3.44,2.77,5.16-.63,.59-1.26,1.18-1.88,1.77"/></g></g><g><path class="cls-10" d="M267.22,424.92c-2.16-6.97-4.76-13.97-15.27-20.1l-10.01-5.06c.28,.11,.56,.22,.84,.33l-44.33-22.64-.56,.04-13.46-6.8-39.57,1.53-2.71,8.87-25.91,1.68-.59,20.31,.04,8.49c-4.46-4.51-14.7,.49-14.7,7.93l25.95,37.25c12.99,21.15,42.9,13.91,42.9,13.91,.12-.07,.25-.14,.37-.21,4.63-2.59,8.07-6.59,10.02-11.21,1.94-4.63,2.38-9.89,.99-15l-1.27-4.66c.16,.38,.25,.59,.25,.59l-.34-4.47,.17,.1,41.3,10.85c16.38,2.67,27.22,5.92,38.35-.95,2.27-1.4,3.97-3.12,5.24-4.9,3.25-4.58,3.97-10.51,2.31-15.88Z"/><path class="cls-9" d="M254.57,440.12s.38,0,1.05-.17c.67-.16,1.62-.49,2.71-1.08,2.16-1.14,4.87-3.63,6.01-7.31,1.11-3.69,.25-7.27-.91-9.42-.57-1.1-1.18-1.9-1.65-2.4-.47-.51-.76-.75-.78-.73-.08,.07,1.07,1.1,2.11,3.29,1.04,2.13,1.81,5.59,.75,9.12-1.09,3.52-3.66,5.96-5.71,7.15-2.08,1.23-3.62,1.44-3.59,1.55Z"/><g><path class="cls-9" d="M136.92,460.41c.13-.03-.84-4.27-2.17-9.45-1.33-5.19-2.52-9.36-2.65-9.33-.13,.03,.84,4.26,2.17,9.45,1.33,5.19,2.52,9.36,2.65,9.33Z"/><path class="cls-9" d="M133.85,448.7c-.06,.01,.08,.82,.51,2.07,.43,1.24,1.2,2.92,2.33,4.59,1.14,1.67,2.41,3,3.41,3.85,1,.86,1.7,1.29,1.73,1.24,.11-.12-2.52-2.08-4.73-5.37-2.25-3.27-3.1-6.43-3.25-6.37Z"/><path class="cls-9" d="M154.44,466.52s.28,.11,.82,.19c.54,.08,1.32,.14,2.29,.1,1.93-.07,4.66-.69,7.14-2.37,2.49-1.68,4.07-3.99,4.86-5.75,.4-.89,.64-1.64,.76-2.17,.12-.53,.15-.83,.12-.83-.09-.02-.34,1.15-1.2,2.85-.85,1.69-2.42,3.87-4.82,5.5-2.4,1.62-5.01,2.28-6.89,2.44-1.89,.17-3.08-.03-3.09,.06Z"/></g><g><path class="cls-9" d="M131.63,398.2s.49-.23,1.34-.68c.85-.45,2.12-1.06,3.73-1.67,3.2-1.23,7.96-2.31,13.21-1.87,5.25,.44,9.76,2.31,12.71,4.06,1.49,.87,2.63,1.68,3.4,2.27,.77,.59,1.18,.93,1.21,.9,.01-.01-.08-.11-.26-.29-.19-.17-.45-.45-.83-.76-.73-.64-1.85-1.5-3.34-2.42-2.94-1.85-7.51-3.8-12.85-4.25-5.34-.45-10.17,.71-13.38,2.04-1.62,.66-2.87,1.32-3.7,1.83-.42,.24-.73,.47-.94,.61-.21,.15-.32,.23-.31,.24Z"/><path class="cls-9" d="M180.97,384.54s-.69,.67-1.52,1.96c-.83,1.29-1.78,3.22-2.42,5.49-.63,2.27-.82,4.41-.78,5.95,.03,1.54,.22,2.47,.28,2.47,.17,0-.3-3.82,.98-8.28,1.23-4.48,3.61-7.5,3.46-7.59Z"/></g><path class="cls-9" d="M132,442.9s-.32-.39-.8-1.14c-.49-.75-1.17-1.85-1.98-3.23-1.63-2.76-3.74-6.64-5.94-11-2.2-4.36-4.1-8.34-5.47-11.24-.64-1.38-1.17-2.53-1.59-3.44-.37-.82-.55-1.27-.52-1.29s.28,.41,.7,1.2c.42,.79,1.02,1.94,1.74,3.36,1.48,2.95,3.44,6.85,5.6,11.16,2.2,4.35,4.26,8.25,5.8,11.05,.74,1.33,1.35,2.44,1.83,3.31,.43,.78,.66,1.22,.63,1.24Z"/><path class="cls-9" d="M231.23,440.9s-.19-.02-.54-.1c-.41-.11-.91-.24-1.53-.4-1.39-.38-3.29-.91-5.59-1.55-4.78-1.36-11.25-3.2-18.41-5.24-7.16-2.04-13.63-3.89-18.41-5.25-2.3-.64-4.2-1.17-5.59-1.56l-1.52-.41c-.35-.1-.53-.16-.52-.17,0-.02,.19,0,.55,.07,.35,.07,.88,.16,1.55,.32,1.34,.3,3.26,.78,5.63,1.4,4.74,1.24,11.26,3.05,18.45,5.11,7.19,2.06,13.68,3.97,18.37,5.39,2.29,.7,4.17,1.28,5.55,1.7,.61,.2,1.1,.36,1.5,.49,.34,.12,.52,.19,.51,.21Z"/><path class="cls-9" d="M171.9,383.35c.07,0,.18,1.11,.32,2.9,.14,1.8,.32,4.28,.47,7.02,.15,2.75,.24,5.24,.23,7.05-.01,.9-.04,1.64-.12,2.14-.05,.51-.21,.78-.23,.76-.04-.03,.03-.27,.03-.78,0-.5-.01-1.22-.05-2.12-.11-1.96-.24-4.37-.38-7.02-.15-2.74-.28-5.23-.32-7.03-.05-1.8-.02-2.92,.05-2.92Z"/><path class="cls-9" d="M166.16,385.78s.12-.16,.45-.26c.32-.1,.85-.14,1.42,.12,.57,.23,1.15,.92,1.15,1.78,.01,.42-.09,.87-.34,1.27-.25,.4-.67,.71-1.14,.85-.95,.29-2-.12-2.44-.88-.44-.74-.37-1.58-.07-2.13,.31-.57,.77-.8,1.05-.95,.29-.15,.46-.2,.48-.17,.02,.03-.12,.14-.37,.34-.24,.19-.62,.47-.83,.94-.2,.46-.22,1.15,.15,1.71,.34,.56,1.15,.85,1.88,.64,.75-.19,1.16-.94,1.15-1.61,.02-.68-.38-1.22-.84-1.46-.96-.51-1.69-.1-1.7-.19Z"/><path class="cls-9" d="M169.52,405.46s.27,.48,.66,1.39c.39,.91,.92,2.23,1.53,3.89,1.23,3.31,2.73,7.95,4.22,13.12,1.49,5.18,2.72,9.89,3.58,13.31,.4,1.64,.74,3.01,1,4.06,.23,.96,.33,1.5,.3,1.5-.03,0-.21-.51-.49-1.45-.3-1.04-.69-2.39-1.16-4.01-.98-3.48-2.28-8.13-3.73-13.26-1.49-5.17-2.93-9.81-4.07-13.15-.56-1.67-1.04-3.01-1.37-3.94-.33-.93-.5-1.45-.47-1.46Z"/><path class="cls-9" d="M231.46,441.2s.14-.2,.19-.62c.06-.41-.06-1.08-.59-1.68-.53-.6-1.5-.97-2.64-1.18-1.16-.24-2.47-.52-3.91-.82-5.78-1.29-13.7-3.42-22.19-6.52-8.5-3.09-15.93-6.57-21.18-9.31-1.32-.68-2.5-1.31-3.52-1.89-1.03-.57-1.92-1.06-2.63-1.49-.67-.4-1.22-.73-1.64-.98-.37-.23-.56-.36-.55-.37,0-.02,.22,.08,.6,.28,.43,.23,.99,.52,1.68,.89,.72,.4,1.62,.87,2.66,1.41,1.04,.55,2.23,1.16,3.55,1.82,5.28,2.65,12.71,6.07,21.19,9.15,8.47,3.1,16.35,5.27,22.1,6.65,1.43,.33,2.73,.63,3.89,.9,1.15,.25,2.17,.65,2.73,1.33,.55,.67,.64,1.4,.54,1.83-.09,.45-.29,.61-.29,.61Z"/></g><g><path class="cls-10" d="M128.68,327.35s.09,.13,.29,.34c.25,.25,.55,.55,.9,.9,.39,.39,.88,.86,1.5,1.36,.61,.5,1.27,1.11,2.09,1.68,.79,.6,1.67,1.24,2.67,1.86,.97,.66,2.07,1.25,3.21,1.9,2.33,1.22,4.99,2.38,7.88,3.31,2.9,.9,5.75,1.47,8.36,1.81,1.31,.13,2.55,.28,3.72,.29,1.17,.07,2.26,.05,3.25,.01,.99,0,1.89-.11,2.67-.18,.79-.06,1.46-.16,2.01-.25,.5-.09,.91-.16,1.26-.22,.29-.06,.44-.09,.43-.11,0-.02-.16-.01-.45,.01-.35,.03-.77,.08-1.27,.13-.55,.07-1.22,.14-2,.17-.78,.04-1.67,.13-2.66,.1-.99,.01-2.07,.02-3.22-.07-1.16-.03-2.39-.19-3.68-.33-2.58-.36-5.39-.94-8.26-1.83-2.86-.92-5.5-2.06-7.82-3.25-1.14-.63-2.24-1.2-3.21-1.84-1-.59-1.88-1.22-2.68-1.79-.82-.55-1.5-1.13-2.12-1.61-.63-.47-1.13-.92-1.54-1.29-.38-.33-.7-.6-.97-.83-.22-.19-.35-.28-.36-.27Z"/><path class="cls-7" d="M181.36,337.32l-.71-9.46,.76-26.29,23.84-18.73c-1.1-8.45-14.4-25.67-14.4-25.67l-20.32,8.04h-3.43l-2.96,2.9-6.87-.94c-2.67,13.33-19.52,11.5-28.6,.66l-9.92,.87-3.63-3.28-5.09,1.39-13.95-13.38c-.3,14.11-5.54,24.18-14.99,31.45l20.06,21.6,4.99,4.97c1.84,26.39,3.57,51.73,8.64,77.09l5.24-1.15c26.75-.54,67.47-8.72,78.42-9.93l2.25-2.21-4.01-3.54-15.34-34.38Z"/><path class="cls-10" d="M117.32,274.23s.17,.52,.37,1.48c.19,.97,.45,2.37,.68,4.11,.47,3.48,.94,8.34,.72,13.72-.12,2.69-.41,5.25-.97,7.53-.54,2.28-1.55,4.28-2.96,5.44-1.39,1.17-2.91,1.51-3.91,1.45-.5-.01-.88-.13-1.13-.21-.24-.1-.37-.16-.36-.17,.02-.06,.52,.2,1.49,.18,.95,0,2.37-.39,3.67-1.53,1.3-1.12,2.24-3.04,2.74-5.27,.52-2.24,.79-4.78,.91-7.44,.22-5.33-.19-10.17-.56-13.66-.19-1.74-.39-3.15-.52-4.12-.14-.97-.2-1.51-.17-1.52Z"/><path class="cls-10" d="M127.68,289.18c-.08,0-.13-1.19-.31-3.1-.18-1.91-.54-4.53-1.22-7.37-.68-2.84-1.55-5.35-2.25-7.13-.7-1.79-1.2-2.87-1.12-2.9,.03-.02,.19,.24,.45,.71,.27,.47,.61,1.17,1.01,2.05,.79,1.76,1.72,4.28,2.41,7.15,.68,2.87,.99,5.54,1.08,7.47,.05,.97,.05,1.75,.03,2.29-.02,.54-.05,.84-.08,.84Z"/><path class="cls-10" d="M184.43,370.34s-.16,.11-.5,.28c-.39,.19-.87,.43-1.47,.72-.64,.31-1.42,.68-2.36,1.07-.93,.39-1.98,.86-3.17,1.29-2.37,.93-5.24,1.88-8.48,2.79-3.25,.87-6.86,1.67-10.69,2.27-3.84,.57-7.53,.86-10.89,.98-3.36,.09-6.39,.02-8.92-.17-1.27-.06-2.41-.2-3.41-.3-1-.09-1.86-.21-2.57-.33-.65-.1-1.19-.19-1.61-.26-.37-.06-.56-.11-.56-.12,0-.02,.2-.01,.57,.02,.43,.04,.97,.09,1.62,.16,.7,.08,1.56,.17,2.57,.24,1,.07,2.14,.19,3.41,.22,2.53,.14,5.54,.17,8.88,.05,3.34-.15,7.01-.46,10.83-1.02,3.81-.59,7.41-1.37,10.64-2.21,3.23-.88,6.1-1.79,8.47-2.67,1.2-.41,2.25-.86,3.19-1.22,.94-.36,1.74-.7,2.39-.98l1.51-.63c.35-.14,.53-.2,.54-.19Z"/><g class="cls-11"><path d="M124.02,269.49c2.77,6.81,4.98,14.86,5.17,22.2,.04,1.53,0,3.14-.74,4.49-.16,.28-.4,.58-.72,.59-.56,.01-.73-.76-.71-1.32,.3-8.81-.84-17.4-3-25.95"/></g><g class="cls-11"><path d="M132.13,329.37c8.88,5.09,19.1,7.83,29.34,7.87,1.14,0,2.36,0,3.28,.68s1.16,2.31,.17,2.86c-.29,.16-.64,.2-.98,.24-11.81,1.13-24.03-3.16-32.53-11.42"/></g><path class="cls-10" d="M179.57,330.17c-.14-.01,.52-10.44,1.48-23.3,.96-12.86,1.86-23.27,2-23.26,.14,.01-.52,10.44-1.48,23.3-.96,12.85-1.86,23.27-2,23.26Z"/><path class="cls-5" d="M105.13,261.9s.15,.51,.28,1.45c.13,.94,.24,2.32,.21,4.03-.05,3.39-.87,8.17-3.31,12.81-2.44,4.64-5.91,8.03-8.67,10-1.38,1-2.58,1.69-3.43,2.11-.85,.43-1.34,.62-1.35,.59-.02-.04,.44-.29,1.26-.77,.81-.48,1.97-1.21,3.31-2.23,2.68-2.02,6.04-5.39,8.43-9.95,2.39-4.56,3.26-9.23,3.4-12.58,.08-1.68,.03-3.05-.04-3.99-.07-.94-.12-1.46-.08-1.47Z"/><path class="cls-5" d="M112.43,266.13s.11,.12,.27,.38c.17,.25,.39,.64,.64,1.16,.51,1.03,1.1,2.62,1.44,4.66,.72,4.09,.37,9.83-.74,16-.6,3.09-1.52,5.97-2.72,8.43-1.2,2.46-2.66,4.47-4.1,5.96-1.43,1.5-2.8,2.49-3.79,3.07-.5,.29-.89,.5-1.17,.62-.27,.13-.42,.19-.43,.17-.02-.04,.54-.33,1.49-.96,.95-.63,2.25-1.65,3.63-3.15,1.37-1.5,2.77-3.5,3.93-5.92,1.15-2.43,2.05-5.27,2.64-8.32,1.1-6.11,1.51-11.82,.89-15.84-.58-4.06-2.12-6.21-1.99-6.25Z"/><path class="cls-5" d="M126.11,278.29c-.04,.16-1.8-.39-3.95,.07-2.15,.42-3.57,1.61-3.66,1.48-.04-.05,.25-.41,.86-.85,.61-.44,1.56-.91,2.69-1.14,1.13-.23,2.19-.17,2.93,0,.74,.16,1.15,.39,1.13,.45Z"/><path class="cls-5" d="M126.43,274.14s.47,.59,1.29,1.65c.82,1.07,2.04,2.6,3.72,4.31,1.68,1.7,3.88,3.59,6.68,5.05,2.79,1.44,6.27,2.36,9.9,1.97,3.62-.38,6.91-1.85,9.32-3.88,2.44-2.01,3.98-4.5,4.88-6.7,.91-2.22,1.19-4.16,1.3-5.5,.09-1.34,.03-2.09,.09-2.09,.02,0,.04,.18,.08,.54,.04,.36,.05,.88,.04,1.56-.05,1.35-.28,3.34-1.16,5.62-.88,2.26-2.43,4.84-4.92,6.93-2.46,2.11-5.85,3.63-9.57,4.03-3.74,.41-7.33-.56-10.17-2.06-2.86-1.52-5.06-3.47-6.73-5.22-1.67-1.76-2.85-3.34-3.62-4.45-.39-.55-.67-1-.86-1.3-.19-.3-.28-.47-.27-.48Z"/><path class="cls-5" d="M129,297.61c-.04,.16-2.4-.69-5.35-.23-2.96,.41-4.98,1.9-5.06,1.75-.04-.05,.41-.49,1.28-1,.87-.51,2.18-1.05,3.71-1.27,1.53-.22,2.94-.08,3.92,.16,.98,.24,1.53,.53,1.51,.59Z"/><path class="cls-5" d="M180.45,288.71c0,.06-.75-.1-2.1,0-1.34,.09-3.27,.53-5.43,1.6-2.18,1.04-4.49,2.78-7.13,4.62-1.33,.91-2.76,1.84-4.36,2.6-1.6,.76-3.33,1.36-5.15,1.79-3.65,.85-7.25,.96-10.47,.75-3.22-.22-6.09-.74-8.47-1.25-2.38-.51-4.29-1-5.6-1.35-.61-.17-1.11-.31-1.51-.42-.34-.1-.52-.16-.52-.18,0-.02,.19,.01,.54,.08,.41,.09,.91,.19,1.53,.32,1.33,.28,3.25,.72,5.63,1.18,2.38,.45,5.23,.93,8.43,1.13,3.19,.19,6.73,.06,10.32-.78,1.79-.43,3.49-1.01,5.05-1.75,1.57-.73,2.98-1.64,4.31-2.53,2.64-1.81,5-3.54,7.24-4.56,2.22-1.05,4.21-1.45,5.58-1.47,.69-.02,1.22,.03,1.57,.08,.36,.06,.54,.1,.54,.12Z"/><path class="cls-5" d="M184.37,282.02c-.09,0-.16-1.16-.57-2.99-.4-1.83-1.23-4.3-2.68-6.75-1.46-2.45-3.24-4.36-4.65-5.58-1.41-1.23-2.41-1.85-2.36-1.93,.02-.03,.28,.1,.74,.36,.47,.26,1.1,.69,1.85,1.28,1.5,1.17,3.37,3.09,4.86,5.6,1.49,2.51,2.28,5.07,2.6,6.95,.16,.94,.24,1.71,.24,2.24,.01,.53,0,.82-.03,.83Z"/><path class="cls-5" d="M195.34,290.62s-.05-.47-.05-1.31c.01-.84,0-2.05-.07-3.55-.14-2.98-.63-7.12-2.04-11.46-.72-2.16-1.6-4.15-2.51-5.9-.92-1.75-1.88-3.25-2.74-4.47-1.73-2.44-3-3.8-2.93-3.87,.03-.02,.36,.3,.94,.91,.59,.6,1.38,1.54,2.29,2.74,.91,1.21,1.91,2.7,2.87,4.46,.94,1.76,1.85,3.77,2.58,5.96,1.44,4.4,1.87,8.6,1.92,11.61,.02,1.51-.02,2.73-.09,3.57-.07,.84-.12,1.3-.16,1.3Z"/><path class="cls-5" d="M179.25,313.56s-.22,.14-.66,.35c-.44,.21-1.11,.5-1.99,.8-1.76,.6-4.41,1.21-7.74,1.39-3.33,.21-7.29-.05-11.66-.3-2.18-.11-4.48-.2-6.85-.09-2.37,.1-4.8,.47-7.26,1-4.92,1.08-9.57,2.5-13.97,2.96-4.39,.47-8.37,.17-11.67-.23-3.3-.41-5.94-.92-7.76-1.27-.87-.18-1.56-.32-2.09-.43-.48-.1-.73-.17-.72-.19,0-.02,.26,.01,.74,.08,.53,.08,1.23,.2,2.11,.33,1.83,.29,4.47,.74,7.76,1.1,3.28,.35,7.24,.61,11.57,.12,4.34-.48,8.96-1.9,13.91-2.99,2.48-.54,4.95-.91,7.35-1,2.4-.11,4.71,0,6.9,.12,4.38,.27,8.31,.57,11.61,.41,3.3-.13,5.93-.68,7.7-1.21,.88-.28,1.55-.53,2.01-.71,.45-.18,.69-.27,.7-.26Z"/><path class="cls-5" d="M150.35,336.51s-.61,.04-1.7,.02c-1.09-.03-2.66-.05-4.61-.03-3.89,.03-9.27,.31-15.14,1.17-5.87,.87-11.1,2.15-14.83,3.25-1.87,.54-3.37,1.01-4.41,1.36-1.04,.34-1.62,.51-1.63,.47-.01-.03,.54-.27,1.56-.66,1.01-.4,2.51-.93,4.37-1.52,3.72-1.19,8.96-2.53,14.86-3.41,5.9-.86,11.31-1.08,15.21-1.02,1.95,.03,3.53,.1,4.62,.2,1.09,.09,1.69,.15,1.69,.19Z"/><path class="cls-5" d="M179.32,333.95c.03,.06-.76,.5-2.1,1.09-1.34,.59-3.23,1.3-5.38,1.9-2.15,.6-4.14,.97-5.59,1.16-1.45,.19-2.35,.22-2.36,.16,0-.08,.88-.24,2.3-.52,1.42-.28,3.38-.71,5.51-1.3,2.13-.6,4.02-1.25,5.38-1.74,1.36-.5,2.2-.82,2.24-.75Z"/><path class="cls-5" d="M188.45,351.76s-.24,.14-.71,.37c-.47,.23-1.17,.54-2.08,.92-1.83,.76-4.52,1.77-7.92,2.76-6.81,1.98-16.45,3.84-27.22,4.84-10.77,.99-20.59,.78-27.65,.23-3.53-.26-6.38-.6-8.34-.85-.94-.14-1.69-.25-2.25-.33-.51-.08-.78-.13-.78-.15,0-.02,.28,0,.79,.05,.57,.06,1.32,.14,2.26,.23,1.97,.19,4.81,.47,8.34,.69,7.05,.46,16.84,.62,27.57-.38,10.73-.99,20.36-2.79,27.16-4.67,3.4-.94,6.1-1.89,7.95-2.59,.88-.35,1.59-.62,2.12-.83,.48-.19,.74-.29,.75-.27Z"/><path class="cls-5" d="M126.68,378.16c-.02,.17-3.2-.46-7.12-.04-3.92,.38-6.91,1.64-6.96,1.48-.03-.06,.69-.45,1.92-.89,1.23-.44,3-.9,4.99-1.11,1.99-.2,3.81-.11,5.11,.08,1.3,.18,2.07,.42,2.06,.48Z"/><path class="cls-5" d="M191.79,368.86c0,.15-1.81,.15-3.97,.54-2.17,.37-3.86,1-3.92,.85-.06-.12,1.59-.98,3.83-1.37,2.23-.4,4.08-.16,4.06-.02Z"/></g></g></g></svg>